<?xml version="1.0" encoding="utf-8"?>
<svg xmlns="http://www.w3.org/2000/svg" xmlns:xlink="http://www.w3.org/1999/xlink" width="450" height="724" viewBox="0 0 1800 2896">
<defs>
  <clipPath id="clip880">
    <rect x="0" y="0" width="1800" height="2896"/>
  </clipPath>
</defs>
<path clip-path="url(#clip880)" d="M0 2896 L1800 2896 L1800 0 L0 0  Z" fill="#ffffff" fill-rule="evenodd" fill-opacity="1"/>
<defs>
  <clipPath id="clip881">
    <rect x="579" y="289" width="1800" height="2028"/>
  </clipPath>
</defs>
<path clip-path="url(#clip880)" d="M47.2441 2808.96 L1752.76 2808.96 L1752.76 87.036 L47.2441 87.036  Z" fill="#ffffff" fill-rule="evenodd" fill-opacity="1"/>
<defs>
  <clipPath id="clip882">
    <rect x="47" y="87" width="1707" height="2723"/>
  </clipPath>
</defs>
<polyline clip-path="url(#clip882)" style="stroke:#000000; stroke-linecap:round; stroke-linejoin:round; stroke-width:4; stroke-opacity:1; fill:none" points="290.889,475.883 530.842,1005.01 "/>
<polyline clip-path="url(#clip882)" style="stroke:#000000; stroke-linecap:round; stroke-linejoin:round; stroke-width:4; stroke-opacity:1; fill:none" points="290.889,475.883 807.71,1005.01 "/>
<polyline clip-path="url(#clip882)" style="stroke:#000000; stroke-linecap:round; stroke-linejoin:round; stroke-width:4; stroke-opacity:1; fill:none" points="696.963,475.883 530.842,1005.01 "/>
<polyline clip-path="url(#clip882)" style="stroke:#000000; stroke-linecap:round; stroke-linejoin:round; stroke-width:4; stroke-opacity:1; fill:none" points="696.963,475.883 1084.58,1005.01 "/>
<polyline clip-path="url(#clip882)" style="stroke:#000000; stroke-linecap:round; stroke-linejoin:round; stroke-width:4; stroke-opacity:1; fill:none" points="1103.04,475.883 807.71,1005.01 "/>
<polyline clip-path="url(#clip882)" style="stroke:#000000; stroke-linecap:round; stroke-linejoin:round; stroke-width:4; stroke-opacity:1; fill:none" points="1103.04,475.883 1084.58,1005.01 "/>
<polyline clip-path="url(#clip882)" style="stroke:#000000; stroke-linecap:round; stroke-linejoin:round; stroke-width:4; stroke-opacity:1; fill:none" points="1509.11,475.883 1223.01,1288.03 "/>
<polyline clip-path="url(#clip882)" style="stroke:#000000; stroke-linecap:round; stroke-linejoin:round; stroke-width:4; stroke-opacity:1; fill:none" points="1509.11,475.883 1199.94,1571.05 "/>
<polyline clip-path="url(#clip882)" style="stroke:#000000; stroke-linecap:round; stroke-linejoin:round; stroke-width:4; stroke-opacity:1; fill:none" points="530.842,1005.01 530.842,1288.03 "/>
<polyline clip-path="url(#clip882)" style="stroke:#000000; stroke-linecap:round; stroke-linejoin:round; stroke-width:4; stroke-opacity:1; fill:none" points="807.71,1005.01 807.71,1288.03 "/>
<polyline clip-path="url(#clip882)" style="stroke:#000000; stroke-linecap:round; stroke-linejoin:round; stroke-width:4; stroke-opacity:1; fill:none" points="1084.58,1005.01 1223.01,1288.03 "/>
<polyline clip-path="url(#clip882)" style="stroke:#000000; stroke-linecap:round; stroke-linejoin:round; stroke-width:4; stroke-opacity:1; fill:none" points="807.71,1288.03 715.421,1571.05 "/>
<polyline clip-path="url(#clip882)" style="stroke:#000000; stroke-linecap:round; stroke-linejoin:round; stroke-width:4; stroke-opacity:1; fill:none" points="1223.01,1288.03 1199.94,1571.05 "/>
<polyline clip-path="url(#clip882)" style="stroke:#000000; stroke-linecap:round; stroke-linejoin:round; stroke-width:4; stroke-opacity:1; fill:none" points="715.421,1571.05 715.421,1854.07 "/>
<polyline clip-path="url(#clip882)" style="stroke:#000000; stroke-linecap:round; stroke-linejoin:round; stroke-width:4; stroke-opacity:1; fill:none" points="1199.94,1571.05 1199.94,1854.07 "/>
<polyline clip-path="url(#clip882)" style="stroke:#000000; stroke-linecap:round; stroke-linejoin:round; stroke-width:4; stroke-opacity:1; fill:none" points="1199.94,1854.07 1315.3,2137.1 "/>
<polyline clip-path="url(#clip882)" style="stroke:#000000; stroke-linecap:round; stroke-linejoin:round; stroke-width:4; stroke-opacity:1; fill:none" points="1315.3,2137.1 1315.3,2420.12 "/>
<path clip-path="url(#clip882)" d="M341.023 475.883 L340.864 471.9 L340.39 467.942 L339.602 464.034 L338.507 460.201 L337.11 456.467 L335.422 452.857 L333.451 449.391 L331.212 446.093 L328.718 442.984 L325.984 440.082 L323.029 437.407 L319.871 434.975 L316.529 432.802 L313.025 430.901 L309.381 429.284 L305.62 427.962 L301.767 426.943 L297.844 426.234 L293.877 425.838 L289.892 425.759 L285.913 425.997 L281.965 426.55 L278.074 427.415 L274.263 428.586 L270.558 430.056 L266.981 431.816 L263.556 433.855 L260.303 436.16 L257.244 438.715 L254.397 441.506 L251.781 444.514 L249.413 447.72 L247.306 451.104 L245.475 454.645 L243.932 458.32 L242.685 462.107 L241.743 465.98 L241.111 469.916 L240.794 473.89 L240.794 477.876 L241.111 481.85 L241.743 485.786 L242.685 489.659 L243.932 493.445 L245.475 497.121 L247.306 500.662 L249.413 504.046 L251.781 507.252 L254.397 510.26 L257.244 513.051 L260.303 515.606 L263.556 517.911 L266.981 519.949 L270.558 521.709 L274.263 523.18 L278.074 524.351 L281.965 525.216 L285.913 525.769 L289.892 526.007 L293.877 525.928 L297.844 525.532 L301.767 524.822 L305.62 523.803 L309.381 522.481 L313.025 520.865 L316.529 518.964 L319.871 516.791 L323.029 514.359 L325.984 511.684 L328.718 508.782 L331.212 505.672 L333.451 502.375 L335.422 498.909 L337.11 495.298 L338.507 491.565 L339.602 487.732 L340.39 483.824 L340.864 479.866 L341.023 475.883 L341.023 475.883  Z" fill="#c721dd" fill-rule="evenodd" fill-opacity="1"/>
<polyline clip-path="url(#clip882)" style="stroke:#000000; stroke-linecap:round; stroke-linejoin:round; stroke-width:4; stroke-opacity:1; fill:none" points="341.023,475.883 340.864,471.9 340.39,467.942 339.602,464.034 338.507,460.201 337.11,456.467 335.422,452.857 333.451,449.391 331.212,446.093 328.718,442.984 325.984,440.082 323.029,437.407 319.871,434.975 316.529,432.802 313.025,430.901 309.381,429.284 305.62,427.962 301.767,426.943 297.844,426.234 293.877,425.838 289.892,425.759 285.913,425.997 281.965,426.55 278.074,427.415 274.263,428.586 270.558,430.056 266.981,431.816 263.556,433.855 260.303,436.16 257.244,438.715 254.397,441.506 251.781,444.514 249.413,447.72 247.306,451.104 245.475,454.645 243.932,458.32 242.685,462.107 241.743,465.98 241.111,469.916 240.794,473.89 240.794,477.876 241.111,481.85 241.743,485.786 242.685,489.659 243.932,493.445 245.475,497.121 247.306,500.662 249.413,504.046 251.781,507.252 254.397,510.26 257.244,513.051 260.303,515.606 263.556,517.911 266.981,519.949 270.558,521.709 274.263,523.18 278.074,524.351 281.965,525.216 285.913,525.769 289.892,526.007 293.877,525.928 297.844,525.532 301.767,524.822 305.62,523.803 309.381,522.481 313.025,520.865 316.529,518.964 319.871,516.791 323.029,514.359 325.984,511.684 328.718,508.782 331.212,505.672 333.451,502.375 335.422,498.909 337.11,495.298 338.507,491.565 339.602,487.732 340.39,483.824 340.864,479.866 341.023,475.883 "/>
<path clip-path="url(#clip882)" d="M747.097 475.883 L746.938 471.9 L746.464 467.942 L745.676 464.034 L744.581 460.201 L743.185 456.467 L741.496 452.857 L739.526 449.391 L737.286 446.093 L734.792 442.984 L732.059 440.082 L729.103 437.407 L725.945 434.975 L722.603 432.802 L719.099 430.901 L715.455 429.284 L711.695 427.962 L707.841 426.943 L703.918 426.234 L699.952 425.838 L695.966 425.759 L691.987 425.997 L688.039 426.55 L684.148 427.415 L680.338 428.586 L676.632 430.056 L673.056 431.816 L669.63 433.855 L666.377 436.16 L663.318 438.715 L660.471 441.506 L657.856 444.514 L655.487 447.72 L653.38 451.104 L651.55 454.645 L650.006 458.32 L648.759 462.107 L647.817 465.98 L647.185 469.916 L646.869 473.89 L646.869 477.876 L647.185 481.85 L647.817 485.786 L648.759 489.659 L650.006 493.445 L651.55 497.121 L653.38 500.662 L655.487 504.046 L657.856 507.252 L660.471 510.26 L663.318 513.051 L666.377 515.606 L669.63 517.911 L673.056 519.949 L676.632 521.709 L680.338 523.18 L684.148 524.351 L688.039 525.216 L691.987 525.769 L695.966 526.007 L699.952 525.928 L703.918 525.532 L707.841 524.822 L711.695 523.803 L715.455 522.481 L719.099 520.865 L722.603 518.964 L725.945 516.791 L729.103 514.359 L732.059 511.684 L734.792 508.782 L737.286 505.672 L739.526 502.375 L741.496 498.909 L743.185 495.298 L744.581 491.565 L745.676 487.732 L746.464 483.824 L746.938 479.866 L747.097 475.883 L747.097 475.883  Z" fill="#d14a00" fill-rule="evenodd" fill-opacity="1"/>
<polyline clip-path="url(#clip882)" style="stroke:#000000; stroke-linecap:round; stroke-linejoin:round; stroke-width:4; stroke-opacity:1; fill:none" points="747.097,475.883 746.938,471.9 746.464,467.942 745.676,464.034 744.581,460.201 743.185,456.467 741.496,452.857 739.526,449.391 737.286,446.093 734.792,442.984 732.059,440.082 729.103,437.407 725.945,434.975 722.603,432.802 719.099,430.901 715.455,429.284 711.695,427.962 707.841,426.943 703.918,426.234 699.952,425.838 695.966,425.759 691.987,425.997 688.039,426.55 684.148,427.415 680.338,428.586 676.632,430.056 673.056,431.816 669.63,433.855 666.377,436.16 663.318,438.715 660.471,441.506 657.856,444.514 655.487,447.72 653.38,451.104 651.55,454.645 650.006,458.32 648.759,462.107 647.817,465.98 647.185,469.916 646.869,473.89 646.869,477.876 647.185,481.85 647.817,485.786 648.759,489.659 650.006,493.445 651.55,497.121 653.38,500.662 655.487,504.046 657.856,507.252 660.471,510.26 663.318,513.051 666.377,515.606 669.63,517.911 673.056,519.949 676.632,521.709 680.338,523.18 684.148,524.351 688.039,525.216 691.987,525.769 695.966,526.007 699.952,525.928 703.918,525.532 707.841,524.822 711.695,523.803 715.455,522.481 719.099,520.865 722.603,518.964 725.945,516.791 729.103,514.359 732.059,511.684 734.792,508.782 737.286,505.672 739.526,502.375 741.496,498.909 743.185,495.298 744.581,491.565 745.676,487.732 746.464,483.824 746.938,479.866 747.097,475.883 "/>
<path clip-path="url(#clip882)" d="M1153.17 475.883 L1153.01 471.9 L1152.54 467.942 L1151.75 464.034 L1150.66 460.201 L1149.26 456.467 L1147.57 452.857 L1145.6 449.391 L1143.36 446.093 L1140.87 442.984 L1138.13 440.082 L1135.18 437.407 L1132.02 434.975 L1128.68 432.802 L1125.17 430.901 L1121.53 429.284 L1117.77 427.962 L1113.92 426.943 L1109.99 426.234 L1106.03 425.838 L1102.04 425.759 L1098.06 425.997 L1094.11 426.55 L1090.22 427.415 L1086.41 428.586 L1082.71 430.056 L1079.13 431.816 L1075.7 433.855 L1072.45 436.16 L1069.39 438.715 L1066.55 441.506 L1063.93 444.514 L1061.56 447.72 L1059.45 451.104 L1057.62 454.645 L1056.08 458.32 L1054.83 462.107 L1053.89 465.98 L1053.26 469.916 L1052.94 473.89 L1052.94 477.876 L1053.26 481.85 L1053.89 485.786 L1054.83 489.659 L1056.08 493.445 L1057.62 497.121 L1059.45 500.662 L1061.56 504.046 L1063.93 507.252 L1066.55 510.26 L1069.39 513.051 L1072.45 515.606 L1075.7 517.911 L1079.13 519.949 L1082.71 521.709 L1086.41 523.18 L1090.22 524.351 L1094.11 525.216 L1098.06 525.769 L1102.04 526.007 L1106.03 525.928 L1109.99 525.532 L1113.92 524.822 L1117.77 523.803 L1121.53 522.481 L1125.17 520.865 L1128.68 518.964 L1132.02 516.791 L1135.18 514.359 L1138.13 511.684 L1140.87 508.782 L1143.36 505.672 L1145.6 502.375 L1147.57 498.909 L1149.26 495.298 L1150.66 491.565 L1151.75 487.732 L1152.54 483.824 L1153.01 479.866 L1153.17 475.883 L1153.17 475.883  Z" fill="#008c00" fill-rule="evenodd" fill-opacity="1"/>
<polyline clip-path="url(#clip882)" style="stroke:#000000; stroke-linecap:round; stroke-linejoin:round; stroke-width:4; stroke-opacity:1; fill:none" points="1153.17,475.883 1153.01,471.9 1152.54,467.942 1151.75,464.034 1150.66,460.201 1149.26,456.467 1147.57,452.857 1145.6,449.391 1143.36,446.093 1140.87,442.984 1138.13,440.082 1135.18,437.407 1132.02,434.975 1128.68,432.802 1125.17,430.901 1121.53,429.284 1117.77,427.962 1113.92,426.943 1109.99,426.234 1106.03,425.838 1102.04,425.759 1098.06,425.997 1094.11,426.55 1090.22,427.415 1086.41,428.586 1082.71,430.056 1079.13,431.816 1075.7,433.855 1072.45,436.16 1069.39,438.715 1066.55,441.506 1063.93,444.514 1061.56,447.72 1059.45,451.104 1057.62,454.645 1056.08,458.32 1054.83,462.107 1053.89,465.98 1053.26,469.916 1052.94,473.89 1052.94,477.876 1053.26,481.85 1053.89,485.786 1054.83,489.659 1056.08,493.445 1057.62,497.121 1059.45,500.662 1061.56,504.046 1063.93,507.252 1066.55,510.26 1069.39,513.051 1072.45,515.606 1075.7,517.911 1079.13,519.949 1082.71,521.709 1086.41,523.18 1090.22,524.351 1094.11,525.216 1098.06,525.769 1102.04,526.007 1106.03,525.928 1109.99,525.532 1113.92,524.822 1117.77,523.803 1121.53,522.481 1125.17,520.865 1128.68,518.964 1132.02,516.791 1135.18,514.359 1138.13,511.684 1140.87,508.782 1143.36,505.672 1145.6,502.375 1147.57,498.909 1149.26,495.298 1150.66,491.565 1151.75,487.732 1152.54,483.824 1153.01,479.866 1153.17,475.883 "/>
<path clip-path="url(#clip882)" d="M1559.25 475.883 L1559.09 471.9 L1558.61 467.942 L1557.82 464.034 L1556.73 460.201 L1555.33 456.467 L1553.64 452.857 L1551.67 449.391 L1549.43 446.093 L1546.94 442.984 L1544.21 440.082 L1541.25 437.407 L1538.09 434.975 L1534.75 432.802 L1531.25 430.901 L1527.6 429.284 L1523.84 427.962 L1519.99 426.943 L1516.07 426.234 L1512.1 425.838 L1508.11 425.759 L1504.14 425.997 L1500.19 426.55 L1496.3 427.415 L1492.49 428.586 L1488.78 430.056 L1485.2 431.816 L1481.78 433.855 L1478.53 436.16 L1475.47 438.715 L1472.62 441.506 L1470 444.514 L1467.64 447.72 L1465.53 451.104 L1463.7 454.645 L1462.15 458.32 L1460.91 462.107 L1459.97 465.98 L1459.33 469.916 L1459.02 473.89 L1459.02 477.876 L1459.33 481.85 L1459.97 485.786 L1460.91 489.659 L1462.15 493.445 L1463.7 497.121 L1465.53 500.662 L1467.64 504.046 L1470 507.252 L1472.62 510.26 L1475.47 513.051 L1478.53 515.606 L1481.78 517.911 L1485.2 519.949 L1488.78 521.709 L1492.49 523.18 L1496.3 524.351 L1500.19 525.216 L1504.14 525.769 L1508.11 526.007 L1512.1 525.928 L1516.07 525.532 L1519.99 524.822 L1523.84 523.803 L1527.6 522.481 L1531.25 520.865 L1534.75 518.964 L1538.09 516.791 L1541.25 514.359 L1544.21 511.684 L1546.94 508.782 L1549.43 505.672 L1551.67 502.375 L1553.64 498.909 L1555.33 495.298 L1556.73 491.565 L1557.82 487.732 L1558.61 483.824 L1559.09 479.866 L1559.25 475.883 L1559.25 475.883  Z" fill="#007fb1" fill-rule="evenodd" fill-opacity="1"/>
<polyline clip-path="url(#clip882)" style="stroke:#000000; stroke-linecap:round; stroke-linejoin:round; stroke-width:4; stroke-opacity:1; fill:none" points="1559.25,475.883 1559.09,471.9 1558.61,467.942 1557.82,464.034 1556.73,460.201 1555.33,456.467 1553.64,452.857 1551.67,449.391 1549.43,446.093 1546.94,442.984 1544.21,440.082 1541.25,437.407 1538.09,434.975 1534.75,432.802 1531.25,430.901 1527.6,429.284 1523.84,427.962 1519.99,426.943 1516.07,426.234 1512.1,425.838 1508.11,425.759 1504.14,425.997 1500.19,426.55 1496.3,427.415 1492.49,428.586 1488.78,430.056 1485.2,431.816 1481.78,433.855 1478.53,436.16 1475.47,438.715 1472.62,441.506 1470,444.514 1467.64,447.72 1465.53,451.104 1463.7,454.645 1462.15,458.32 1460.91,462.107 1459.97,465.98 1459.33,469.916 1459.02,473.89 1459.02,477.876 1459.33,481.85 1459.97,485.786 1460.91,489.659 1462.15,493.445 1463.7,497.121 1465.53,500.662 1467.64,504.046 1470,507.252 1472.62,510.26 1475.47,513.051 1478.53,515.606 1481.78,517.911 1485.2,519.949 1488.78,521.709 1492.49,523.18 1496.3,524.351 1500.19,525.216 1504.14,525.769 1508.11,526.007 1512.1,525.928 1516.07,525.532 1519.99,524.822 1523.84,523.803 1527.6,522.481 1531.25,520.865 1534.75,518.964 1538.09,516.791 1541.25,514.359 1544.21,511.684 1546.94,508.782 1549.43,505.672 1551.67,502.375 1553.64,498.909 1555.33,495.298 1556.73,491.565 1557.82,487.732 1558.61,483.824 1559.09,479.866 1559.25,475.883 "/>
<path clip-path="url(#clip882)" d="M559.636 1005.01 L559.545 1002.72 L559.272 1000.45 L558.82 998.205 L558.191 996.003 L557.389 993.859 L556.419 991.785 L555.288 989.794 L554.001 987.9 L552.569 986.114 L550.999 984.448 L549.301 982.911 L547.487 981.515 L545.568 980.266 L543.556 979.175 L541.463 978.246 L539.303 977.487 L537.089 976.902 L534.836 976.494 L532.558 976.267 L530.269 976.221 L527.984 976.358 L525.716 976.675 L523.481 977.172 L521.293 977.845 L519.165 978.689 L517.111 979.7 L515.143 980.871 L513.275 982.195 L511.518 983.663 L509.883 985.265 L508.38 986.993 L507.02 988.835 L505.81 990.778 L504.759 992.812 L503.872 994.923 L503.156 997.098 L502.615 999.322 L502.252 1001.58 L502.07 1003.87 L502.07 1006.15 L502.252 1008.44 L502.615 1010.7 L503.156 1012.92 L503.872 1015.1 L504.759 1017.21 L505.81 1019.24 L507.02 1021.19 L508.38 1023.03 L509.883 1024.75 L511.518 1026.36 L513.275 1027.82 L515.143 1029.15 L517.111 1030.32 L519.165 1031.33 L521.293 1032.17 L523.481 1032.85 L525.716 1033.34 L527.984 1033.66 L530.269 1033.8 L532.558 1033.75 L534.836 1033.53 L537.089 1033.12 L539.303 1032.53 L541.463 1031.77 L543.556 1030.85 L545.568 1029.75 L547.487 1028.51 L549.301 1027.11 L550.999 1025.57 L552.569 1023.91 L554.001 1022.12 L555.288 1020.23 L556.419 1018.24 L557.389 1016.16 L558.191 1014.02 L558.82 1011.82 L559.272 1009.57 L559.545 1007.3 L559.636 1005.01 L559.636 1005.01  Z" fill="#e5e5e5" fill-rule="evenodd" fill-opacity="1"/>
<polyline clip-path="url(#clip882)" style="stroke:#000000; stroke-linecap:round; stroke-linejoin:round; stroke-width:4; stroke-opacity:1; fill:none" points="559.636,1005.01 559.545,1002.72 559.272,1000.45 558.82,998.205 558.191,996.003 557.389,993.859 556.419,991.785 555.288,989.794 554.001,987.9 552.569,986.114 550.999,984.448 549.301,982.911 547.487,981.515 545.568,980.266 543.556,979.175 541.463,978.246 539.303,977.487 537.089,976.902 534.836,976.494 532.558,976.267 530.269,976.221 527.984,976.358 525.716,976.675 523.481,977.172 521.293,977.845 519.165,978.689 517.111,979.7 515.143,980.871 513.275,982.195 511.518,983.663 509.883,985.265 508.38,986.993 507.02,988.835 505.81,990.778 504.759,992.812 503.872,994.923 503.156,997.098 502.615,999.322 502.252,1001.58 502.07,1003.87 502.07,1006.15 502.252,1008.44 502.615,1010.7 503.156,1012.92 503.872,1015.1 504.759,1017.21 505.81,1019.24 507.02,1021.19 508.38,1023.03 509.883,1024.75 511.518,1026.36 513.275,1027.82 515.143,1029.15 517.111,1030.32 519.165,1031.33 521.293,1032.17 523.481,1032.85 525.716,1033.34 527.984,1033.66 530.269,1033.8 532.558,1033.75 534.836,1033.53 537.089,1033.12 539.303,1032.53 541.463,1031.77 543.556,1030.85 545.568,1029.75 547.487,1028.51 549.301,1027.11 550.999,1025.57 552.569,1023.91 554.001,1022.12 555.288,1020.23 556.419,1018.24 557.389,1016.16 558.191,1014.02 558.82,1011.82 559.272,1009.57 559.545,1007.3 559.636,1005.01 "/>
<path clip-path="url(#clip882)" d="M836.505 1005.01 L836.414 1002.72 L836.141 1000.45 L835.689 998.205 L835.06 996.003 L834.258 993.859 L833.288 991.785 L832.156 989.794 L830.87 987.9 L829.438 986.114 L827.868 984.448 L826.17 982.911 L824.356 981.515 L822.437 980.266 L820.424 979.175 L818.332 978.246 L816.172 977.487 L813.958 976.902 L811.705 976.494 L809.427 976.267 L807.138 976.221 L804.852 976.358 L802.585 976.675 L800.35 977.172 L798.162 977.845 L796.034 978.689 L793.979 979.7 L792.012 980.871 L790.144 982.195 L788.387 983.663 L786.752 985.265 L785.249 986.993 L783.889 988.835 L782.679 990.778 L781.627 992.812 L780.741 994.923 L780.024 997.098 L779.483 999.322 L779.121 1001.58 L778.939 1003.87 L778.939 1006.15 L779.121 1008.44 L779.483 1010.7 L780.024 1012.92 L780.741 1015.1 L781.627 1017.21 L782.679 1019.24 L783.889 1021.19 L785.249 1023.03 L786.752 1024.75 L788.387 1026.36 L790.144 1027.82 L792.012 1029.15 L793.979 1030.32 L796.034 1031.33 L798.162 1032.17 L800.35 1032.85 L802.585 1033.34 L804.852 1033.66 L807.138 1033.8 L809.427 1033.75 L811.705 1033.53 L813.958 1033.12 L816.172 1032.53 L818.332 1031.77 L820.424 1030.85 L822.437 1029.75 L824.356 1028.51 L826.17 1027.11 L827.868 1025.57 L829.438 1023.91 L830.87 1022.12 L832.156 1020.23 L833.288 1018.24 L834.258 1016.16 L835.06 1014.02 L835.689 1011.82 L836.141 1009.57 L836.414 1007.3 L836.505 1005.01 L836.505 1005.01  Z" fill="#e5e5e5" fill-rule="evenodd" fill-opacity="1"/>
<polyline clip-path="url(#clip882)" style="stroke:#000000; stroke-linecap:round; stroke-linejoin:round; stroke-width:4; stroke-opacity:1; fill:none" points="836.505,1005.01 836.414,1002.72 836.141,1000.45 835.689,998.205 835.06,996.003 834.258,993.859 833.288,991.785 832.156,989.794 830.87,987.9 829.438,986.114 827.868,984.448 826.17,982.911 824.356,981.515 822.437,980.266 820.424,979.175 818.332,978.246 816.172,977.487 813.958,976.902 811.705,976.494 809.427,976.267 807.138,976.221 804.852,976.358 802.585,976.675 800.35,977.172 798.162,977.845 796.034,978.689 793.979,979.7 792.012,980.871 790.144,982.195 788.387,983.663 786.752,985.265 785.249,986.993 783.889,988.835 782.679,990.778 781.627,992.812 780.741,994.923 780.024,997.098 779.483,999.322 779.121,1001.58 778.939,1003.87 778.939,1006.15 779.121,1008.44 779.483,1010.7 780.024,1012.92 780.741,1015.1 781.627,1017.21 782.679,1019.24 783.889,1021.19 785.249,1023.03 786.752,1024.75 788.387,1026.36 790.144,1027.82 792.012,1029.15 793.979,1030.32 796.034,1031.33 798.162,1032.17 800.35,1032.85 802.585,1033.34 804.852,1033.66 807.138,1033.8 809.427,1033.75 811.705,1033.53 813.958,1033.12 816.172,1032.53 818.332,1031.77 820.424,1030.85 822.437,1029.75 824.356,1028.51 826.17,1027.11 827.868,1025.57 829.438,1023.91 830.87,1022.12 832.156,1020.23 833.288,1018.24 834.258,1016.16 835.06,1014.02 835.689,1011.82 836.141,1009.57 836.414,1007.3 836.505,1005.01 "/>
<path clip-path="url(#clip882)" d="M1113.37 1005.01 L1113.28 1002.72 L1113.01 1000.45 L1112.56 998.205 L1111.93 996.003 L1111.13 993.859 L1110.16 991.785 L1109.03 989.794 L1107.74 987.9 L1106.31 986.114 L1104.74 984.448 L1103.04 982.911 L1101.22 981.515 L1099.31 980.266 L1097.29 979.175 L1095.2 978.246 L1093.04 977.487 L1090.83 976.902 L1088.57 976.494 L1086.3 976.267 L1084.01 976.221 L1081.72 976.358 L1079.45 976.675 L1077.22 977.172 L1075.03 977.845 L1072.9 978.689 L1070.85 979.7 L1068.88 980.871 L1067.01 982.195 L1065.26 983.663 L1063.62 985.265 L1062.12 986.993 L1060.76 988.835 L1059.55 990.778 L1058.5 992.812 L1057.61 994.923 L1056.89 997.098 L1056.35 999.322 L1055.99 1001.58 L1055.81 1003.87 L1055.81 1006.15 L1055.99 1008.44 L1056.35 1010.7 L1056.89 1012.92 L1057.61 1015.1 L1058.5 1017.21 L1059.55 1019.24 L1060.76 1021.19 L1062.12 1023.03 L1063.62 1024.75 L1065.26 1026.36 L1067.01 1027.82 L1068.88 1029.15 L1070.85 1030.32 L1072.9 1031.33 L1075.03 1032.17 L1077.22 1032.85 L1079.45 1033.34 L1081.72 1033.66 L1084.01 1033.8 L1086.3 1033.75 L1088.57 1033.53 L1090.83 1033.12 L1093.04 1032.53 L1095.2 1031.77 L1097.29 1030.85 L1099.31 1029.75 L1101.22 1028.51 L1103.04 1027.11 L1104.74 1025.57 L1106.31 1023.91 L1107.74 1022.12 L1109.03 1020.23 L1110.16 1018.24 L1111.13 1016.16 L1111.93 1014.02 L1112.56 1011.82 L1113.01 1009.57 L1113.28 1007.3 L1113.37 1005.01 L1113.37 1005.01  Z" fill="#e5e5e5" fill-rule="evenodd" fill-opacity="1"/>
<polyline clip-path="url(#clip882)" style="stroke:#000000; stroke-linecap:round; stroke-linejoin:round; stroke-width:4; stroke-opacity:1; fill:none" points="1113.37,1005.01 1113.28,1002.72 1113.01,1000.45 1112.56,998.205 1111.93,996.003 1111.13,993.859 1110.16,991.785 1109.03,989.794 1107.74,987.9 1106.31,986.114 1104.74,984.448 1103.04,982.911 1101.22,981.515 1099.31,980.266 1097.29,979.175 1095.2,978.246 1093.04,977.487 1090.83,976.902 1088.57,976.494 1086.3,976.267 1084.01,976.221 1081.72,976.358 1079.45,976.675 1077.22,977.172 1075.03,977.845 1072.9,978.689 1070.85,979.7 1068.88,980.871 1067.01,982.195 1065.26,983.663 1063.62,985.265 1062.12,986.993 1060.76,988.835 1059.55,990.778 1058.5,992.812 1057.61,994.923 1056.89,997.098 1056.35,999.322 1055.99,1001.58 1055.81,1003.87 1055.81,1006.15 1055.99,1008.44 1056.35,1010.7 1056.89,1012.92 1057.61,1015.1 1058.5,1017.21 1059.55,1019.24 1060.76,1021.19 1062.12,1023.03 1063.62,1024.75 1065.26,1026.36 1067.01,1027.82 1068.88,1029.15 1070.85,1030.32 1072.9,1031.33 1075.03,1032.17 1077.22,1032.85 1079.45,1033.34 1081.72,1033.66 1084.01,1033.8 1086.3,1033.75 1088.57,1033.53 1090.83,1033.12 1093.04,1032.53 1095.2,1031.77 1097.29,1030.85 1099.31,1029.75 1101.22,1028.51 1103.04,1027.11 1104.74,1025.57 1106.31,1023.91 1107.74,1022.12 1109.03,1020.23 1110.16,1018.24 1111.13,1016.16 1111.93,1014.02 1112.56,1011.82 1113.01,1009.57 1113.28,1007.3 1113.37,1005.01 "/>
<path clip-path="url(#clip882)" d="M741.051 1288.03 L740.387 1271.33 L738.397 1254.73 L735.096 1238.35 L730.503 1222.28 L724.648 1206.62 L717.567 1191.48 L709.306 1176.95 L699.917 1163.12 L689.458 1150.09 L677.997 1137.92 L665.606 1126.7 L652.362 1116.51 L638.35 1107.39 L623.659 1099.42 L608.38 1092.65 L592.612 1087.1 L576.453 1082.83 L560.005 1079.85 L543.373 1078.2 L526.662 1077.86 L509.978 1078.86 L493.425 1081.18 L477.109 1084.81 L461.132 1089.72 L445.596 1095.88 L430.6 1103.26 L416.236 1111.81 L402.598 1121.47 L389.77 1132.19 L377.835 1143.89 L366.866 1156.5 L356.934 1169.95 L348.102 1184.14 L340.425 1198.98 L333.952 1214.39 L328.724 1230.27 L324.774 1246.51 L322.126 1263.01 L320.798 1279.67 L320.798 1296.39 L322.126 1313.05 L324.774 1329.55 L328.724 1345.79 L333.952 1361.67 L340.425 1377.08 L348.102 1391.93 L356.934 1406.12 L366.866 1419.56 L377.835 1432.17 L389.77 1443.87 L402.598 1454.59 L416.236 1464.25 L430.6 1472.8 L445.596 1480.18 L461.132 1486.35 L477.109 1491.26 L493.425 1494.88 L509.978 1497.2 L526.662 1498.2 L543.373 1497.87 L560.005 1496.21 L576.453 1493.23 L592.612 1488.96 L608.38 1483.42 L623.659 1476.64 L638.35 1468.67 L652.362 1459.56 L665.606 1449.36 L677.997 1438.14 L689.458 1425.98 L699.917 1412.94 L709.306 1399.11 L717.567 1384.58 L724.648 1369.44 L730.503 1353.78 L735.096 1337.71 L738.397 1321.33 L740.387 1304.73 L741.051 1288.03 L741.051 1288.03  Z" fill="#b2b2b2" fill-rule="evenodd" fill-opacity="1"/>
<polyline clip-path="url(#clip882)" style="stroke:#000000; stroke-linecap:round; stroke-linejoin:round; stroke-width:4; stroke-opacity:1; fill:none" points="741.051,1288.03 740.387,1271.33 738.397,1254.73 735.096,1238.35 730.503,1222.28 724.648,1206.62 717.567,1191.48 709.306,1176.95 699.917,1163.12 689.458,1150.09 677.997,1137.92 665.606,1126.7 652.362,1116.51 638.35,1107.39 623.659,1099.42 608.38,1092.65 592.612,1087.1 576.453,1082.83 560.005,1079.85 543.373,1078.2 526.662,1077.86 509.978,1078.86 493.425,1081.18 477.109,1084.81 461.132,1089.72 445.596,1095.88 430.6,1103.26 416.236,1111.81 402.598,1121.47 389.77,1132.19 377.835,1143.89 366.866,1156.5 356.934,1169.95 348.102,1184.14 340.425,1198.98 333.952,1214.39 328.724,1230.27 324.774,1246.51 322.126,1263.01 320.798,1279.67 320.798,1296.39 322.126,1313.05 324.774,1329.55 328.724,1345.79 333.952,1361.67 340.425,1377.08 348.102,1391.93 356.934,1406.12 366.866,1419.56 377.835,1432.17 389.77,1443.87 402.598,1454.59 416.236,1464.25 430.6,1472.8 445.596,1480.18 461.132,1486.35 477.109,1491.26 493.425,1494.88 509.978,1497.2 526.662,1498.2 543.373,1497.87 560.005,1496.21 576.453,1493.23 592.612,1488.96 608.38,1483.42 623.659,1476.64 638.35,1468.67 652.362,1459.56 665.606,1449.36 677.997,1438.14 689.458,1425.98 699.917,1412.94 709.306,1399.11 717.567,1384.58 724.648,1369.44 730.503,1353.78 735.096,1337.71 738.397,1321.33 740.387,1304.73 741.051,1288.03 "/>
<path clip-path="url(#clip882)" d="M836.505 1288.03 L836.414 1285.74 L836.141 1283.47 L835.689 1281.23 L835.06 1279.02 L834.258 1276.88 L833.288 1274.81 L832.156 1272.82 L830.87 1270.92 L829.438 1269.14 L827.868 1267.47 L826.17 1265.93 L824.356 1264.54 L822.437 1263.29 L820.424 1262.2 L818.332 1261.27 L816.172 1260.51 L813.958 1259.92 L811.705 1259.52 L809.427 1259.29 L807.138 1259.24 L804.852 1259.38 L802.585 1259.7 L800.35 1260.19 L798.162 1260.87 L796.034 1261.71 L793.979 1262.72 L792.012 1263.89 L790.144 1265.22 L788.387 1266.68 L786.752 1268.29 L785.249 1270.01 L783.889 1271.86 L782.679 1273.8 L781.627 1275.83 L780.741 1277.94 L780.024 1280.12 L779.483 1282.34 L779.121 1284.6 L778.939 1286.89 L778.939 1289.18 L779.121 1291.46 L779.483 1293.72 L780.024 1295.94 L780.741 1298.12 L781.627 1300.23 L782.679 1302.26 L783.889 1304.21 L785.249 1306.05 L786.752 1307.78 L788.387 1309.38 L790.144 1310.85 L792.012 1312.17 L793.979 1313.34 L796.034 1314.35 L798.162 1315.2 L800.35 1315.87 L802.585 1316.37 L804.852 1316.68 L807.138 1316.82 L809.427 1316.77 L811.705 1316.55 L813.958 1316.14 L816.172 1315.55 L818.332 1314.8 L820.424 1313.87 L822.437 1312.77 L824.356 1311.53 L826.17 1310.13 L827.868 1308.59 L829.438 1306.93 L830.87 1305.14 L832.156 1303.25 L833.288 1301.26 L834.258 1299.18 L835.06 1297.04 L835.689 1294.84 L836.141 1292.59 L836.414 1290.32 L836.505 1288.03 L836.505 1288.03  Z" fill="#e5e5e5" fill-rule="evenodd" fill-opacity="1"/>
<polyline clip-path="url(#clip882)" style="stroke:#000000; stroke-linecap:round; stroke-linejoin:round; stroke-width:4; stroke-opacity:1; fill:none" points="836.505,1288.03 836.414,1285.74 836.141,1283.47 835.689,1281.23 835.06,1279.02 834.258,1276.88 833.288,1274.81 832.156,1272.82 830.87,1270.92 829.438,1269.14 827.868,1267.47 826.17,1265.93 824.356,1264.54 822.437,1263.29 820.424,1262.2 818.332,1261.27 816.172,1260.51 813.958,1259.92 811.705,1259.52 809.427,1259.29 807.138,1259.24 804.852,1259.38 802.585,1259.7 800.35,1260.19 798.162,1260.87 796.034,1261.71 793.979,1262.72 792.012,1263.89 790.144,1265.22 788.387,1266.68 786.752,1268.29 785.249,1270.01 783.889,1271.86 782.679,1273.8 781.627,1275.83 780.741,1277.94 780.024,1280.12 779.483,1282.34 779.121,1284.6 778.939,1286.89 778.939,1289.18 779.121,1291.46 779.483,1293.72 780.024,1295.94 780.741,1298.12 781.627,1300.23 782.679,1302.26 783.889,1304.21 785.249,1306.05 786.752,1307.78 788.387,1309.38 790.144,1310.85 792.012,1312.17 793.979,1313.34 796.034,1314.35 798.162,1315.2 800.35,1315.87 802.585,1316.37 804.852,1316.68 807.138,1316.82 809.427,1316.77 811.705,1316.55 813.958,1316.14 816.172,1315.55 818.332,1314.8 820.424,1313.87 822.437,1312.77 824.356,1311.53 826.17,1310.13 827.868,1308.59 829.438,1306.93 830.87,1305.14 832.156,1303.25 833.288,1301.26 834.258,1299.18 835.06,1297.04 835.689,1294.84 836.141,1292.59 836.414,1290.32 836.505,1288.03 "/>
<path clip-path="url(#clip882)" d="M1251.81 1288.03 L1251.72 1285.74 L1251.44 1283.47 L1250.99 1281.23 L1250.36 1279.02 L1249.56 1276.88 L1248.59 1274.81 L1247.46 1272.82 L1246.17 1270.92 L1244.74 1269.14 L1243.17 1267.47 L1241.47 1265.93 L1239.66 1264.54 L1237.74 1263.29 L1235.73 1262.2 L1233.63 1261.27 L1231.47 1260.51 L1229.26 1259.92 L1227.01 1259.52 L1224.73 1259.29 L1222.44 1259.24 L1220.16 1259.38 L1217.89 1259.7 L1215.65 1260.19 L1213.46 1260.87 L1211.34 1261.71 L1209.28 1262.72 L1207.32 1263.89 L1205.45 1265.22 L1203.69 1266.68 L1202.05 1268.29 L1200.55 1270.01 L1199.19 1271.86 L1197.98 1273.8 L1196.93 1275.83 L1196.04 1277.94 L1195.33 1280.12 L1194.79 1282.34 L1194.42 1284.6 L1194.24 1286.89 L1194.24 1289.18 L1194.42 1291.46 L1194.79 1293.72 L1195.33 1295.94 L1196.04 1298.12 L1196.93 1300.23 L1197.98 1302.26 L1199.19 1304.21 L1200.55 1306.05 L1202.05 1307.78 L1203.69 1309.38 L1205.45 1310.85 L1207.32 1312.17 L1209.28 1313.34 L1211.34 1314.35 L1213.46 1315.2 L1215.65 1315.87 L1217.89 1316.37 L1220.16 1316.68 L1222.44 1316.82 L1224.73 1316.77 L1227.01 1316.55 L1229.26 1316.14 L1231.47 1315.55 L1233.63 1314.8 L1235.73 1313.87 L1237.74 1312.77 L1239.66 1311.53 L1241.47 1310.13 L1243.17 1308.59 L1244.74 1306.93 L1246.17 1305.14 L1247.46 1303.25 L1248.59 1301.26 L1249.56 1299.18 L1250.36 1297.04 L1250.99 1294.84 L1251.44 1292.59 L1251.72 1290.32 L1251.81 1288.03 L1251.81 1288.03  Z" fill="#e5e5e5" fill-rule="evenodd" fill-opacity="1"/>
<polyline clip-path="url(#clip882)" style="stroke:#000000; stroke-linecap:round; stroke-linejoin:round; stroke-width:4; stroke-opacity:1; fill:none" points="1251.81,1288.03 1251.72,1285.74 1251.44,1283.47 1250.99,1281.23 1250.36,1279.02 1249.56,1276.88 1248.59,1274.81 1247.46,1272.82 1246.17,1270.92 1244.74,1269.14 1243.17,1267.47 1241.47,1265.93 1239.66,1264.54 1237.74,1263.29 1235.73,1262.2 1233.63,1261.27 1231.47,1260.51 1229.26,1259.92 1227.01,1259.52 1224.73,1259.29 1222.44,1259.24 1220.16,1259.38 1217.89,1259.7 1215.65,1260.19 1213.46,1260.87 1211.34,1261.71 1209.28,1262.72 1207.32,1263.89 1205.45,1265.22 1203.69,1266.68 1202.05,1268.29 1200.55,1270.01 1199.19,1271.86 1197.98,1273.8 1196.93,1275.83 1196.04,1277.94 1195.33,1280.12 1194.79,1282.34 1194.42,1284.6 1194.24,1286.89 1194.24,1289.18 1194.42,1291.46 1194.79,1293.72 1195.33,1295.94 1196.04,1298.12 1196.93,1300.23 1197.98,1302.26 1199.19,1304.21 1200.55,1306.05 1202.05,1307.78 1203.69,1309.38 1205.45,1310.85 1207.32,1312.17 1209.28,1313.34 1211.34,1314.35 1213.46,1315.2 1215.65,1315.87 1217.89,1316.37 1220.16,1316.68 1222.44,1316.82 1224.73,1316.77 1227.01,1316.55 1229.26,1316.14 1231.47,1315.55 1233.63,1314.8 1235.73,1313.87 1237.74,1312.77 1239.66,1311.53 1241.47,1310.13 1243.17,1308.59 1244.74,1306.93 1246.17,1305.14 1247.46,1303.25 1248.59,1301.26 1249.56,1299.18 1250.36,1297.04 1250.99,1294.84 1251.44,1292.59 1251.72,1290.32 1251.81,1288.03 "/>
<path clip-path="url(#clip882)" d="M744.215 1571.05 L744.124 1568.77 L743.852 1566.49 L743.399 1564.25 L742.77 1562.05 L741.968 1559.9 L740.998 1557.83 L739.867 1555.84 L738.581 1553.94 L737.148 1552.16 L735.578 1550.49 L733.881 1548.95 L732.067 1547.56 L730.147 1546.31 L728.135 1545.22 L726.042 1544.29 L723.882 1543.53 L721.669 1542.94 L719.416 1542.54 L717.137 1542.31 L714.848 1542.26 L712.563 1542.4 L710.295 1542.72 L708.06 1543.22 L705.872 1543.89 L703.744 1544.73 L701.69 1545.74 L699.722 1546.91 L697.854 1548.24 L696.097 1549.71 L694.462 1551.31 L692.96 1553.04 L691.599 1554.88 L690.389 1556.82 L689.338 1558.85 L688.451 1560.97 L687.735 1563.14 L687.194 1565.37 L686.831 1567.63 L686.649 1569.91 L686.649 1572.2 L686.831 1574.48 L687.194 1576.74 L687.735 1578.97 L688.451 1581.14 L689.338 1583.25 L690.389 1585.28 L691.599 1587.23 L692.96 1589.07 L694.462 1590.8 L696.097 1592.4 L697.854 1593.87 L699.722 1595.19 L701.69 1596.36 L703.744 1597.37 L705.872 1598.22 L708.06 1598.89 L710.295 1599.39 L712.563 1599.7 L714.848 1599.84 L717.137 1599.8 L719.416 1599.57 L721.669 1599.16 L723.882 1598.58 L726.042 1597.82 L728.135 1596.89 L730.147 1595.8 L732.067 1594.55 L733.881 1593.15 L735.578 1591.61 L737.148 1589.95 L738.581 1588.16 L739.867 1586.27 L740.998 1584.28 L741.968 1582.2 L742.77 1580.06 L743.399 1577.86 L743.852 1575.61 L744.124 1573.34 L744.215 1571.05 L744.215 1571.05  Z" fill="#e5e5e5" fill-rule="evenodd" fill-opacity="1"/>
<polyline clip-path="url(#clip882)" style="stroke:#000000; stroke-linecap:round; stroke-linejoin:round; stroke-width:4; stroke-opacity:1; fill:none" points="744.215,1571.05 744.124,1568.77 743.852,1566.49 743.399,1564.25 742.77,1562.05 741.968,1559.9 740.998,1557.83 739.867,1555.84 738.581,1553.94 737.148,1552.16 735.578,1550.49 733.881,1548.95 732.067,1547.56 730.147,1546.31 728.135,1545.22 726.042,1544.29 723.882,1543.53 721.669,1542.94 719.416,1542.54 717.137,1542.31 714.848,1542.26 712.563,1542.4 710.295,1542.72 708.06,1543.22 705.872,1543.89 703.744,1544.73 701.69,1545.74 699.722,1546.91 697.854,1548.24 696.097,1549.71 694.462,1551.31 692.96,1553.04 691.599,1554.88 690.389,1556.82 689.338,1558.85 688.451,1560.97 687.735,1563.14 687.194,1565.37 686.831,1567.63 686.649,1569.91 686.649,1572.2 686.831,1574.48 687.194,1576.74 687.735,1578.97 688.451,1581.14 689.338,1583.25 690.389,1585.28 691.599,1587.23 692.96,1589.07 694.462,1590.8 696.097,1592.4 697.854,1593.87 699.722,1595.19 701.69,1596.36 703.744,1597.37 705.872,1598.22 708.06,1598.89 710.295,1599.39 712.563,1599.7 714.848,1599.84 717.137,1599.8 719.416,1599.57 721.669,1599.16 723.882,1598.58 726.042,1597.82 728.135,1596.89 730.147,1595.8 732.067,1594.55 733.881,1593.15 735.578,1591.61 737.148,1589.95 738.581,1588.16 739.867,1586.27 740.998,1584.28 741.968,1582.2 742.77,1580.06 743.399,1577.86 743.852,1575.61 744.124,1573.34 744.215,1571.05 "/>
<path clip-path="url(#clip882)" d="M1228.74 1571.05 L1228.64 1568.77 L1228.37 1566.49 L1227.92 1564.25 L1227.29 1562.05 L1226.49 1559.9 L1225.52 1557.83 L1224.39 1555.84 L1223.1 1553.94 L1221.67 1552.16 L1220.1 1550.49 L1218.4 1548.95 L1216.59 1547.56 L1214.67 1546.31 L1212.66 1545.22 L1210.56 1544.29 L1208.4 1543.53 L1206.19 1542.94 L1203.94 1542.54 L1201.66 1542.31 L1199.37 1542.26 L1197.08 1542.4 L1194.82 1542.72 L1192.58 1543.22 L1190.39 1543.89 L1188.26 1544.73 L1186.21 1545.74 L1184.24 1546.91 L1182.37 1548.24 L1180.62 1549.71 L1178.98 1551.31 L1177.48 1553.04 L1176.12 1554.88 L1174.91 1556.82 L1173.86 1558.85 L1172.97 1560.97 L1172.26 1563.14 L1171.71 1565.37 L1171.35 1567.63 L1171.17 1569.91 L1171.17 1572.2 L1171.35 1574.48 L1171.71 1576.74 L1172.26 1578.97 L1172.97 1581.14 L1173.86 1583.25 L1174.91 1585.28 L1176.12 1587.23 L1177.48 1589.07 L1178.98 1590.8 L1180.62 1592.4 L1182.37 1593.87 L1184.24 1595.19 L1186.21 1596.36 L1188.26 1597.37 L1190.39 1598.22 L1192.58 1598.89 L1194.82 1599.39 L1197.08 1599.7 L1199.37 1599.84 L1201.66 1599.8 L1203.94 1599.57 L1206.19 1599.16 L1208.4 1598.58 L1210.56 1597.82 L1212.66 1596.89 L1214.67 1595.8 L1216.59 1594.55 L1218.4 1593.15 L1220.1 1591.61 L1221.67 1589.95 L1223.1 1588.16 L1224.39 1586.27 L1225.52 1584.28 L1226.49 1582.2 L1227.29 1580.06 L1227.92 1577.86 L1228.37 1575.61 L1228.64 1573.34 L1228.74 1571.05 L1228.74 1571.05  Z" fill="#e5e5e5" fill-rule="evenodd" fill-opacity="1"/>
<polyline clip-path="url(#clip882)" style="stroke:#000000; stroke-linecap:round; stroke-linejoin:round; stroke-width:4; stroke-opacity:1; fill:none" points="1228.74,1571.05 1228.64,1568.77 1228.37,1566.49 1227.92,1564.25 1227.29,1562.05 1226.49,1559.9 1225.52,1557.83 1224.39,1555.84 1223.1,1553.94 1221.67,1552.16 1220.1,1550.49 1218.4,1548.95 1216.59,1547.56 1214.67,1546.31 1212.66,1545.22 1210.56,1544.29 1208.4,1543.53 1206.19,1542.94 1203.94,1542.54 1201.66,1542.31 1199.37,1542.26 1197.08,1542.4 1194.82,1542.72 1192.58,1543.22 1190.39,1543.89 1188.26,1544.73 1186.21,1545.74 1184.24,1546.91 1182.37,1548.24 1180.62,1549.71 1178.98,1551.31 1177.48,1553.04 1176.12,1554.88 1174.91,1556.82 1173.86,1558.85 1172.97,1560.97 1172.26,1563.14 1171.71,1565.37 1171.35,1567.63 1171.17,1569.91 1171.17,1572.2 1171.35,1574.48 1171.71,1576.74 1172.26,1578.97 1172.97,1581.14 1173.86,1583.25 1174.91,1585.28 1176.12,1587.23 1177.48,1589.07 1178.98,1590.8 1180.62,1592.4 1182.37,1593.87 1184.24,1595.19 1186.21,1596.36 1188.26,1597.37 1190.39,1598.22 1192.58,1598.89 1194.82,1599.39 1197.08,1599.7 1199.37,1599.84 1201.66,1599.8 1203.94,1599.57 1206.19,1599.16 1208.4,1598.58 1210.56,1597.82 1212.66,1596.89 1214.67,1595.8 1216.59,1594.55 1218.4,1593.15 1220.1,1591.61 1221.67,1589.95 1223.1,1588.16 1224.39,1586.27 1225.52,1584.28 1226.49,1582.2 1227.29,1580.06 1227.92,1577.86 1228.37,1575.61 1228.64,1573.34 1228.74,1571.05 "/>
<path clip-path="url(#clip882)" d="M882.415 1854.07 L881.887 1840.81 L880.307 1827.62 L877.684 1814.61 L874.035 1801.84 L869.384 1789.4 L863.759 1777.37 L857.196 1765.83 L849.737 1754.85 L841.429 1744.49 L832.324 1734.82 L822.48 1725.91 L811.959 1717.81 L800.828 1710.57 L789.156 1704.24 L777.019 1698.86 L764.492 1694.45 L751.655 1691.06 L738.589 1688.69 L725.376 1687.38 L712.101 1687.11 L698.846 1687.9 L685.696 1689.75 L672.734 1692.63 L660.042 1696.53 L647.7 1701.43 L635.787 1707.29 L624.376 1714.08 L613.542 1721.76 L603.351 1730.27 L593.869 1739.57 L585.156 1749.58 L577.266 1760.26 L570.249 1771.54 L564.151 1783.33 L559.008 1795.57 L554.855 1808.19 L551.717 1821.09 L549.614 1834.2 L548.559 1847.44 L548.559 1860.71 L549.614 1873.95 L551.717 1887.06 L554.855 1899.96 L559.008 1912.57 L564.151 1924.82 L570.249 1936.61 L577.266 1947.88 L585.156 1958.56 L593.869 1968.58 L603.351 1977.88 L613.542 1986.39 L624.376 1994.07 L635.787 2000.86 L647.7 2006.72 L660.042 2011.62 L672.734 2015.52 L685.696 2018.4 L698.846 2020.24 L712.101 2021.04 L725.376 2020.77 L738.589 2019.45 L751.655 2017.09 L764.492 2013.7 L777.019 2009.29 L789.156 2003.91 L800.828 1997.58 L811.959 1990.34 L822.48 1982.24 L832.324 1973.33 L841.429 1963.66 L849.737 1953.3 L857.196 1942.32 L863.759 1930.77 L869.384 1918.75 L874.035 1906.31 L877.684 1893.54 L880.307 1880.53 L881.887 1867.34 L882.415 1854.07 L882.415 1854.07  Z" fill="#7f7f7f" fill-rule="evenodd" fill-opacity="1"/>
<polyline clip-path="url(#clip882)" style="stroke:#000000; stroke-linecap:round; stroke-linejoin:round; stroke-width:4; stroke-opacity:1; fill:none" points="882.415,1854.07 881.887,1840.81 880.307,1827.62 877.684,1814.61 874.035,1801.84 869.384,1789.4 863.759,1777.37 857.196,1765.83 849.737,1754.85 841.429,1744.49 832.324,1734.82 822.48,1725.91 811.959,1717.81 800.828,1710.57 789.156,1704.24 777.019,1698.86 764.492,1694.45 751.655,1691.06 738.589,1688.69 725.376,1687.38 712.101,1687.11 698.846,1687.9 685.696,1689.75 672.734,1692.63 660.042,1696.53 647.7,1701.43 635.787,1707.29 624.376,1714.08 613.542,1721.76 603.351,1730.27 593.869,1739.57 585.156,1749.58 577.266,1760.26 570.249,1771.54 564.151,1783.33 559.008,1795.57 554.855,1808.19 551.717,1821.09 549.614,1834.2 548.559,1847.44 548.559,1860.71 549.614,1873.95 551.717,1887.06 554.855,1899.96 559.008,1912.57 564.151,1924.82 570.249,1936.61 577.266,1947.88 585.156,1958.56 593.869,1968.58 603.351,1977.88 613.542,1986.39 624.376,1994.07 635.787,2000.86 647.7,2006.72 660.042,2011.62 672.734,2015.52 685.696,2018.4 698.846,2020.24 712.101,2021.04 725.376,2020.77 738.589,2019.45 751.655,2017.09 764.492,2013.7 777.019,2009.29 789.156,2003.91 800.828,1997.58 811.959,1990.34 822.48,1982.24 832.324,1973.33 841.429,1963.66 849.737,1953.3 857.196,1942.32 863.759,1930.77 869.384,1918.75 874.035,1906.31 877.684,1893.54 880.307,1880.53 881.887,1867.34 882.415,1854.07 "/>
<path clip-path="url(#clip882)" d="M1228.74 1854.07 L1228.64 1851.79 L1228.37 1849.51 L1227.92 1847.27 L1227.29 1845.07 L1226.49 1842.92 L1225.52 1840.85 L1224.39 1838.86 L1223.1 1836.96 L1221.67 1835.18 L1220.1 1833.51 L1218.4 1831.98 L1216.59 1830.58 L1214.67 1829.33 L1212.66 1828.24 L1210.56 1827.31 L1208.4 1826.55 L1206.19 1825.97 L1203.94 1825.56 L1201.66 1825.33 L1199.37 1825.29 L1197.08 1825.42 L1194.82 1825.74 L1192.58 1826.24 L1190.39 1826.91 L1188.26 1827.75 L1186.21 1828.76 L1184.24 1829.94 L1182.37 1831.26 L1180.62 1832.73 L1178.98 1834.33 L1177.48 1836.06 L1176.12 1837.9 L1174.91 1839.84 L1173.86 1841.88 L1172.97 1843.99 L1172.26 1846.16 L1171.71 1848.39 L1171.35 1850.65 L1171.17 1852.93 L1171.17 1855.22 L1171.35 1857.5 L1171.71 1859.76 L1172.26 1861.99 L1172.97 1864.16 L1173.86 1866.27 L1174.91 1868.31 L1176.12 1870.25 L1177.48 1872.09 L1178.98 1873.82 L1180.62 1875.42 L1182.37 1876.89 L1184.24 1878.21 L1186.21 1879.38 L1188.26 1880.39 L1190.39 1881.24 L1192.58 1881.91 L1194.82 1882.41 L1197.08 1882.73 L1199.37 1882.86 L1201.66 1882.82 L1203.94 1882.59 L1206.19 1882.18 L1208.4 1881.6 L1210.56 1880.84 L1212.66 1879.91 L1214.67 1878.82 L1216.59 1877.57 L1218.4 1876.17 L1220.1 1874.64 L1221.67 1872.97 L1223.1 1871.18 L1224.39 1869.29 L1225.52 1867.3 L1226.49 1865.23 L1227.29 1863.08 L1227.92 1860.88 L1228.37 1858.64 L1228.64 1856.36 L1228.74 1854.07 L1228.74 1854.07  Z" fill="#e5e5e5" fill-rule="evenodd" fill-opacity="1"/>
<polyline clip-path="url(#clip882)" style="stroke:#000000; stroke-linecap:round; stroke-linejoin:round; stroke-width:4; stroke-opacity:1; fill:none" points="1228.74,1854.07 1228.64,1851.79 1228.37,1849.51 1227.92,1847.27 1227.29,1845.07 1226.49,1842.92 1225.52,1840.85 1224.39,1838.86 1223.1,1836.96 1221.67,1835.18 1220.1,1833.51 1218.4,1831.98 1216.59,1830.58 1214.67,1829.33 1212.66,1828.24 1210.56,1827.31 1208.4,1826.55 1206.19,1825.97 1203.94,1825.56 1201.66,1825.33 1199.37,1825.29 1197.08,1825.42 1194.82,1825.74 1192.58,1826.24 1190.39,1826.91 1188.26,1827.75 1186.21,1828.76 1184.24,1829.94 1182.37,1831.26 1180.62,1832.73 1178.98,1834.33 1177.48,1836.06 1176.12,1837.9 1174.91,1839.84 1173.86,1841.88 1172.97,1843.99 1172.26,1846.16 1171.71,1848.39 1171.35,1850.65 1171.17,1852.93 1171.17,1855.22 1171.35,1857.5 1171.71,1859.76 1172.26,1861.99 1172.97,1864.16 1173.86,1866.27 1174.91,1868.31 1176.12,1870.25 1177.48,1872.09 1178.98,1873.82 1180.62,1875.42 1182.37,1876.89 1184.24,1878.21 1186.21,1879.38 1188.26,1880.39 1190.39,1881.24 1192.58,1881.91 1194.82,1882.41 1197.08,1882.73 1199.37,1882.86 1201.66,1882.82 1203.94,1882.59 1206.19,1882.18 1208.4,1881.6 1210.56,1880.84 1212.66,1879.91 1214.67,1878.82 1216.59,1877.57 1218.4,1876.17 1220.1,1874.64 1221.67,1872.97 1223.1,1871.18 1224.39,1869.29 1225.52,1867.3 1226.49,1865.23 1227.29,1863.08 1227.92,1860.88 1228.37,1858.64 1228.64,1856.36 1228.74,1854.07 "/>
<path clip-path="url(#clip882)" d="M1344.1 2137.1 L1344.01 2134.81 L1343.73 2132.53 L1343.28 2130.29 L1342.65 2128.09 L1341.85 2125.94 L1340.88 2123.87 L1339.75 2121.88 L1338.46 2119.99 L1337.03 2118.2 L1335.46 2116.53 L1333.76 2115 L1331.95 2113.6 L1330.03 2112.35 L1328.02 2111.26 L1325.92 2110.33 L1323.76 2109.57 L1321.55 2108.99 L1319.3 2108.58 L1317.02 2108.35 L1314.73 2108.31 L1312.45 2108.44 L1310.18 2108.76 L1307.94 2109.26 L1305.75 2109.93 L1303.63 2110.78 L1301.57 2111.79 L1299.6 2112.96 L1297.74 2114.28 L1295.98 2115.75 L1294.34 2117.35 L1292.84 2119.08 L1291.48 2120.92 L1290.27 2122.86 L1289.22 2124.9 L1288.33 2127.01 L1287.62 2129.18 L1287.08 2131.41 L1286.71 2133.67 L1286.53 2135.95 L1286.53 2138.24 L1286.71 2140.52 L1287.08 2142.78 L1287.62 2145.01 L1288.33 2147.18 L1289.22 2149.29 L1290.27 2151.33 L1291.48 2153.27 L1292.84 2155.11 L1294.34 2156.84 L1295.98 2158.44 L1297.74 2159.91 L1299.6 2161.23 L1301.57 2162.41 L1303.63 2163.42 L1305.75 2164.26 L1307.94 2164.93 L1310.18 2165.43 L1312.45 2165.75 L1314.73 2165.88 L1317.02 2165.84 L1319.3 2165.61 L1321.55 2165.2 L1323.76 2164.62 L1325.92 2163.86 L1328.02 2162.93 L1330.03 2161.84 L1331.95 2160.59 L1333.76 2159.19 L1335.46 2157.66 L1337.03 2155.99 L1338.46 2154.21 L1339.75 2152.31 L1340.88 2150.32 L1341.85 2148.25 L1342.65 2146.1 L1343.28 2143.9 L1343.73 2141.66 L1344.01 2139.38 L1344.1 2137.1 L1344.1 2137.1  Z" fill="#e5e5e5" fill-rule="evenodd" fill-opacity="1"/>
<polyline clip-path="url(#clip882)" style="stroke:#000000; stroke-linecap:round; stroke-linejoin:round; stroke-width:4; stroke-opacity:1; fill:none" points="1344.1,2137.1 1344.01,2134.81 1343.73,2132.53 1343.28,2130.29 1342.65,2128.09 1341.85,2125.94 1340.88,2123.87 1339.75,2121.88 1338.46,2119.99 1337.03,2118.2 1335.46,2116.53 1333.76,2115 1331.95,2113.6 1330.03,2112.35 1328.02,2111.26 1325.92,2110.33 1323.76,2109.57 1321.55,2108.99 1319.3,2108.58 1317.02,2108.35 1314.73,2108.31 1312.45,2108.44 1310.18,2108.76 1307.94,2109.26 1305.75,2109.93 1303.63,2110.78 1301.57,2111.79 1299.6,2112.96 1297.74,2114.28 1295.98,2115.75 1294.34,2117.35 1292.84,2119.08 1291.48,2120.92 1290.27,2122.86 1289.22,2124.9 1288.33,2127.01 1287.62,2129.18 1287.08,2131.41 1286.71,2133.67 1286.53,2135.95 1286.53,2138.24 1286.71,2140.52 1287.08,2142.78 1287.62,2145.01 1288.33,2147.18 1289.22,2149.29 1290.27,2151.33 1291.48,2153.27 1292.84,2155.11 1294.34,2156.84 1295.98,2158.44 1297.74,2159.91 1299.6,2161.23 1301.57,2162.41 1303.63,2163.42 1305.75,2164.26 1307.94,2164.93 1310.18,2165.43 1312.45,2165.75 1314.73,2165.88 1317.02,2165.84 1319.3,2165.61 1321.55,2165.2 1323.76,2164.62 1325.92,2163.86 1328.02,2162.93 1330.03,2161.84 1331.95,2160.59 1333.76,2159.19 1335.46,2157.66 1337.03,2155.99 1338.46,2154.21 1339.75,2152.31 1340.88,2150.32 1341.85,2148.25 1342.65,2146.1 1343.28,2143.9 1343.73,2141.66 1344.01,2139.38 1344.1,2137.1 "/>
<path clip-path="url(#clip882)" d="M1482.3 2420.12 L1481.77 2406.85 L1480.19 2393.67 L1477.57 2380.65 L1473.92 2367.88 L1469.27 2355.45 L1463.64 2343.42 L1457.08 2331.87 L1449.62 2320.89 L1441.31 2310.53 L1432.21 2300.87 L1422.36 2291.96 L1411.84 2283.85 L1400.71 2276.62 L1389.04 2270.28 L1376.9 2264.9 L1364.37 2260.5 L1351.54 2257.1 L1338.47 2254.74 L1325.26 2253.42 L1311.98 2253.16 L1298.73 2253.95 L1285.58 2255.79 L1272.62 2258.67 L1259.92 2262.57 L1247.58 2267.47 L1235.67 2273.33 L1224.26 2280.12 L1213.42 2287.8 L1203.23 2296.31 L1193.75 2305.61 L1185.04 2315.63 L1177.15 2326.31 L1170.13 2337.58 L1164.03 2349.38 L1158.89 2361.62 L1154.74 2374.23 L1151.6 2387.13 L1149.5 2400.24 L1148.44 2413.48 L1148.44 2426.76 L1149.5 2439.99 L1151.6 2453.1 L1154.74 2466.01 L1158.89 2478.62 L1164.03 2490.86 L1170.13 2502.65 L1177.15 2513.93 L1185.04 2524.61 L1193.75 2534.63 L1203.23 2543.92 L1213.42 2552.43 L1224.26 2560.11 L1235.67 2566.9 L1247.58 2572.76 L1259.92 2577.66 L1272.62 2581.56 L1285.58 2584.44 L1298.73 2586.29 L1311.98 2587.08 L1325.26 2586.81 L1338.47 2585.5 L1351.54 2583.13 L1364.37 2579.74 L1376.9 2575.34 L1389.04 2569.95 L1400.71 2563.62 L1411.84 2556.38 L1422.36 2548.28 L1432.21 2539.37 L1441.31 2529.7 L1449.62 2519.35 L1457.08 2508.36 L1463.64 2496.82 L1469.27 2484.79 L1473.92 2472.35 L1477.57 2459.59 L1480.19 2446.57 L1481.77 2433.38 L1482.3 2420.12 L1482.3 2420.12  Z" fill="#7f7f7f" fill-rule="evenodd" fill-opacity="1"/>
<polyline clip-path="url(#clip882)" style="stroke:#000000; stroke-linecap:round; stroke-linejoin:round; stroke-width:4; stroke-opacity:1; fill:none" points="1482.3,2420.12 1481.77,2406.85 1480.19,2393.67 1477.57,2380.65 1473.92,2367.88 1469.27,2355.45 1463.64,2343.42 1457.08,2331.87 1449.62,2320.89 1441.31,2310.53 1432.21,2300.87 1422.36,2291.96 1411.84,2283.85 1400.71,2276.62 1389.04,2270.28 1376.9,2264.9 1364.37,2260.5 1351.54,2257.1 1338.47,2254.74 1325.26,2253.42 1311.98,2253.16 1298.73,2253.95 1285.58,2255.79 1272.62,2258.67 1259.92,2262.57 1247.58,2267.47 1235.67,2273.33 1224.26,2280.12 1213.42,2287.8 1203.23,2296.31 1193.75,2305.61 1185.04,2315.63 1177.15,2326.31 1170.13,2337.58 1164.03,2349.38 1158.89,2361.62 1154.74,2374.23 1151.6,2387.13 1149.5,2400.24 1148.44,2413.48 1148.44,2426.76 1149.5,2439.99 1151.6,2453.1 1154.74,2466.01 1158.89,2478.62 1164.03,2490.86 1170.13,2502.65 1177.15,2513.93 1185.04,2524.61 1193.75,2534.63 1203.23,2543.92 1213.42,2552.43 1224.26,2560.11 1235.67,2566.9 1247.58,2572.76 1259.92,2577.66 1272.62,2581.56 1285.58,2584.44 1298.73,2586.29 1311.98,2587.08 1325.26,2586.81 1338.47,2585.5 1351.54,2583.13 1364.37,2579.74 1376.9,2575.34 1389.04,2569.95 1400.71,2563.62 1411.84,2556.38 1422.36,2548.28 1432.21,2539.37 1441.31,2529.7 1449.62,2519.35 1457.08,2508.36 1463.64,2496.82 1469.27,2484.79 1473.92,2472.35 1477.57,2459.59 1480.19,2446.57 1481.77,2433.38 1482.3,2420.12 "/>
<circle clip-path="url(#clip882)" style="fill:#d14a00; stroke:none; fill-opacity:0" cx="290.889" cy="475.883" r="2"/>
<circle clip-path="url(#clip882)" style="fill:#d14a00; stroke:none; fill-opacity:0" cx="696.963" cy="475.883" r="2"/>
<circle clip-path="url(#clip882)" style="fill:#d14a00; stroke:none; fill-opacity:0" cx="1103.04" cy="475.883" r="2"/>
<circle clip-path="url(#clip882)" style="fill:#d14a00; stroke:none; fill-opacity:0" cx="1509.11" cy="475.883" r="2"/>
<circle clip-path="url(#clip882)" style="fill:#d14a00; stroke:none; fill-opacity:0" cx="530.842" cy="1005.01" r="2"/>
<circle clip-path="url(#clip882)" style="fill:#d14a00; stroke:none; fill-opacity:0" cx="807.71" cy="1005.01" r="2"/>
<circle clip-path="url(#clip882)" style="fill:#d14a00; stroke:none; fill-opacity:0" cx="1084.58" cy="1005.01" r="2"/>
<circle clip-path="url(#clip882)" style="fill:#d14a00; stroke:none; fill-opacity:0" cx="530.842" cy="1288.03" r="2"/>
<circle clip-path="url(#clip882)" style="fill:#d14a00; stroke:none; fill-opacity:0" cx="807.71" cy="1288.03" r="2"/>
<circle clip-path="url(#clip882)" style="fill:#d14a00; stroke:none; fill-opacity:0" cx="1223.01" cy="1288.03" r="2"/>
<circle clip-path="url(#clip882)" style="fill:#d14a00; stroke:none; fill-opacity:0" cx="715.421" cy="1571.05" r="2"/>
<circle clip-path="url(#clip882)" style="fill:#d14a00; stroke:none; fill-opacity:0" cx="1199.94" cy="1571.05" r="2"/>
<circle clip-path="url(#clip882)" style="fill:#d14a00; stroke:none; fill-opacity:0" cx="715.421" cy="1854.07" r="2"/>
<circle clip-path="url(#clip882)" style="fill:#d14a00; stroke:none; fill-opacity:0" cx="1199.94" cy="1854.07" r="2"/>
<circle clip-path="url(#clip882)" style="fill:#d14a00; stroke:none; fill-opacity:0" cx="1315.3" cy="2137.1" r="2"/>
<circle clip-path="url(#clip882)" style="fill:#d14a00; stroke:none; fill-opacity:0" cx="1315.3" cy="2420.12" r="2"/>
<path clip-path="url(#clip880)" d="M265.657 459.086 L265.657 475.319 L273.007 475.319 Q277.087 475.319 279.315 473.206 Q281.543 471.094 281.543 467.188 Q281.543 463.311 279.315 461.198 Q277.087 459.086 273.007 459.086 L265.657 459.086 M259.812 454.283 L273.007 454.283 Q280.269 454.283 283.973 457.581 Q287.706 460.851 287.706 467.188 Q287.706 473.583 283.973 476.852 Q280.269 480.122 273.007 480.122 L265.657 480.122 L265.657 497.483 L259.812 497.483 L259.812 454.283 Z" fill="#000000" fill-rule="nonzero" fill-opacity="1" /><path clip-path="url(#clip880)" d="M297.081 492.564 L306.629 492.564 L306.629 459.607 L296.242 461.69 L296.242 456.366 L306.571 454.283 L312.416 454.283 L312.416 492.564 L321.965 492.564 L321.965 497.483 L297.081 497.483 L297.081 492.564 Z" fill="#000000" fill-rule="nonzero" fill-opacity="1" /><path clip-path="url(#clip880)" d="M671.963 459.086 L671.963 475.319 L679.313 475.319 Q683.392 475.319 685.62 473.206 Q687.848 471.094 687.848 467.188 Q687.848 463.311 685.62 461.198 Q683.392 459.086 679.313 459.086 L671.963 459.086 M666.118 454.283 L679.313 454.283 Q686.575 454.283 690.279 457.581 Q694.012 460.851 694.012 467.188 Q694.012 473.583 690.279 476.852 Q686.575 480.122 679.313 480.122 L671.963 480.122 L671.963 497.483 L666.118 497.483 L666.118 454.283 Z" fill="#000000" fill-rule="nonzero" fill-opacity="1" /><path clip-path="url(#clip880)" d="M707.408 492.564 L727.808 492.564 L727.808 497.483 L700.377 497.483 L700.377 492.564 Q703.705 489.121 709.434 483.334 Q715.192 477.518 716.668 475.839 Q719.474 472.686 720.574 470.515 Q721.702 468.316 721.702 466.204 Q721.702 462.761 719.272 460.591 Q716.87 458.421 712.993 458.421 Q710.244 458.421 707.177 459.375 Q704.139 460.33 700.667 462.269 L700.667 456.366 Q704.197 454.948 707.264 454.225 Q710.331 453.502 712.877 453.502 Q719.59 453.502 723.583 456.858 Q727.576 460.215 727.576 465.828 Q727.576 468.49 726.563 470.892 Q725.58 473.264 722.947 476.505 Q722.223 477.344 718.346 481.366 Q714.469 485.359 707.408 492.564 Z" fill="#000000" fill-rule="nonzero" fill-opacity="1" /><path clip-path="url(#clip880)" d="M1077.44 459.086 L1077.44 475.319 L1084.79 475.319 Q1088.87 475.319 1091.1 473.206 Q1093.33 471.094 1093.33 467.188 Q1093.33 463.311 1091.1 461.198 Q1088.87 459.086 1084.79 459.086 L1077.44 459.086 M1071.6 454.283 L1084.79 454.283 Q1092.06 454.283 1095.76 457.581 Q1099.49 460.851 1099.49 467.188 Q1099.49 473.583 1095.76 476.852 Q1092.06 480.122 1084.79 480.122 L1077.44 480.122 L1077.44 497.483 L1071.6 497.483 L1071.6 454.283 Z" fill="#000000" fill-rule="nonzero" fill-opacity="1" /><path clip-path="url(#clip880)" d="M1125.56 474.19 Q1129.76 475.087 1132.1 477.923 Q1134.48 480.758 1134.48 484.925 Q1134.48 491.32 1130.08 494.821 Q1125.68 498.322 1117.58 498.322 Q1114.86 498.322 1111.96 497.772 Q1109.1 497.251 1106.03 496.181 L1106.03 490.538 Q1108.46 491.956 1111.36 492.68 Q1114.25 493.403 1117.4 493.403 Q1122.9 493.403 1125.77 491.233 Q1128.66 489.063 1128.66 484.925 Q1128.66 481.106 1125.97 478.964 Q1123.31 476.794 1118.53 476.794 L1113.5 476.794 L1113.5 471.991 L1118.76 471.991 Q1123.07 471.991 1125.36 470.284 Q1127.65 468.548 1127.65 465.307 Q1127.65 461.98 1125.27 460.215 Q1122.93 458.421 1118.53 458.421 Q1116.13 458.421 1113.38 458.941 Q1110.63 459.462 1107.33 460.562 L1107.33 455.353 Q1110.66 454.428 1113.56 453.965 Q1116.48 453.502 1119.05 453.502 Q1125.71 453.502 1129.59 456.54 Q1133.46 459.549 1133.46 464.699 Q1133.46 468.287 1131.41 470.776 Q1129.35 473.235 1125.56 474.19 Z" fill="#000000" fill-rule="nonzero" fill-opacity="1" /><path clip-path="url(#clip880)" d="M1482.81 459.086 L1482.81 475.319 L1490.16 475.319 Q1494.24 475.319 1496.47 473.206 Q1498.69 471.094 1498.69 467.188 Q1498.69 463.311 1496.47 461.198 Q1494.24 459.086 1490.16 459.086 L1482.81 459.086 M1476.96 454.283 L1490.16 454.283 Q1497.42 454.283 1501.13 457.581 Q1504.86 460.851 1504.86 467.188 Q1504.86 473.583 1501.13 476.852 Q1497.42 480.122 1490.16 480.122 L1482.81 480.122 L1482.81 497.483 L1476.96 497.483 L1476.96 454.283 Z" fill="#000000" fill-rule="nonzero" fill-opacity="1" /><path clip-path="url(#clip880)" d="M1529.28 459.375 L1514.52 482.437 L1529.28 482.437 L1529.28 459.375 M1527.75 454.283 L1535.1 454.283 L1535.1 482.437 L1541.26 482.437 L1541.26 487.298 L1535.1 487.298 L1535.1 497.483 L1529.28 497.483 L1529.28 487.298 L1509.78 487.298 L1509.78 481.655 L1527.75 454.283 Z" fill="#000000" fill-rule="nonzero" fill-opacity="1" /><path clip-path="url(#clip880)" d="M467.025 1272.37 L467.025 1289.56 L461.672 1289.56 L461.672 1244.82 L467.025 1244.82 L467.025 1249.74 Q468.704 1246.85 471.25 1245.46 Q473.825 1244.04 477.384 1244.04 Q483.287 1244.04 486.962 1248.73 Q490.665 1253.42 490.665 1261.06 Q490.665 1268.7 486.962 1273.38 Q483.287 1278.07 477.384 1278.07 Q473.825 1278.07 471.25 1276.68 Q468.704 1275.26 467.025 1272.37 M485.139 1261.06 Q485.139 1255.18 482.708 1251.86 Q480.307 1248.5 476.082 1248.5 Q471.858 1248.5 469.427 1251.86 Q467.025 1255.18 467.025 1261.06 Q467.025 1266.93 469.427 1270.29 Q471.858 1273.61 476.082 1273.61 Q480.307 1273.61 482.708 1270.29 Q485.139 1266.93 485.139 1261.06 Z" fill="#000000" fill-rule="nonzero" fill-opacity="1" /><path clip-path="url(#clip880)" d="M512.048 1248.56 Q507.766 1248.56 505.278 1251.91 Q502.789 1255.24 502.789 1261.06 Q502.789 1266.87 505.249 1270.23 Q507.737 1273.56 512.048 1273.56 Q516.302 1273.56 518.79 1270.2 Q521.279 1266.84 521.279 1261.06 Q521.279 1255.3 518.79 1251.94 Q516.302 1248.56 512.048 1248.56 M512.048 1244.04 Q518.993 1244.04 522.957 1248.56 Q526.921 1253.07 526.921 1261.06 Q526.921 1269.01 522.957 1273.56 Q518.993 1278.07 512.048 1278.07 Q505.075 1278.07 501.111 1273.56 Q497.176 1269.01 497.176 1261.06 Q497.176 1253.07 501.111 1248.56 Q505.075 1244.04 512.048 1244.04 Z" fill="#000000" fill-rule="nonzero" fill-opacity="1" /><path clip-path="url(#clip880)" d="M540.897 1272.37 L540.897 1289.56 L535.544 1289.56 L535.544 1244.82 L540.897 1244.82 L540.897 1249.74 Q542.575 1246.85 545.121 1245.46 Q547.696 1244.04 551.255 1244.04 Q557.158 1244.04 560.833 1248.73 Q564.536 1253.42 564.536 1261.06 Q564.536 1268.7 560.833 1273.38 Q557.158 1278.07 551.255 1278.07 Q547.696 1278.07 545.121 1276.68 Q542.575 1275.26 540.897 1272.37 M559.01 1261.06 Q559.01 1255.18 556.579 1251.86 Q554.178 1248.5 549.953 1248.5 Q545.729 1248.5 543.298 1251.86 Q540.897 1255.18 540.897 1261.06 Q540.897 1266.93 543.298 1270.29 Q545.729 1273.61 549.953 1273.61 Q554.178 1273.61 556.579 1270.29 Q559.01 1266.93 559.01 1261.06 Z" fill="#000000" fill-rule="nonzero" fill-opacity="1" /><path clip-path="url(#clip880)" d="M575.127 1272.31 L584.675 1272.31 L584.675 1239.36 L574.288 1241.44 L574.288 1236.11 L584.617 1234.03 L590.462 1234.03 L590.462 1272.31 L600.011 1272.31 L600.011 1277.23 L575.127 1277.23 L575.127 1272.31 Z" fill="#000000" fill-rule="nonzero" fill-opacity="1" /><path clip-path="url(#clip880)" d="M385.79 1298.83 L391.635 1298.83 L391.635 1316.54 L412.873 1316.54 L412.873 1298.83 L418.718 1298.83 L418.718 1342.03 L412.873 1342.03 L412.873 1321.46 L391.635 1321.46 L391.635 1342.03 L385.79 1342.03 L385.79 1298.83 Z" fill="#000000" fill-rule="nonzero" fill-opacity="1" /><path clip-path="url(#clip880)" d="M442.677 1313.36 Q438.394 1313.36 435.906 1316.71 Q433.417 1320.04 433.417 1325.86 Q433.417 1331.67 435.877 1335.03 Q438.365 1338.36 442.677 1338.36 Q446.93 1338.36 449.418 1335 Q451.907 1331.64 451.907 1325.86 Q451.907 1320.1 449.418 1316.74 Q446.93 1313.36 442.677 1313.36 M442.677 1308.84 Q449.621 1308.84 453.585 1313.36 Q457.549 1317.87 457.549 1325.86 Q457.549 1333.81 453.585 1338.36 Q449.621 1342.87 442.677 1342.87 Q435.703 1342.87 431.739 1338.36 Q427.804 1333.81 427.804 1325.86 Q427.804 1317.87 431.739 1313.36 Q435.703 1308.84 442.677 1308.84 Z" fill="#000000" fill-rule="nonzero" fill-opacity="1" /><path clip-path="url(#clip880)" d="M491.606 1315.85 Q493.602 1312.26 496.38 1310.55 Q499.158 1308.84 502.919 1308.84 Q507.983 1308.84 510.732 1312.4 Q513.481 1315.93 513.481 1322.47 L513.481 1342.03 L508.128 1342.03 L508.128 1322.64 Q508.128 1317.99 506.478 1315.73 Q504.829 1313.47 501.444 1313.47 Q497.306 1313.47 494.904 1316.22 Q492.503 1318.97 492.503 1323.72 L492.503 1342.03 L487.15 1342.03 L487.15 1322.64 Q487.15 1317.96 485.5 1315.73 Q483.851 1313.47 480.408 1313.47 Q476.328 1313.47 473.926 1316.25 Q471.525 1319 471.525 1323.72 L471.525 1342.03 L466.172 1342.03 L466.172 1309.62 L471.525 1309.62 L471.525 1314.66 Q473.348 1311.68 475.894 1310.26 Q478.44 1308.84 481.941 1308.84 Q485.471 1308.84 487.931 1310.64 Q490.419 1312.43 491.606 1315.85 Z" fill="#000000" fill-rule="nonzero" fill-opacity="1" /><path clip-path="url(#clip880)" d="M536.658 1313.36 Q532.375 1313.36 529.887 1316.71 Q527.398 1320.04 527.398 1325.86 Q527.398 1331.67 529.858 1335.03 Q532.346 1338.36 536.658 1338.36 Q540.911 1338.36 543.399 1335 Q545.888 1331.64 545.888 1325.86 Q545.888 1320.1 543.399 1316.74 Q540.911 1313.36 536.658 1313.36 M536.658 1308.84 Q543.602 1308.84 547.566 1313.36 Q551.53 1317.87 551.53 1325.86 Q551.53 1333.81 547.566 1338.36 Q543.602 1342.87 536.658 1342.87 Q529.684 1342.87 525.72 1338.36 Q521.785 1333.81 521.785 1325.86 Q521.785 1317.87 525.72 1313.36 Q529.684 1308.84 536.658 1308.84 Z" fill="#000000" fill-rule="nonzero" fill-opacity="1" /><path clip-path="url(#clip880)" d="M561.05 1315.12 L598.144 1315.12 L598.144 1319.98 L561.05 1319.98 L561.05 1315.12 M561.05 1326.93 L598.144 1326.93 L598.144 1331.85 L561.05 1331.85 L561.05 1326.93 Z" fill="#000000" fill-rule="nonzero" fill-opacity="1" /><path clip-path="url(#clip880)" d="M615.795 1337.11 L636.194 1337.11 L636.194 1342.03 L608.764 1342.03 L608.764 1337.11 Q612.091 1333.67 617.82 1327.88 Q623.578 1322.07 625.054 1320.39 Q627.861 1317.23 628.96 1315.06 Q630.089 1312.86 630.089 1310.75 Q630.089 1307.31 627.658 1305.14 Q625.257 1302.97 621.379 1302.97 Q618.63 1302.97 615.563 1303.92 Q612.525 1304.88 609.053 1306.82 L609.053 1300.91 Q612.583 1299.5 615.65 1298.77 Q618.717 1298.05 621.264 1298.05 Q627.976 1298.05 631.97 1301.41 Q635.963 1304.76 635.963 1310.38 Q635.963 1313.04 634.95 1315.44 Q633.966 1317.81 631.333 1321.05 Q630.61 1321.89 626.732 1325.91 Q622.855 1329.91 615.795 1337.11 Z" fill="#000000" fill-rule="nonzero" fill-opacity="1" /><path clip-path="url(#clip880)" d="M660.962 1302.68 Q656.449 1302.68 654.163 1307.14 Q651.906 1311.56 651.906 1320.47 Q651.906 1329.36 654.163 1333.81 Q656.449 1338.24 660.962 1338.24 Q665.505 1338.24 667.762 1333.81 Q670.048 1329.36 670.048 1320.47 Q670.048 1311.56 667.762 1307.14 Q665.505 1302.68 660.962 1302.68 M660.962 1298.05 Q668.225 1298.05 672.045 1303.81 Q675.893 1309.54 675.893 1320.47 Q675.893 1331.38 672.045 1337.14 Q668.225 1342.87 660.962 1342.87 Q653.7 1342.87 649.851 1337.14 Q646.032 1331.38 646.032 1320.47 Q646.032 1309.54 649.851 1303.81 Q653.7 1298.05 660.962 1298.05 Z" fill="#000000" fill-rule="nonzero" fill-opacity="1" /><path clip-path="url(#clip880)" d="M651.836 1838.41 L651.836 1855.6 L646.483 1855.6 L646.483 1810.87 L651.836 1810.87 L651.836 1815.79 Q653.514 1812.89 656.061 1811.5 Q658.636 1810.09 662.195 1810.09 Q668.098 1810.09 671.772 1814.77 Q675.476 1819.46 675.476 1827.1 Q675.476 1834.74 671.772 1839.43 Q668.098 1844.11 662.195 1844.11 Q658.636 1844.11 656.061 1842.72 Q653.514 1841.31 651.836 1838.41 M669.949 1827.1 Q669.949 1821.23 667.519 1817.9 Q665.117 1814.54 660.893 1814.54 Q656.668 1814.54 654.238 1817.9 Q651.836 1821.23 651.836 1827.1 Q651.836 1832.97 654.238 1836.33 Q656.668 1839.66 660.893 1839.66 Q665.117 1839.66 667.519 1836.33 Q669.949 1832.97 669.949 1827.1 Z" fill="#000000" fill-rule="nonzero" fill-opacity="1" /><path clip-path="url(#clip880)" d="M696.859 1814.6 Q692.577 1814.6 690.088 1817.96 Q687.6 1821.28 687.6 1827.1 Q687.6 1832.92 690.059 1836.27 Q692.548 1839.6 696.859 1839.6 Q701.112 1839.6 703.601 1836.24 Q706.089 1832.89 706.089 1827.1 Q706.089 1821.34 703.601 1817.99 Q701.112 1814.6 696.859 1814.6 M696.859 1810.09 Q703.803 1810.09 707.767 1814.6 Q711.732 1819.11 711.732 1827.1 Q711.732 1835.06 707.767 1839.6 Q703.803 1844.11 696.859 1844.11 Q689.886 1844.11 685.922 1839.6 Q681.986 1835.06 681.986 1827.1 Q681.986 1819.11 685.922 1814.6 Q689.886 1810.09 696.859 1810.09 Z" fill="#000000" fill-rule="nonzero" fill-opacity="1" /><path clip-path="url(#clip880)" d="M725.707 1838.41 L725.707 1855.6 L720.354 1855.6 L720.354 1810.87 L725.707 1810.87 L725.707 1815.79 Q727.385 1812.89 729.932 1811.5 Q732.507 1810.09 736.066 1810.09 Q741.969 1810.09 745.643 1814.77 Q749.347 1819.46 749.347 1827.1 Q749.347 1834.74 745.643 1839.43 Q741.969 1844.11 736.066 1844.11 Q732.507 1844.11 729.932 1842.72 Q727.385 1841.31 725.707 1838.41 M743.821 1827.1 Q743.821 1821.23 741.39 1817.9 Q738.988 1814.54 734.764 1814.54 Q730.539 1814.54 728.109 1817.9 Q725.707 1821.23 725.707 1827.1 Q725.707 1832.97 728.109 1836.33 Q730.539 1839.66 734.764 1839.66 Q738.988 1839.66 741.39 1836.33 Q743.821 1832.97 743.821 1827.1 Z" fill="#000000" fill-rule="nonzero" fill-opacity="1" /><path clip-path="url(#clip880)" d="M763.959 1838.36 L784.359 1838.36 L784.359 1843.27 L756.928 1843.27 L756.928 1838.36 Q760.256 1834.91 765.985 1829.13 Q771.743 1823.31 773.219 1821.63 Q776.025 1818.48 777.125 1816.31 Q778.253 1814.11 778.253 1812 Q778.253 1808.55 775.823 1806.38 Q773.421 1804.21 769.544 1804.21 Q766.795 1804.21 763.728 1805.17 Q760.69 1806.12 757.217 1808.06 L757.217 1802.16 Q760.748 1800.74 763.815 1800.02 Q766.882 1799.29 769.428 1799.29 Q776.141 1799.29 780.134 1802.65 Q784.127 1806.01 784.127 1811.62 Q784.127 1814.28 783.114 1816.68 Q782.131 1819.06 779.497 1822.3 Q778.774 1823.14 774.897 1827.16 Q771.019 1831.15 763.959 1838.36 Z" fill="#000000" fill-rule="nonzero" fill-opacity="1" /><path clip-path="url(#clip880)" d="M635.604 1864.87 L643.474 1864.87 L662.629 1901.01 L662.629 1864.87 L668.3 1864.87 L668.3 1908.07 L660.43 1908.07 L641.275 1871.93 L641.275 1908.07 L635.604 1908.07 L635.604 1864.87 Z" fill="#000000" fill-rule="nonzero" fill-opacity="1" /><path clip-path="url(#clip880)" d="M680.395 1881.16 L717.49 1881.16 L717.49 1886.03 L680.395 1886.03 L680.395 1881.16 M680.395 1892.97 L717.49 1892.97 L717.49 1897.89 L680.395 1897.89 L680.395 1892.97 Z" fill="#000000" fill-rule="nonzero" fill-opacity="1" /><path clip-path="url(#clip880)" d="M735.14 1903.16 L755.539 1903.16 L755.539 1908.07 L728.109 1908.07 L728.109 1903.16 Q731.436 1899.71 737.165 1893.93 Q742.924 1888.11 744.399 1886.43 Q747.206 1883.28 748.305 1881.11 Q749.434 1878.91 749.434 1876.8 Q749.434 1873.35 747.003 1871.18 Q744.602 1869.01 740.724 1869.01 Q737.976 1869.01 734.909 1869.97 Q731.87 1870.92 728.398 1872.86 L728.398 1866.96 Q731.928 1865.54 734.995 1864.82 Q738.062 1864.09 740.609 1864.09 Q747.322 1864.09 751.315 1867.45 Q755.308 1870.81 755.308 1876.42 Q755.308 1879.08 754.295 1881.48 Q753.311 1883.86 750.678 1887.1 Q749.955 1887.94 746.077 1891.96 Q742.2 1895.95 735.14 1903.16 Z" fill="#000000" fill-rule="nonzero" fill-opacity="1" /><path clip-path="url(#clip880)" d="M780.308 1868.72 Q775.794 1868.72 773.508 1873.18 Q771.251 1877.61 771.251 1886.52 Q771.251 1895.4 773.508 1899.86 Q775.794 1904.28 780.308 1904.28 Q784.85 1904.28 787.107 1899.86 Q789.393 1895.4 789.393 1886.52 Q789.393 1877.61 787.107 1873.18 Q784.85 1868.72 780.308 1868.72 M780.308 1864.09 Q787.57 1864.09 791.39 1869.85 Q795.238 1875.58 795.238 1886.52 Q795.238 1897.43 791.39 1903.18 Q787.57 1908.91 780.308 1908.91 Q773.045 1908.91 769.197 1903.18 Q765.377 1897.43 765.377 1886.52 Q765.377 1875.58 769.197 1869.85 Q773.045 1864.09 780.308 1864.09 Z" fill="#000000" fill-rule="nonzero" fill-opacity="1" /><path clip-path="url(#clip880)" d="M1250.42 2404.46 L1250.42 2421.64 L1245.06 2421.64 L1245.06 2376.91 L1250.42 2376.91 L1250.42 2381.83 Q1252.09 2378.94 1254.64 2377.55 Q1257.22 2376.13 1260.78 2376.13 Q1266.68 2376.13 1270.35 2380.82 Q1274.06 2385.5 1274.06 2393.14 Q1274.06 2400.78 1270.35 2405.47 Q1266.68 2410.16 1260.78 2410.16 Q1257.22 2410.16 1254.64 2408.77 Q1252.09 2407.35 1250.42 2404.46 M1268.53 2393.14 Q1268.53 2387.27 1266.1 2383.94 Q1263.7 2380.58 1259.47 2380.58 Q1255.25 2380.58 1252.82 2383.94 Q1250.42 2387.27 1250.42 2393.14 Q1250.42 2399.02 1252.82 2402.37 Q1255.25 2405.7 1259.47 2405.7 Q1263.7 2405.7 1266.1 2402.37 Q1268.53 2399.02 1268.53 2393.14 Z" fill="#000000" fill-rule="nonzero" fill-opacity="1" /><path clip-path="url(#clip880)" d="M1295.44 2380.64 Q1291.16 2380.64 1288.67 2384 Q1286.18 2387.33 1286.18 2393.14 Q1286.18 2398.96 1288.64 2402.31 Q1291.13 2405.64 1295.44 2405.64 Q1299.69 2405.64 1302.18 2402.29 Q1304.67 2398.93 1304.67 2393.14 Q1304.67 2387.38 1302.18 2384.03 Q1299.69 2380.64 1295.44 2380.64 M1295.44 2376.13 Q1302.38 2376.13 1306.35 2380.64 Q1310.31 2385.16 1310.31 2393.14 Q1310.31 2401.1 1306.35 2405.64 Q1302.38 2410.16 1295.44 2410.16 Q1288.47 2410.16 1284.5 2405.64 Q1280.57 2401.1 1280.57 2393.14 Q1280.57 2385.16 1284.5 2380.64 Q1288.47 2376.13 1295.44 2376.13 Z" fill="#000000" fill-rule="nonzero" fill-opacity="1" /><path clip-path="url(#clip880)" d="M1324.29 2404.46 L1324.29 2421.64 L1318.93 2421.64 L1318.93 2376.91 L1324.29 2376.91 L1324.29 2381.83 Q1325.97 2378.94 1328.51 2377.55 Q1331.09 2376.13 1334.65 2376.13 Q1340.55 2376.13 1344.22 2380.82 Q1347.93 2385.5 1347.93 2393.14 Q1347.93 2400.78 1344.22 2405.47 Q1340.55 2410.16 1334.65 2410.16 Q1331.09 2410.16 1328.51 2408.77 Q1325.97 2407.35 1324.29 2404.46 M1342.4 2393.14 Q1342.4 2387.27 1339.97 2383.94 Q1337.57 2380.58 1333.34 2380.58 Q1329.12 2380.58 1326.69 2383.94 Q1324.29 2387.27 1324.29 2393.14 Q1324.29 2399.02 1326.69 2402.37 Q1329.12 2405.7 1333.34 2405.7 Q1337.57 2405.7 1339.97 2402.37 Q1342.4 2399.02 1342.4 2393.14 Z" fill="#000000" fill-rule="nonzero" fill-opacity="1" /><path clip-path="url(#clip880)" d="M1373.56 2371.21 L1358.81 2394.27 L1373.56 2394.27 L1373.56 2371.21 M1372.03 2366.12 L1379.38 2366.12 L1379.38 2394.27 L1385.54 2394.27 L1385.54 2399.13 L1379.38 2399.13 L1379.38 2409.32 L1373.56 2409.32 L1373.56 2399.13 L1354.06 2399.13 L1354.06 2393.49 L1372.03 2366.12 Z" fill="#000000" fill-rule="nonzero" fill-opacity="1" /><path clip-path="url(#clip880)" d="M1235.49 2430.92 L1243.36 2430.92 L1262.51 2467.06 L1262.51 2430.92 L1268.18 2430.92 L1268.18 2474.12 L1260.31 2474.12 L1241.16 2437.98 L1241.16 2474.12 L1235.49 2474.12 L1235.49 2430.92 Z" fill="#000000" fill-rule="nonzero" fill-opacity="1" /><path clip-path="url(#clip880)" d="M1280.28 2447.21 L1317.37 2447.21 L1317.37 2452.07 L1280.28 2452.07 L1280.28 2447.21 M1280.28 2459.01 L1317.37 2459.01 L1317.37 2463.93 L1280.28 2463.93 L1280.28 2459.01 Z" fill="#000000" fill-rule="nonzero" fill-opacity="1" /><path clip-path="url(#clip880)" d="M1335.02 2469.2 L1355.42 2469.2 L1355.42 2474.12 L1327.99 2474.12 L1327.99 2469.2 Q1331.32 2465.75 1337.05 2459.97 Q1342.81 2454.15 1344.28 2452.47 Q1347.09 2449.32 1348.19 2447.15 Q1349.32 2444.95 1349.32 2442.84 Q1349.32 2439.4 1346.89 2437.22 Q1344.48 2435.05 1340.61 2435.05 Q1337.86 2435.05 1334.79 2436.01 Q1331.75 2436.96 1328.28 2438.9 L1328.28 2433 Q1331.81 2431.58 1334.88 2430.86 Q1337.94 2430.14 1340.49 2430.14 Q1347.2 2430.14 1351.2 2433.49 Q1355.19 2436.85 1355.19 2442.46 Q1355.19 2445.12 1354.18 2447.53 Q1353.19 2449.9 1350.56 2453.14 Q1349.84 2453.98 1345.96 2458 Q1342.08 2461.99 1335.02 2469.2 Z" fill="#000000" fill-rule="nonzero" fill-opacity="1" /><path clip-path="url(#clip880)" d="M1380.19 2434.77 Q1375.68 2434.77 1373.39 2439.22 Q1371.13 2443.65 1371.13 2452.56 Q1371.13 2461.44 1373.39 2465.9 Q1375.68 2470.33 1380.19 2470.33 Q1384.73 2470.33 1386.99 2465.9 Q1389.28 2461.44 1389.28 2452.56 Q1389.28 2443.65 1386.99 2439.22 Q1384.73 2434.77 1380.19 2434.77 M1380.19 2430.14 Q1387.45 2430.14 1391.27 2435.89 Q1395.12 2441.62 1395.12 2452.56 Q1395.12 2463.47 1391.27 2469.23 Q1387.45 2474.96 1380.19 2474.96 Q1372.93 2474.96 1369.08 2469.23 Q1365.26 2463.47 1365.26 2452.56 Q1365.26 2441.62 1369.08 2435.89 Q1372.93 2430.14 1380.19 2430.14 Z" fill="#000000" fill-rule="nonzero" fill-opacity="1" /></svg>
