<?xml version="1.0" encoding="utf-8"?>
<svg xmlns="http://www.w3.org/2000/svg" xmlns:xlink="http://www.w3.org/1999/xlink" width="450" height="632" viewBox="0 0 1800 2528">
<defs>
  <clipPath id="clip320">
    <rect x="0" y="0" width="1800" height="2528"/>
  </clipPath>
</defs>
<path clip-path="url(#clip320)" d="M0 2528 L1800 2528 L1800 0 L0 0  Z" fill="#ffffff" fill-rule="evenodd" fill-opacity="1"/>
<defs>
  <clipPath id="clip321">
    <rect x="505" y="252" width="1771" height="1771"/>
  </clipPath>
</defs>
<path clip-path="url(#clip320)" d="M47.2441 2426.85 L1752.76 2426.85 L1752.76 101.151 L47.2441 101.151  Z" fill="#ffffff" fill-rule="evenodd" fill-opacity="1"/>
<defs>
  <clipPath id="clip322">
    <rect x="47" y="101" width="1707" height="2327"/>
  </clipPath>
</defs>
<polyline clip-path="url(#clip322)" style="stroke:#000000; stroke-linecap:round; stroke-linejoin:round; stroke-width:4; stroke-opacity:1; fill:none" points="290.889,433.394 623.131,962.521 "/>
<polyline clip-path="url(#clip322)" style="stroke:#000000; stroke-linecap:round; stroke-linejoin:round; stroke-width:4; stroke-opacity:1; fill:none" points="696.963,433.394 623.131,962.521 "/>
<polyline clip-path="url(#clip322)" style="stroke:#000000; stroke-linecap:round; stroke-linejoin:round; stroke-width:4; stroke-opacity:1; fill:none" points="1103.04,433.394 1176.87,962.521 "/>
<polyline clip-path="url(#clip322)" style="stroke:#000000; stroke-linecap:round; stroke-linejoin:round; stroke-width:4; stroke-opacity:1; fill:none" points="1509.11,433.394 1176.87,962.521 "/>
<polyline clip-path="url(#clip322)" style="stroke:#000000; stroke-linecap:round; stroke-linejoin:round; stroke-width:4; stroke-opacity:1; fill:none" points="623.131,962.521 900,1245.54 "/>
<polyline clip-path="url(#clip322)" style="stroke:#000000; stroke-linecap:round; stroke-linejoin:round; stroke-width:4; stroke-opacity:1; fill:none" points="1176.87,962.521 900,1245.54 "/>
<polyline clip-path="url(#clip322)" style="stroke:#000000; stroke-linecap:round; stroke-linejoin:round; stroke-width:4; stroke-opacity:1; fill:none" points="900,1245.54 900,1528.56 "/>
<polyline clip-path="url(#clip322)" style="stroke:#000000; stroke-linecap:round; stroke-linejoin:round; stroke-width:4; stroke-opacity:1; fill:none" points="900,1528.56 900,1811.58 "/>
<polyline clip-path="url(#clip322)" style="stroke:#000000; stroke-linecap:round; stroke-linejoin:round; stroke-width:4; stroke-opacity:1; fill:none" points="900,1811.58 900,2094.61 "/>
<path clip-path="url(#clip322)" d="M352.592 433.394 L352.397 428.491 L351.813 423.62 L350.844 418.81 L349.496 414.093 L347.777 409.498 L345.699 405.053 L343.274 400.788 L340.518 396.729 L337.448 392.902 L334.084 389.331 L330.446 386.039 L326.559 383.046 L322.446 380.371 L318.133 378.031 L313.649 376.041 L309.02 374.414 L304.277 373.16 L299.449 372.287 L294.567 371.8 L289.662 371.703 L284.764 371.995 L279.906 372.676 L275.116 373.74 L270.427 375.182 L265.866 376.992 L261.464 379.158 L257.248 381.667 L253.245 384.503 L249.48 387.649 L245.976 391.083 L242.757 394.785 L239.841 398.732 L237.249 402.897 L234.995 407.255 L233.095 411.778 L231.561 416.438 L230.401 421.206 L229.624 426.05 L229.234 430.94 L229.234 435.847 L229.624 440.737 L230.401 445.582 L231.561 450.349 L233.095 455.009 L234.995 459.532 L237.249 463.89 L239.841 468.056 L242.757 472.002 L245.976 475.704 L249.48 479.138 L253.245 482.284 L257.248 485.12 L261.464 487.629 L265.866 489.796 L270.427 491.605 L275.116 493.047 L279.906 494.111 L284.764 494.792 L289.662 495.085 L294.567 494.987 L299.449 494.5 L304.277 493.627 L309.02 492.373 L313.649 490.746 L318.133 488.756 L322.446 486.417 L326.559 483.742 L330.446 480.749 L334.084 477.456 L337.448 473.885 L340.518 470.058 L343.274 465.999 L345.699 461.734 L347.777 457.289 L349.496 452.694 L350.844 447.977 L351.813 443.167 L352.397 438.296 L352.592 433.394 L352.592 433.394  Z" fill="#c721dd" fill-rule="evenodd" fill-opacity="1"/>
<polyline clip-path="url(#clip322)" style="stroke:#000000; stroke-linecap:round; stroke-linejoin:round; stroke-width:4; stroke-opacity:1; fill:none" points="352.592,433.394 352.397,428.491 351.813,423.62 350.844,418.81 349.496,414.093 347.777,409.498 345.699,405.053 343.274,400.788 340.518,396.729 337.448,392.902 334.084,389.331 330.446,386.039 326.559,383.046 322.446,380.371 318.133,378.031 313.649,376.041 309.02,374.414 304.277,373.16 299.449,372.287 294.567,371.8 289.662,371.703 284.764,371.995 279.906,372.676 275.116,373.74 270.427,375.182 265.866,376.992 261.464,379.158 257.248,381.667 253.245,384.503 249.48,387.649 245.976,391.083 242.757,394.785 239.841,398.732 237.249,402.897 234.995,407.255 233.095,411.778 231.561,416.438 230.401,421.206 229.624,426.05 229.234,430.94 229.234,435.847 229.624,440.737 230.401,445.582 231.561,450.349 233.095,455.009 234.995,459.532 237.249,463.89 239.841,468.056 242.757,472.002 245.976,475.704 249.48,479.138 253.245,482.284 257.248,485.12 261.464,487.629 265.866,489.796 270.427,491.605 275.116,493.047 279.906,494.111 284.764,494.792 289.662,495.085 294.567,494.987 299.449,494.5 304.277,493.627 309.02,492.373 313.649,490.746 318.133,488.756 322.446,486.417 326.559,483.742 330.446,480.749 334.084,477.456 337.448,473.885 340.518,470.058 343.274,465.999 345.699,461.734 347.777,457.289 349.496,452.694 350.844,447.977 351.813,443.167 352.397,438.296 352.592,433.394 "/>
<path clip-path="url(#clip322)" d="M758.666 433.394 L758.471 428.491 L757.887 423.62 L756.918 418.81 L755.57 414.093 L753.851 409.498 L751.773 405.053 L749.348 400.788 L746.592 396.729 L743.522 392.902 L740.158 389.331 L736.52 386.039 L732.633 383.046 L728.52 380.371 L724.208 378.031 L719.723 376.041 L715.094 374.414 L710.351 373.16 L705.523 372.287 L700.641 371.8 L695.736 371.703 L690.839 371.995 L685.98 372.676 L681.191 373.74 L676.501 375.182 L671.941 376.992 L667.539 379.158 L663.323 381.667 L659.319 384.503 L655.554 387.649 L652.05 391.083 L648.831 394.785 L645.916 398.732 L643.323 402.897 L641.07 407.255 L639.17 411.778 L637.635 416.438 L636.475 421.206 L635.698 426.05 L635.308 430.94 L635.308 435.847 L635.698 440.737 L636.475 445.582 L637.635 450.349 L639.17 455.009 L641.07 459.532 L643.323 463.89 L645.916 468.056 L648.831 472.002 L652.05 475.704 L655.554 479.138 L659.319 482.284 L663.323 485.12 L667.539 487.629 L671.941 489.796 L676.501 491.605 L681.191 493.047 L685.98 494.111 L690.839 494.792 L695.736 495.085 L700.641 494.987 L705.523 494.5 L710.351 493.627 L715.094 492.373 L719.723 490.746 L724.208 488.756 L728.52 486.417 L732.633 483.742 L736.52 480.749 L740.158 477.456 L743.522 473.885 L746.592 470.058 L749.348 465.999 L751.773 461.734 L753.851 457.289 L755.57 452.694 L756.918 447.977 L757.887 443.167 L758.471 438.296 L758.666 433.394 L758.666 433.394  Z" fill="#d14a00" fill-rule="evenodd" fill-opacity="1"/>
<polyline clip-path="url(#clip322)" style="stroke:#000000; stroke-linecap:round; stroke-linejoin:round; stroke-width:4; stroke-opacity:1; fill:none" points="758.666,433.394 758.471,428.491 757.887,423.62 756.918,418.81 755.57,414.093 753.851,409.498 751.773,405.053 749.348,400.788 746.592,396.729 743.522,392.902 740.158,389.331 736.52,386.039 732.633,383.046 728.52,380.371 724.208,378.031 719.723,376.041 715.094,374.414 710.351,373.16 705.523,372.287 700.641,371.8 695.736,371.703 690.839,371.995 685.98,372.676 681.191,373.74 676.501,375.182 671.941,376.992 667.539,379.158 663.323,381.667 659.319,384.503 655.554,387.649 652.05,391.083 648.831,394.785 645.916,398.732 643.323,402.897 641.07,407.255 639.17,411.778 637.635,416.438 636.475,421.206 635.698,426.05 635.308,430.94 635.308,435.847 635.698,440.737 636.475,445.582 637.635,450.349 639.17,455.009 641.07,459.532 643.323,463.89 645.916,468.056 648.831,472.002 652.05,475.704 655.554,479.138 659.319,482.284 663.323,485.12 667.539,487.629 671.941,489.796 676.501,491.605 681.191,493.047 685.98,494.111 690.839,494.792 695.736,495.085 700.641,494.987 705.523,494.5 710.351,493.627 715.094,492.373 719.723,490.746 724.208,488.756 728.52,486.417 732.633,483.742 736.52,480.749 740.158,477.456 743.522,473.885 746.592,470.058 749.348,465.999 751.773,461.734 753.851,457.289 755.57,452.694 756.918,447.977 757.887,443.167 758.471,438.296 758.666,433.394 "/>
<path clip-path="url(#clip322)" d="M1164.74 433.394 L1164.55 428.491 L1163.96 423.62 L1162.99 418.81 L1161.64 414.093 L1159.93 409.498 L1157.85 405.053 L1155.42 400.788 L1152.67 396.729 L1149.6 392.902 L1146.23 389.331 L1142.59 386.039 L1138.71 383.046 L1134.59 380.371 L1130.28 378.031 L1125.8 376.041 L1121.17 374.414 L1116.43 373.16 L1111.6 372.287 L1106.72 371.8 L1101.81 371.703 L1096.91 371.995 L1092.05 372.676 L1087.26 373.74 L1082.58 375.182 L1078.01 376.992 L1073.61 379.158 L1069.4 381.667 L1065.39 384.503 L1061.63 387.649 L1058.12 391.083 L1054.91 394.785 L1051.99 398.732 L1049.4 402.897 L1047.14 407.255 L1045.24 411.778 L1043.71 416.438 L1042.55 421.206 L1041.77 426.05 L1041.38 430.94 L1041.38 435.847 L1041.77 440.737 L1042.55 445.582 L1043.71 450.349 L1045.24 455.009 L1047.14 459.532 L1049.4 463.89 L1051.99 468.056 L1054.91 472.002 L1058.12 475.704 L1061.63 479.138 L1065.39 482.284 L1069.4 485.12 L1073.61 487.629 L1078.01 489.796 L1082.58 491.605 L1087.26 493.047 L1092.05 494.111 L1096.91 494.792 L1101.81 495.085 L1106.72 494.987 L1111.6 494.5 L1116.43 493.627 L1121.17 492.373 L1125.8 490.746 L1130.28 488.756 L1134.59 486.417 L1138.71 483.742 L1142.59 480.749 L1146.23 477.456 L1149.6 473.885 L1152.67 470.058 L1155.42 465.999 L1157.85 461.734 L1159.93 457.289 L1161.64 452.694 L1162.99 447.977 L1163.96 443.167 L1164.55 438.296 L1164.74 433.394 L1164.74 433.394  Z" fill="#008c00" fill-rule="evenodd" fill-opacity="1"/>
<polyline clip-path="url(#clip322)" style="stroke:#000000; stroke-linecap:round; stroke-linejoin:round; stroke-width:4; stroke-opacity:1; fill:none" points="1164.74,433.394 1164.55,428.491 1163.96,423.62 1162.99,418.81 1161.64,414.093 1159.93,409.498 1157.85,405.053 1155.42,400.788 1152.67,396.729 1149.6,392.902 1146.23,389.331 1142.59,386.039 1138.71,383.046 1134.59,380.371 1130.28,378.031 1125.8,376.041 1121.17,374.414 1116.43,373.16 1111.6,372.287 1106.72,371.8 1101.81,371.703 1096.91,371.995 1092.05,372.676 1087.26,373.74 1082.58,375.182 1078.01,376.992 1073.61,379.158 1069.4,381.667 1065.39,384.503 1061.63,387.649 1058.12,391.083 1054.91,394.785 1051.99,398.732 1049.4,402.897 1047.14,407.255 1045.24,411.778 1043.71,416.438 1042.55,421.206 1041.77,426.05 1041.38,430.94 1041.38,435.847 1041.77,440.737 1042.55,445.582 1043.71,450.349 1045.24,455.009 1047.14,459.532 1049.4,463.89 1051.99,468.056 1054.91,472.002 1058.12,475.704 1061.63,479.138 1065.39,482.284 1069.4,485.12 1073.61,487.629 1078.01,489.796 1082.58,491.605 1087.26,493.047 1092.05,494.111 1096.91,494.792 1101.81,495.085 1106.72,494.987 1111.6,494.5 1116.43,493.627 1121.17,492.373 1125.8,490.746 1130.28,488.756 1134.59,486.417 1138.71,483.742 1142.59,480.749 1146.23,477.456 1149.6,473.885 1152.67,470.058 1155.42,465.999 1157.85,461.734 1159.93,457.289 1161.64,452.694 1162.99,447.977 1163.96,443.167 1164.55,438.296 1164.74,433.394 "/>
<path clip-path="url(#clip322)" d="M1570.81 433.394 L1570.62 428.491 L1570.04 423.62 L1569.07 418.81 L1567.72 414.093 L1566 409.498 L1563.92 405.053 L1561.5 400.788 L1558.74 396.729 L1555.67 392.902 L1552.31 389.331 L1548.67 386.039 L1544.78 383.046 L1540.67 380.371 L1536.36 378.031 L1531.87 376.041 L1527.24 374.414 L1522.5 373.16 L1517.67 372.287 L1512.79 371.8 L1507.88 371.703 L1502.99 371.995 L1498.13 372.676 L1493.34 373.74 L1488.65 375.182 L1484.09 376.992 L1479.69 379.158 L1475.47 381.667 L1471.47 384.503 L1467.7 387.649 L1464.2 391.083 L1460.98 394.785 L1458.06 398.732 L1455.47 402.897 L1453.22 407.255 L1451.32 411.778 L1449.78 416.438 L1448.62 421.206 L1447.85 426.05 L1447.46 430.94 L1447.46 435.847 L1447.85 440.737 L1448.62 445.582 L1449.78 450.349 L1451.32 455.009 L1453.22 459.532 L1455.47 463.89 L1458.06 468.056 L1460.98 472.002 L1464.2 475.704 L1467.7 479.138 L1471.47 482.284 L1475.47 485.12 L1479.69 487.629 L1484.09 489.796 L1488.65 491.605 L1493.34 493.047 L1498.13 494.111 L1502.99 494.792 L1507.88 495.085 L1512.79 494.987 L1517.67 494.5 L1522.5 493.627 L1527.24 492.373 L1531.87 490.746 L1536.36 488.756 L1540.67 486.417 L1544.78 483.742 L1548.67 480.749 L1552.31 477.456 L1555.67 473.885 L1558.74 470.058 L1561.5 465.999 L1563.92 461.734 L1566 457.289 L1567.72 452.694 L1569.07 447.977 L1570.04 443.167 L1570.62 438.296 L1570.81 433.394 L1570.81 433.394  Z" fill="#007fb1" fill-rule="evenodd" fill-opacity="1"/>
<polyline clip-path="url(#clip322)" style="stroke:#000000; stroke-linecap:round; stroke-linejoin:round; stroke-width:4; stroke-opacity:1; fill:none" points="1570.81,433.394 1570.62,428.491 1570.04,423.62 1569.07,418.81 1567.72,414.093 1566,409.498 1563.92,405.053 1561.5,400.788 1558.74,396.729 1555.67,392.902 1552.31,389.331 1548.67,386.039 1544.78,383.046 1540.67,380.371 1536.36,378.031 1531.87,376.041 1527.24,374.414 1522.5,373.16 1517.67,372.287 1512.79,371.8 1507.88,371.703 1502.99,371.995 1498.13,372.676 1493.34,373.74 1488.65,375.182 1484.09,376.992 1479.69,379.158 1475.47,381.667 1471.47,384.503 1467.7,387.649 1464.2,391.083 1460.98,394.785 1458.06,398.732 1455.47,402.897 1453.22,407.255 1451.32,411.778 1449.78,416.438 1448.62,421.206 1447.85,426.05 1447.46,430.94 1447.46,435.847 1447.85,440.737 1448.62,445.582 1449.78,450.349 1451.32,455.009 1453.22,459.532 1455.47,463.89 1458.06,468.056 1460.98,472.002 1464.2,475.704 1467.7,479.138 1471.47,482.284 1475.47,485.12 1479.69,487.629 1484.09,489.796 1488.65,491.605 1493.34,493.047 1498.13,494.111 1502.99,494.792 1507.88,495.085 1512.79,494.987 1517.67,494.5 1522.5,493.627 1527.24,492.373 1531.87,490.746 1536.36,488.756 1540.67,486.417 1544.78,483.742 1548.67,480.749 1552.31,477.456 1555.67,473.885 1558.74,470.058 1561.5,465.999 1563.92,461.734 1566,457.289 1567.72,452.694 1569.07,447.977 1570.04,443.167 1570.62,438.296 1570.81,433.394 "/>
<path clip-path="url(#clip322)" d="M658.57 962.521 L658.458 959.705 L658.123 956.907 L657.566 954.145 L656.792 951.435 L655.805 948.796 L654.611 946.244 L653.218 943.794 L651.636 941.463 L649.872 939.265 L647.94 937.213 L645.851 935.322 L643.618 933.603 L641.256 932.067 L638.779 930.723 L636.203 929.58 L633.545 928.646 L630.821 927.926 L628.048 927.424 L625.244 927.144 L622.427 927.088 L619.614 927.256 L616.823 927.647 L614.072 928.259 L611.379 929.087 L608.76 930.126 L606.231 931.37 L603.81 932.812 L601.511 934.441 L599.348 936.247 L597.336 938.22 L595.487 940.346 L593.812 942.613 L592.323 945.005 L591.029 947.508 L589.938 950.106 L589.056 952.782 L588.39 955.52 L587.944 958.303 L587.72 961.112 L587.72 963.93 L587.944 966.739 L588.39 969.521 L589.056 972.259 L589.938 974.935 L591.029 977.533 L592.323 980.036 L593.812 982.429 L595.487 984.695 L597.336 986.822 L599.348 988.794 L601.511 990.601 L603.81 992.23 L606.231 993.671 L608.76 994.915 L611.379 995.954 L614.072 996.782 L616.823 997.394 L619.614 997.785 L622.427 997.953 L625.244 997.897 L628.048 997.617 L630.821 997.116 L633.545 996.395 L636.203 995.461 L638.779 994.318 L641.256 992.974 L643.618 991.438 L645.851 989.719 L647.94 987.828 L649.872 985.777 L651.636 983.579 L653.218 981.247 L654.611 978.798 L655.805 976.245 L656.792 973.606 L657.566 970.896 L658.123 968.134 L658.458 965.336 L658.57 962.521 L658.57 962.521  Z" fill="#e5e5e5" fill-rule="evenodd" fill-opacity="1"/>
<polyline clip-path="url(#clip322)" style="stroke:#000000; stroke-linecap:round; stroke-linejoin:round; stroke-width:4; stroke-opacity:1; fill:none" points="658.57,962.521 658.458,959.705 658.123,956.907 657.566,954.145 656.792,951.435 655.805,948.796 654.611,946.244 653.218,943.794 651.636,941.463 649.872,939.265 647.94,937.213 645.851,935.322 643.618,933.603 641.256,932.067 638.779,930.723 636.203,929.58 633.545,928.646 630.821,927.926 628.048,927.424 625.244,927.144 622.427,927.088 619.614,927.256 616.823,927.647 614.072,928.259 611.379,929.087 608.76,930.126 606.231,931.37 603.81,932.812 601.511,934.441 599.348,936.247 597.336,938.22 595.487,940.346 593.812,942.613 592.323,945.005 591.029,947.508 589.938,950.106 589.056,952.782 588.39,955.52 587.944,958.303 587.72,961.112 587.72,963.93 587.944,966.739 588.39,969.521 589.056,972.259 589.938,974.935 591.029,977.533 592.323,980.036 593.812,982.429 595.487,984.695 597.336,986.822 599.348,988.794 601.511,990.601 603.81,992.23 606.231,993.671 608.76,994.915 611.379,995.954 614.072,996.782 616.823,997.394 619.614,997.785 622.427,997.953 625.244,997.897 628.048,997.617 630.821,997.116 633.545,996.395 636.203,995.461 638.779,994.318 641.256,992.974 643.618,991.438 645.851,989.719 647.94,987.828 649.872,985.777 651.636,983.579 653.218,981.247 654.611,978.798 655.805,976.245 656.792,973.606 657.566,970.896 658.123,968.134 658.458,965.336 658.57,962.521 "/>
<path clip-path="url(#clip322)" d="M1212.31 962.521 L1212.2 959.705 L1211.86 956.907 L1211.3 954.145 L1210.53 951.435 L1209.54 948.796 L1208.35 946.244 L1206.96 943.794 L1205.37 941.463 L1203.61 939.265 L1201.68 937.213 L1199.59 935.322 L1197.36 933.603 L1194.99 932.067 L1192.52 930.723 L1189.94 929.58 L1187.28 928.646 L1184.56 927.926 L1181.79 927.424 L1178.98 927.144 L1176.16 927.088 L1173.35 927.256 L1170.56 927.647 L1167.81 928.259 L1165.12 929.087 L1162.5 930.126 L1159.97 931.37 L1157.55 932.812 L1155.25 934.441 L1153.09 936.247 L1151.07 938.22 L1149.22 940.346 L1147.55 942.613 L1146.06 945.005 L1144.77 947.508 L1143.68 950.106 L1142.79 952.782 L1142.13 955.52 L1141.68 958.303 L1141.46 961.112 L1141.46 963.93 L1141.68 966.739 L1142.13 969.521 L1142.79 972.259 L1143.68 974.935 L1144.77 977.533 L1146.06 980.036 L1147.55 982.429 L1149.22 984.695 L1151.07 986.822 L1153.09 988.794 L1155.25 990.601 L1157.55 992.23 L1159.97 993.671 L1162.5 994.915 L1165.12 995.954 L1167.81 996.782 L1170.56 997.394 L1173.35 997.785 L1176.16 997.953 L1178.98 997.897 L1181.79 997.617 L1184.56 997.116 L1187.28 996.395 L1189.94 995.461 L1192.52 994.318 L1194.99 992.974 L1197.36 991.438 L1199.59 989.719 L1201.68 987.828 L1203.61 985.777 L1205.37 983.579 L1206.96 981.247 L1208.35 978.798 L1209.54 976.245 L1210.53 973.606 L1211.3 970.896 L1211.86 968.134 L1212.2 965.336 L1212.31 962.521 L1212.31 962.521  Z" fill="#e5e5e5" fill-rule="evenodd" fill-opacity="1"/>
<polyline clip-path="url(#clip322)" style="stroke:#000000; stroke-linecap:round; stroke-linejoin:round; stroke-width:4; stroke-opacity:1; fill:none" points="1212.31,962.521 1212.2,959.705 1211.86,956.907 1211.3,954.145 1210.53,951.435 1209.54,948.796 1208.35,946.244 1206.96,943.794 1205.37,941.463 1203.61,939.265 1201.68,937.213 1199.59,935.322 1197.36,933.603 1194.99,932.067 1192.52,930.723 1189.94,929.58 1187.28,928.646 1184.56,927.926 1181.79,927.424 1178.98,927.144 1176.16,927.088 1173.35,927.256 1170.56,927.647 1167.81,928.259 1165.12,929.087 1162.5,930.126 1159.97,931.37 1157.55,932.812 1155.25,934.441 1153.09,936.247 1151.07,938.22 1149.22,940.346 1147.55,942.613 1146.06,945.005 1144.77,947.508 1143.68,950.106 1142.79,952.782 1142.13,955.52 1141.68,958.303 1141.46,961.112 1141.46,963.93 1141.68,966.739 1142.13,969.521 1142.79,972.259 1143.68,974.935 1144.77,977.533 1146.06,980.036 1147.55,982.429 1149.22,984.695 1151.07,986.822 1153.09,988.794 1155.25,990.601 1157.55,992.23 1159.97,993.671 1162.5,994.915 1165.12,995.954 1167.81,996.782 1170.56,997.394 1173.35,997.785 1176.16,997.953 1178.98,997.897 1181.79,997.617 1184.56,997.116 1187.28,996.395 1189.94,995.461 1192.52,994.318 1194.99,992.974 1197.36,991.438 1199.59,989.719 1201.68,987.828 1203.61,985.777 1205.37,983.579 1206.96,981.247 1208.35,978.798 1209.54,976.245 1210.53,973.606 1211.3,970.896 1211.86,968.134 1212.2,965.336 1212.31,962.521 "/>
<path clip-path="url(#clip322)" d="M935.439 1245.54 L935.327 1242.73 L934.992 1239.93 L934.435 1237.17 L933.661 1234.46 L932.674 1231.82 L931.48 1229.26 L930.087 1226.82 L928.504 1224.48 L926.741 1222.29 L924.809 1220.23 L922.72 1218.34 L920.487 1216.62 L918.125 1215.09 L915.648 1213.74 L913.072 1212.6 L910.414 1211.67 L907.69 1210.95 L904.917 1210.45 L902.113 1210.17 L899.295 1210.11 L896.483 1210.28 L893.692 1210.67 L890.941 1211.28 L888.248 1212.11 L885.629 1213.15 L883.1 1214.39 L880.679 1215.83 L878.379 1217.46 L876.217 1219.27 L874.205 1221.24 L872.355 1223.37 L870.681 1225.63 L869.192 1228.03 L867.898 1230.53 L866.806 1233.13 L865.925 1235.8 L865.259 1238.54 L864.813 1241.32 L864.589 1244.13 L864.589 1246.95 L864.813 1249.76 L865.259 1252.54 L865.925 1255.28 L866.806 1257.96 L867.898 1260.55 L869.192 1263.06 L870.681 1265.45 L872.355 1267.72 L874.205 1269.84 L876.217 1271.82 L878.379 1273.62 L880.679 1275.25 L883.1 1276.69 L885.629 1277.94 L888.248 1278.98 L890.941 1279.8 L893.692 1280.42 L896.483 1280.81 L899.295 1280.97 L902.113 1280.92 L904.917 1280.64 L907.69 1280.14 L910.414 1279.42 L913.072 1278.48 L915.648 1277.34 L918.125 1276 L920.487 1274.46 L922.72 1272.74 L924.809 1270.85 L926.741 1268.8 L928.504 1266.6 L930.087 1264.27 L931.48 1261.82 L932.674 1259.27 L933.661 1256.63 L934.435 1253.92 L934.992 1251.16 L935.327 1248.36 L935.439 1245.54 L935.439 1245.54  Z" fill="#e5e5e5" fill-rule="evenodd" fill-opacity="1"/>
<polyline clip-path="url(#clip322)" style="stroke:#000000; stroke-linecap:round; stroke-linejoin:round; stroke-width:4; stroke-opacity:1; fill:none" points="935.439,1245.54 935.327,1242.73 934.992,1239.93 934.435,1237.17 933.661,1234.46 932.674,1231.82 931.48,1229.26 930.087,1226.82 928.504,1224.48 926.741,1222.29 924.809,1220.23 922.72,1218.34 920.487,1216.62 918.125,1215.09 915.648,1213.74 913.072,1212.6 910.414,1211.67 907.69,1210.95 904.917,1210.45 902.113,1210.17 899.295,1210.11 896.483,1210.28 893.692,1210.67 890.941,1211.28 888.248,1212.11 885.629,1213.15 883.1,1214.39 880.679,1215.83 878.379,1217.46 876.217,1219.27 874.205,1221.24 872.355,1223.37 870.681,1225.63 869.192,1228.03 867.898,1230.53 866.806,1233.13 865.925,1235.8 865.259,1238.54 864.813,1241.32 864.589,1244.13 864.589,1246.95 864.813,1249.76 865.259,1252.54 865.925,1255.28 866.806,1257.96 867.898,1260.55 869.192,1263.06 870.681,1265.45 872.355,1267.72 874.205,1269.84 876.217,1271.82 878.379,1273.62 880.679,1275.25 883.1,1276.69 885.629,1277.94 888.248,1278.98 890.941,1279.8 893.692,1280.42 896.483,1280.81 899.295,1280.97 902.113,1280.92 904.917,1280.64 907.69,1280.14 910.414,1279.42 913.072,1278.48 915.648,1277.34 918.125,1276 920.487,1274.46 922.72,1272.74 924.809,1270.85 926.741,1268.8 928.504,1266.6 930.087,1264.27 931.48,1261.82 932.674,1259.27 933.661,1256.63 934.435,1253.92 934.992,1251.16 935.327,1248.36 935.439,1245.54 "/>
<path clip-path="url(#clip322)" d="M935.439 1528.56 L935.327 1525.75 L934.992 1522.95 L934.435 1520.19 L933.661 1517.48 L932.674 1514.84 L931.48 1512.29 L930.087 1509.84 L928.504 1507.51 L926.741 1505.31 L924.809 1503.26 L922.72 1501.37 L920.487 1499.65 L918.125 1498.11 L915.648 1496.77 L913.072 1495.62 L910.414 1494.69 L907.69 1493.97 L904.917 1493.47 L902.113 1493.19 L899.295 1493.13 L896.483 1493.3 L893.692 1493.69 L890.941 1494.3 L888.248 1495.13 L885.629 1496.17 L883.1 1497.41 L880.679 1498.85 L878.379 1500.48 L876.217 1502.29 L874.205 1504.26 L872.355 1506.39 L870.681 1508.66 L869.192 1511.05 L867.898 1513.55 L866.806 1516.15 L865.925 1518.83 L865.259 1521.56 L864.813 1524.35 L864.589 1527.15 L864.589 1529.97 L864.813 1532.78 L865.259 1535.56 L865.925 1538.3 L866.806 1540.98 L867.898 1543.58 L869.192 1546.08 L870.681 1548.47 L872.355 1550.74 L874.205 1552.86 L876.217 1554.84 L878.379 1556.64 L880.679 1558.27 L883.1 1559.71 L885.629 1560.96 L888.248 1562 L890.941 1562.83 L893.692 1563.44 L896.483 1563.83 L899.295 1564 L902.113 1563.94 L904.917 1563.66 L907.69 1563.16 L910.414 1562.44 L913.072 1561.5 L915.648 1560.36 L918.125 1559.02 L920.487 1557.48 L922.72 1555.76 L924.809 1553.87 L926.741 1551.82 L928.504 1549.62 L930.087 1547.29 L931.48 1544.84 L932.674 1542.29 L933.661 1539.65 L934.435 1536.94 L934.992 1534.18 L935.327 1531.38 L935.439 1528.56 L935.439 1528.56  Z" fill="#e5e5e5" fill-rule="evenodd" fill-opacity="1"/>
<polyline clip-path="url(#clip322)" style="stroke:#000000; stroke-linecap:round; stroke-linejoin:round; stroke-width:4; stroke-opacity:1; fill:none" points="935.439,1528.56 935.327,1525.75 934.992,1522.95 934.435,1520.19 933.661,1517.48 932.674,1514.84 931.48,1512.29 930.087,1509.84 928.504,1507.51 926.741,1505.31 924.809,1503.26 922.72,1501.37 920.487,1499.65 918.125,1498.11 915.648,1496.77 913.072,1495.62 910.414,1494.69 907.69,1493.97 904.917,1493.47 902.113,1493.19 899.295,1493.13 896.483,1493.3 893.692,1493.69 890.941,1494.3 888.248,1495.13 885.629,1496.17 883.1,1497.41 880.679,1498.85 878.379,1500.48 876.217,1502.29 874.205,1504.26 872.355,1506.39 870.681,1508.66 869.192,1511.05 867.898,1513.55 866.806,1516.15 865.925,1518.83 865.259,1521.56 864.813,1524.35 864.589,1527.15 864.589,1529.97 864.813,1532.78 865.259,1535.56 865.925,1538.3 866.806,1540.98 867.898,1543.58 869.192,1546.08 870.681,1548.47 872.355,1550.74 874.205,1552.86 876.217,1554.84 878.379,1556.64 880.679,1558.27 883.1,1559.71 885.629,1560.96 888.248,1562 890.941,1562.83 893.692,1563.44 896.483,1563.83 899.295,1564 902.113,1563.94 904.917,1563.66 907.69,1563.16 910.414,1562.44 913.072,1561.5 915.648,1560.36 918.125,1559.02 920.487,1557.48 922.72,1555.76 924.809,1553.87 926.741,1551.82 928.504,1549.62 930.087,1547.29 931.48,1544.84 932.674,1542.29 933.661,1539.65 934.435,1536.94 934.992,1534.18 935.327,1531.38 935.439,1528.56 "/>
<path clip-path="url(#clip322)" d="M935.439 1811.58 L935.327 1808.77 L934.992 1805.97 L934.435 1803.21 L933.661 1800.5 L932.674 1797.86 L931.48 1795.31 L930.087 1792.86 L928.504 1790.53 L926.741 1788.33 L924.809 1786.28 L922.72 1784.39 L920.487 1782.67 L918.125 1781.13 L915.648 1779.79 L913.072 1778.64 L910.414 1777.71 L907.69 1776.99 L904.917 1776.49 L902.113 1776.21 L899.295 1776.15 L896.483 1776.32 L893.692 1776.71 L890.941 1777.32 L888.248 1778.15 L885.629 1779.19 L883.1 1780.43 L880.679 1781.88 L878.379 1783.5 L876.217 1785.31 L874.205 1787.28 L872.355 1789.41 L870.681 1791.68 L869.192 1794.07 L867.898 1796.57 L866.806 1799.17 L865.925 1801.85 L865.259 1804.58 L864.813 1807.37 L864.589 1810.18 L864.589 1812.99 L864.813 1815.8 L865.259 1818.59 L865.925 1821.32 L866.806 1824 L867.898 1826.6 L869.192 1829.1 L870.681 1831.49 L872.355 1833.76 L874.205 1835.89 L876.217 1837.86 L878.379 1839.66 L880.679 1841.29 L883.1 1842.74 L885.629 1843.98 L888.248 1845.02 L890.941 1845.85 L893.692 1846.46 L896.483 1846.85 L899.295 1847.02 L902.113 1846.96 L904.917 1846.68 L907.69 1846.18 L910.414 1845.46 L913.072 1844.53 L915.648 1843.38 L918.125 1842.04 L920.487 1840.5 L922.72 1838.78 L924.809 1836.89 L926.741 1834.84 L928.504 1832.64 L930.087 1830.31 L931.48 1827.86 L932.674 1825.31 L933.661 1822.67 L934.435 1819.96 L934.992 1817.2 L935.327 1814.4 L935.439 1811.58 L935.439 1811.58  Z" fill="#e5e5e5" fill-rule="evenodd" fill-opacity="1"/>
<polyline clip-path="url(#clip322)" style="stroke:#000000; stroke-linecap:round; stroke-linejoin:round; stroke-width:4; stroke-opacity:1; fill:none" points="935.439,1811.58 935.327,1808.77 934.992,1805.97 934.435,1803.21 933.661,1800.5 932.674,1797.86 931.48,1795.31 930.087,1792.86 928.504,1790.53 926.741,1788.33 924.809,1786.28 922.72,1784.39 920.487,1782.67 918.125,1781.13 915.648,1779.79 913.072,1778.64 910.414,1777.71 907.69,1776.99 904.917,1776.49 902.113,1776.21 899.295,1776.15 896.483,1776.32 893.692,1776.71 890.941,1777.32 888.248,1778.15 885.629,1779.19 883.1,1780.43 880.679,1781.88 878.379,1783.5 876.217,1785.31 874.205,1787.28 872.355,1789.41 870.681,1791.68 869.192,1794.07 867.898,1796.57 866.806,1799.17 865.925,1801.85 865.259,1804.58 864.813,1807.37 864.589,1810.18 864.589,1812.99 864.813,1815.8 865.259,1818.59 865.925,1821.32 866.806,1824 867.898,1826.6 869.192,1829.1 870.681,1831.49 872.355,1833.76 874.205,1835.89 876.217,1837.86 878.379,1839.66 880.679,1841.29 883.1,1842.74 885.629,1843.98 888.248,1845.02 890.941,1845.85 893.692,1846.46 896.483,1846.85 899.295,1847.02 902.113,1846.96 904.917,1846.68 907.69,1846.18 910.414,1845.46 913.072,1844.53 915.648,1843.38 918.125,1842.04 920.487,1840.5 922.72,1838.78 924.809,1836.89 926.741,1834.84 928.504,1832.64 930.087,1830.31 931.48,1827.86 932.674,1825.31 933.661,1822.67 934.435,1819.96 934.992,1817.2 935.327,1814.4 935.439,1811.58 "/>
<path clip-path="url(#clip322)" d="M1007.43 2094.61 L1007.09 2086.07 L1006.08 2077.59 L1004.39 2069.22 L1002.04 2061 L999.048 2053 L995.43 2045.26 L991.208 2037.84 L986.409 2030.77 L981.064 2024.11 L975.207 2017.89 L968.874 2012.16 L962.105 2006.95 L954.944 2002.29 L947.436 1998.21 L939.628 1994.75 L931.569 1991.92 L923.31 1989.73 L914.905 1988.21 L906.405 1987.37 L897.864 1987.2 L889.337 1987.71 L880.877 1988.89 L872.539 1990.74 L864.374 1993.25 L856.434 1996.4 L848.769 2000.18 L841.429 2004.55 L834.459 2009.48 L827.903 2014.96 L821.803 2020.94 L816.197 2027.39 L811.121 2034.26 L806.608 2041.51 L802.684 2049.1 L799.376 2056.97 L796.704 2065.09 L794.685 2073.39 L793.332 2081.82 L792.653 2090.34 L792.653 2098.88 L793.332 2107.39 L794.685 2115.83 L796.704 2124.13 L799.376 2132.24 L802.684 2140.12 L806.608 2147.7 L811.121 2154.96 L816.197 2161.83 L821.803 2168.27 L827.903 2174.25 L834.459 2179.73 L841.429 2184.67 L848.769 2189.04 L856.434 2192.81 L864.374 2195.96 L872.539 2198.47 L880.877 2200.32 L889.337 2201.51 L897.864 2202.02 L906.405 2201.85 L914.905 2201 L923.31 2199.48 L931.569 2197.3 L939.628 2194.46 L947.436 2191 L954.944 2186.92 L962.105 2182.27 L968.874 2177.06 L975.207 2171.32 L981.064 2165.11 L986.409 2158.44 L991.208 2151.38 L995.43 2143.95 L999.048 2136.21 L1002.04 2128.21 L1004.39 2120 L1006.08 2111.62 L1007.09 2103.14 L1007.43 2094.61 L1007.43 2094.61  Z" fill="#e5e5e5" fill-rule="evenodd" fill-opacity="1"/>
<polyline clip-path="url(#clip322)" style="stroke:#000000; stroke-linecap:round; stroke-linejoin:round; stroke-width:4; stroke-opacity:1; fill:none" points="1007.43,2094.61 1007.09,2086.07 1006.08,2077.59 1004.39,2069.22 1002.04,2061 999.048,2053 995.43,2045.26 991.208,2037.84 986.409,2030.77 981.064,2024.11 975.207,2017.89 968.874,2012.16 962.105,2006.95 954.944,2002.29 947.436,1998.21 939.628,1994.75 931.569,1991.92 923.31,1989.73 914.905,1988.21 906.405,1987.37 897.864,1987.2 889.337,1987.71 880.877,1988.89 872.539,1990.74 864.374,1993.25 856.434,1996.4 848.769,2000.18 841.429,2004.55 834.459,2009.48 827.903,2014.96 821.803,2020.94 816.197,2027.39 811.121,2034.26 806.608,2041.51 802.684,2049.1 799.376,2056.97 796.704,2065.09 794.685,2073.39 793.332,2081.82 792.653,2090.34 792.653,2098.88 793.332,2107.39 794.685,2115.83 796.704,2124.13 799.376,2132.24 802.684,2140.12 806.608,2147.7 811.121,2154.96 816.197,2161.83 821.803,2168.27 827.903,2174.25 834.459,2179.73 841.429,2184.67 848.769,2189.04 856.434,2192.81 864.374,2195.96 872.539,2198.47 880.877,2200.32 889.337,2201.51 897.864,2202.02 906.405,2201.85 914.905,2201 923.31,2199.48 931.569,2197.3 939.628,2194.46 947.436,2191 954.944,2186.92 962.105,2182.27 968.874,2177.06 975.207,2171.32 981.064,2165.11 986.409,2158.44 991.208,2151.38 995.43,2143.95 999.048,2136.21 1002.04,2128.21 1004.39,2120 1006.08,2111.62 1007.09,2103.14 1007.43,2094.61 "/>
<circle clip-path="url(#clip322)" style="fill:#e5e5e5; stroke:none; fill-opacity:0" cx="290.889" cy="433.394" r="2"/>
<circle clip-path="url(#clip322)" style="fill:#e5e5e5; stroke:none; fill-opacity:0" cx="696.963" cy="433.394" r="2"/>
<circle clip-path="url(#clip322)" style="fill:#e5e5e5; stroke:none; fill-opacity:0" cx="1103.04" cy="433.394" r="2"/>
<circle clip-path="url(#clip322)" style="fill:#e5e5e5; stroke:none; fill-opacity:0" cx="1509.11" cy="433.394" r="2"/>
<circle clip-path="url(#clip322)" style="fill:#e5e5e5; stroke:none; fill-opacity:0" cx="623.131" cy="962.521" r="2"/>
<circle clip-path="url(#clip322)" style="fill:#e5e5e5; stroke:none; fill-opacity:0" cx="1176.87" cy="962.521" r="2"/>
<circle clip-path="url(#clip322)" style="fill:#e5e5e5; stroke:none; fill-opacity:0" cx="900" cy="1245.54" r="2"/>
<circle clip-path="url(#clip322)" style="fill:#e5e5e5; stroke:none; fill-opacity:0" cx="900" cy="1528.56" r="2"/>
<circle clip-path="url(#clip322)" style="fill:#e5e5e5; stroke:none; fill-opacity:0" cx="900" cy="1811.58" r="2"/>
<circle clip-path="url(#clip322)" style="fill:#e5e5e5; stroke:none; fill-opacity:0" cx="900" cy="2094.61" r="2"/>
<path clip-path="url(#clip320)" d="M265.657 416.597 L265.657 432.829 L273.007 432.829 Q277.087 432.829 279.315 430.717 Q281.543 428.605 281.543 424.699 Q281.543 420.821 279.315 418.709 Q277.087 416.597 273.007 416.597 L265.657 416.597 M259.812 411.794 L273.007 411.794 Q280.269 411.794 283.973 415.092 Q287.706 418.362 287.706 424.699 Q287.706 431.093 283.973 434.363 Q280.269 437.633 273.007 437.633 L265.657 437.633 L265.657 454.994 L259.812 454.994 L259.812 411.794 Z" fill="#000000" fill-rule="nonzero" fill-opacity="1" /><path clip-path="url(#clip320)" d="M297.081 450.075 L306.629 450.075 L306.629 417.118 L296.242 419.201 L296.242 413.877 L306.571 411.794 L312.416 411.794 L312.416 450.075 L321.965 450.075 L321.965 454.994 L297.081 454.994 L297.081 450.075 Z" fill="#000000" fill-rule="nonzero" fill-opacity="1" /><path clip-path="url(#clip320)" d="M671.963 416.597 L671.963 432.829 L679.313 432.829 Q683.392 432.829 685.62 430.717 Q687.848 428.605 687.848 424.699 Q687.848 420.821 685.62 418.709 Q683.392 416.597 679.313 416.597 L671.963 416.597 M666.118 411.794 L679.313 411.794 Q686.575 411.794 690.279 415.092 Q694.012 418.362 694.012 424.699 Q694.012 431.093 690.279 434.363 Q686.575 437.633 679.313 437.633 L671.963 437.633 L671.963 454.994 L666.118 454.994 L666.118 411.794 Z" fill="#000000" fill-rule="nonzero" fill-opacity="1" /><path clip-path="url(#clip320)" d="M707.408 450.075 L727.808 450.075 L727.808 454.994 L700.377 454.994 L700.377 450.075 Q703.705 446.631 709.434 440.844 Q715.192 435.028 716.668 433.35 Q719.474 430.196 720.574 428.026 Q721.702 425.827 721.702 423.715 Q721.702 420.272 719.272 418.101 Q716.87 415.931 712.993 415.931 Q710.244 415.931 707.177 416.886 Q704.139 417.841 700.667 419.78 L700.667 413.877 Q704.197 412.459 707.264 411.736 Q710.331 411.012 712.877 411.012 Q719.59 411.012 723.583 414.369 Q727.576 417.725 727.576 423.339 Q727.576 426.001 726.563 428.402 Q725.58 430.775 722.947 434.016 Q722.223 434.855 718.346 438.877 Q714.469 442.87 707.408 450.075 Z" fill="#000000" fill-rule="nonzero" fill-opacity="1" /><path clip-path="url(#clip320)" d="M1077.44 416.597 L1077.44 432.829 L1084.79 432.829 Q1088.87 432.829 1091.1 430.717 Q1093.33 428.605 1093.33 424.699 Q1093.33 420.821 1091.1 418.709 Q1088.87 416.597 1084.79 416.597 L1077.44 416.597 M1071.6 411.794 L1084.79 411.794 Q1092.06 411.794 1095.76 415.092 Q1099.49 418.362 1099.49 424.699 Q1099.49 431.093 1095.76 434.363 Q1092.06 437.633 1084.79 437.633 L1077.44 437.633 L1077.44 454.994 L1071.6 454.994 L1071.6 411.794 Z" fill="#000000" fill-rule="nonzero" fill-opacity="1" /><path clip-path="url(#clip320)" d="M1125.56 431.701 Q1129.76 432.598 1132.1 435.434 Q1134.48 438.269 1134.48 442.436 Q1134.48 448.83 1130.08 452.332 Q1125.68 455.833 1117.58 455.833 Q1114.86 455.833 1111.96 455.283 Q1109.1 454.762 1106.03 453.692 L1106.03 448.049 Q1108.46 449.467 1111.36 450.19 Q1114.25 450.914 1117.4 450.914 Q1122.9 450.914 1125.77 448.744 Q1128.66 446.574 1128.66 442.436 Q1128.66 438.616 1125.97 436.475 Q1123.31 434.305 1118.53 434.305 L1113.5 434.305 L1113.5 429.502 L1118.76 429.502 Q1123.07 429.502 1125.36 427.795 Q1127.65 426.059 1127.65 422.818 Q1127.65 419.49 1125.27 417.725 Q1122.93 415.931 1118.53 415.931 Q1116.13 415.931 1113.38 416.452 Q1110.63 416.973 1107.33 418.073 L1107.33 412.864 Q1110.66 411.938 1113.56 411.475 Q1116.48 411.012 1119.05 411.012 Q1125.71 411.012 1129.59 414.051 Q1133.46 417.06 1133.46 422.21 Q1133.46 425.798 1131.41 428.287 Q1129.35 430.746 1125.56 431.701 Z" fill="#000000" fill-rule="nonzero" fill-opacity="1" /><path clip-path="url(#clip320)" d="M1482.81 416.597 L1482.81 432.829 L1490.16 432.829 Q1494.24 432.829 1496.47 430.717 Q1498.69 428.605 1498.69 424.699 Q1498.69 420.821 1496.47 418.709 Q1494.24 416.597 1490.16 416.597 L1482.81 416.597 M1476.96 411.794 L1490.16 411.794 Q1497.42 411.794 1501.13 415.092 Q1504.86 418.362 1504.86 424.699 Q1504.86 431.093 1501.13 434.363 Q1497.42 437.633 1490.16 437.633 L1482.81 437.633 L1482.81 454.994 L1476.96 454.994 L1476.96 411.794 Z" fill="#000000" fill-rule="nonzero" fill-opacity="1" /><path clip-path="url(#clip320)" d="M1529.28 416.886 L1514.52 439.947 L1529.28 439.947 L1529.28 416.886 M1527.75 411.794 L1535.1 411.794 L1535.1 439.947 L1541.26 439.947 L1541.26 444.808 L1535.1 444.808 L1535.1 454.994 L1529.28 454.994 L1529.28 444.808 L1509.78 444.808 L1509.78 439.166 L1527.75 411.794 Z" fill="#000000" fill-rule="nonzero" fill-opacity="1" /><path clip-path="url(#clip320)" d="M610.978 940.921 L633.924 940.921 L633.924 945.84 L616.331 945.84 L616.331 956.43 Q617.605 955.996 618.878 955.793 Q620.151 955.562 621.424 955.562 Q628.658 955.562 632.882 959.526 Q637.107 963.49 637.107 970.261 Q637.107 977.234 632.767 981.111 Q628.426 984.96 620.527 984.96 Q617.807 984.96 614.972 984.497 Q612.165 984.034 609.156 983.108 L609.156 977.234 Q611.76 978.652 614.537 979.346 Q617.315 980.041 620.411 980.041 Q625.417 980.041 628.34 977.408 Q631.262 974.775 631.262 970.261 Q631.262 965.747 628.34 963.114 Q625.417 960.481 620.411 960.481 Q618.068 960.481 615.724 961.002 Q613.409 961.522 610.978 962.622 L610.978 940.921 Z" fill="#000000" fill-rule="nonzero" fill-opacity="1" /><path clip-path="url(#clip320)" d="M1177.38 960.191 Q1173.44 960.191 1171.13 962.882 Q1168.84 965.573 1168.84 970.261 Q1168.84 974.919 1171.13 977.639 Q1173.44 980.33 1177.38 980.33 Q1181.31 980.33 1183.6 977.639 Q1185.91 974.919 1185.91 970.261 Q1185.91 965.573 1183.6 962.882 Q1181.31 960.191 1177.38 960.191 M1188.98 941.875 L1188.98 947.2 Q1186.78 946.158 1184.52 945.608 Q1182.29 945.058 1180.1 945.058 Q1174.31 945.058 1171.24 948.965 Q1168.2 952.871 1167.77 960.77 Q1169.48 958.253 1172.05 956.922 Q1174.63 955.562 1177.72 955.562 Q1184.23 955.562 1187.99 959.526 Q1191.78 963.461 1191.78 970.261 Q1191.78 976.916 1187.85 980.938 Q1183.91 984.96 1177.38 984.96 Q1169.88 984.96 1165.92 979.231 Q1161.95 973.473 1161.95 962.564 Q1161.95 952.321 1166.81 946.245 Q1171.67 940.139 1179.86 940.139 Q1182.06 940.139 1184.29 940.573 Q1186.55 941.007 1188.98 941.875 Z" fill="#000000" fill-rule="nonzero" fill-opacity="1" /><path clip-path="url(#clip320)" d="M886.111 1223.94 L913.889 1223.94 L913.889 1226.43 L898.206 1267.14 L892.101 1267.14 L906.858 1228.86 L886.111 1228.86 L886.111 1223.94 Z" fill="#000000" fill-rule="nonzero" fill-opacity="1" /><path clip-path="url(#clip320)" d="M900 1529.65 Q895.833 1529.65 893.432 1531.88 Q891.059 1534.1 891.059 1538.01 Q891.059 1541.92 893.432 1544.15 Q895.833 1546.37 900 1546.37 Q904.167 1546.37 906.568 1544.15 Q908.97 1541.89 908.97 1538.01 Q908.97 1534.1 906.568 1531.88 Q904.196 1529.65 900 1529.65 M894.155 1527.16 Q890.394 1526.23 888.281 1523.66 Q886.198 1521.08 886.198 1517.38 Q886.198 1512.2 889.873 1509.19 Q893.576 1506.18 900 1506.18 Q906.453 1506.18 910.127 1509.19 Q913.802 1512.2 913.802 1517.38 Q913.802 1521.08 911.69 1523.66 Q909.606 1526.23 905.874 1527.16 Q910.098 1528.14 912.442 1531.01 Q914.815 1533.87 914.815 1538.01 Q914.815 1544.29 910.966 1547.65 Q907.147 1551 900 1551 Q892.853 1551 889.005 1547.65 Q885.185 1544.29 885.185 1538.01 Q885.185 1533.87 887.558 1531.01 Q889.931 1528.14 894.155 1527.16 M892.014 1517.93 Q892.014 1521.29 894.097 1523.17 Q896.21 1525.05 900 1525.05 Q903.762 1525.05 905.874 1523.17 Q908.015 1521.29 908.015 1517.93 Q908.015 1514.57 905.874 1512.69 Q903.762 1510.81 900 1510.81 Q896.21 1510.81 894.097 1512.69 Q892.014 1514.57 892.014 1517.93 Z" fill="#000000" fill-rule="nonzero" fill-opacity="1" /><path clip-path="url(#clip320)" d="M887.876 1832.29 L887.876 1826.96 Q890.075 1828.01 892.332 1828.56 Q894.589 1829.11 896.759 1829.11 Q902.546 1829.11 905.584 1825.23 Q908.652 1821.32 909.086 1813.39 Q907.407 1815.88 904.832 1817.21 Q902.257 1818.54 899.132 1818.54 Q892.651 1818.54 888.86 1814.64 Q885.098 1810.7 885.098 1803.9 Q885.098 1797.25 889.034 1793.23 Q892.969 1789.2 899.508 1789.2 Q907.002 1789.2 910.937 1794.96 Q914.902 1800.69 914.902 1811.63 Q914.902 1821.84 910.04 1827.95 Q905.208 1834.02 897.02 1834.02 Q894.821 1834.02 892.564 1833.59 Q890.307 1833.16 887.876 1832.29 M899.508 1813.97 Q903.443 1813.97 905.729 1811.28 Q908.044 1808.59 908.044 1803.9 Q908.044 1799.24 905.729 1796.55 Q903.443 1793.83 899.508 1793.83 Q895.573 1793.83 893.258 1796.55 Q890.972 1799.24 890.972 1803.9 Q890.972 1808.59 893.258 1811.28 Q895.573 1813.97 899.508 1813.97 Z" fill="#000000" fill-rule="nonzero" fill-opacity="1" /><path clip-path="url(#clip320)" d="M856.424 2078.1 L841.667 2101.16 L856.424 2101.16 L856.424 2078.1 M854.89 2073.01 L862.24 2073.01 L862.24 2101.16 L868.403 2101.16 L868.403 2106.02 L862.24 2106.02 L862.24 2116.21 L856.424 2116.21 L856.424 2106.02 L836.922 2106.02 L836.922 2100.38 L854.89 2073.01 Z" fill="#000000" fill-rule="nonzero" fill-opacity="1" /><path clip-path="url(#clip320)" d="M898.032 2095.95 Q899.913 2096.59 901.678 2098.67 Q903.472 2100.76 905.266 2104.4 L911.198 2116.21 L904.919 2116.21 L899.392 2105.12 Q897.251 2100.78 895.226 2099.37 Q893.229 2097.95 889.757 2097.95 L883.391 2097.95 L883.391 2116.21 L877.546 2116.21 L877.546 2073.01 L890.741 2073.01 Q898.148 2073.01 901.794 2076.1 Q905.44 2079.2 905.44 2085.45 Q905.44 2089.53 903.53 2092.22 Q901.649 2094.91 898.032 2095.95 M883.391 2077.81 L883.391 2093.15 L890.741 2093.15 Q894.965 2093.15 897.106 2091.21 Q899.277 2089.24 899.277 2085.45 Q899.277 2081.66 897.106 2079.75 Q894.965 2077.81 890.741 2077.81 L883.391 2077.81 Z" fill="#000000" fill-rule="nonzero" fill-opacity="1" /><path clip-path="url(#clip320)" d="M918.721 2073.01 L924.566 2073.01 L924.566 2116.21 L918.721 2116.21 L918.721 2073.01 Z" fill="#000000" fill-rule="nonzero" fill-opacity="1" /><path clip-path="url(#clip320)" d="M936.198 2073.01 L942.043 2073.01 L942.043 2111.29 L963.078 2111.29 L963.078 2116.21 L936.198 2116.21 L936.198 2073.01 Z" fill="#000000" fill-rule="nonzero" fill-opacity="1" /></svg>
