<?xml version="1.0" encoding="utf-8"?>
<svg xmlns="http://www.w3.org/2000/svg" xmlns:xlink="http://www.w3.org/1999/xlink" width="450" height="724" viewBox="0 0 1800 2896">
<defs>
  <clipPath id="clip820">
    <rect x="0" y="0" width="1800" height="2896"/>
  </clipPath>
</defs>
<path clip-path="url(#clip820)" d="M0 2896 L1800 2896 L1800 0 L0 0  Z" fill="#ffffff" fill-rule="evenodd" fill-opacity="1"/>
<defs>
  <clipPath id="clip821">
    <rect x="579" y="289" width="1800" height="2028"/>
  </clipPath>
</defs>
<path clip-path="url(#clip820)" d="M47.2441 2808.96 L1752.76 2808.96 L1752.76 87.036 L47.2441 87.036  Z" fill="#ffffff" fill-rule="evenodd" fill-opacity="1"/>
<defs>
  <clipPath id="clip822">
    <rect x="47" y="87" width="1707" height="2723"/>
  </clipPath>
</defs>
<polyline clip-path="url(#clip822)" style="stroke:#000000; stroke-linecap:round; stroke-linejoin:round; stroke-width:4; stroke-opacity:1; fill:none" points="290.889,475.883 623.131,1005.01 "/>
<polyline clip-path="url(#clip822)" style="stroke:#000000; stroke-linecap:round; stroke-linejoin:round; stroke-width:4; stroke-opacity:1; fill:none" points="290.889,475.883 623.131,1854.07 "/>
<polyline clip-path="url(#clip822)" style="stroke:#000000; stroke-linecap:round; stroke-linejoin:round; stroke-width:4; stroke-opacity:1; fill:none" points="696.963,475.883 623.131,1005.01 "/>
<polyline clip-path="url(#clip822)" style="stroke:#000000; stroke-linecap:round; stroke-linejoin:round; stroke-width:4; stroke-opacity:1; fill:none" points="1103.04,475.883 1176.87,1005.01 "/>
<polyline clip-path="url(#clip822)" style="stroke:#000000; stroke-linecap:round; stroke-linejoin:round; stroke-width:4; stroke-opacity:1; fill:none" points="1509.11,475.883 1176.87,1005.01 "/>
<polyline clip-path="url(#clip822)" style="stroke:#000000; stroke-linecap:round; stroke-linejoin:round; stroke-width:4; stroke-opacity:1; fill:none" points="623.131,1005.01 807.71,1288.03 "/>
<polyline clip-path="url(#clip822)" style="stroke:#000000; stroke-linecap:round; stroke-linejoin:round; stroke-width:4; stroke-opacity:1; fill:none" points="623.131,1005.01 992.29,1288.03 "/>
<polyline clip-path="url(#clip822)" style="stroke:#000000; stroke-linecap:round; stroke-linejoin:round; stroke-width:4; stroke-opacity:1; fill:none" points="1176.87,1005.01 807.71,1288.03 "/>
<polyline clip-path="url(#clip822)" style="stroke:#000000; stroke-linecap:round; stroke-linejoin:round; stroke-width:4; stroke-opacity:1; fill:none" points="1176.87,1005.01 992.29,1288.03 "/>
<polyline clip-path="url(#clip822)" style="stroke:#000000; stroke-linecap:round; stroke-linejoin:round; stroke-width:4; stroke-opacity:1; fill:none" points="807.71,1288.03 900,1571.05 "/>
<polyline clip-path="url(#clip822)" style="stroke:#000000; stroke-linecap:round; stroke-linejoin:round; stroke-width:4; stroke-opacity:1; fill:none" points="992.29,1288.03 900,1571.05 "/>
<polyline clip-path="url(#clip822)" style="stroke:#000000; stroke-linecap:round; stroke-linejoin:round; stroke-width:4; stroke-opacity:1; fill:none" points="900,1571.05 623.131,1854.07 "/>
<polyline clip-path="url(#clip822)" style="stroke:#000000; stroke-linecap:round; stroke-linejoin:round; stroke-width:4; stroke-opacity:1; fill:none" points="623.131,1854.07 623.131,2137.1 "/>
<polyline clip-path="url(#clip822)" style="stroke:#000000; stroke-linecap:round; stroke-linejoin:round; stroke-width:4; stroke-opacity:1; fill:none" points="623.131,2137.1 623.131,2420.12 "/>
<path clip-path="url(#clip822)" d="M347.45 475.883 L347.271 471.389 L346.736 466.924 L345.848 462.515 L344.612 458.191 L343.036 453.978 L341.131 449.904 L338.908 445.995 L336.382 442.274 L333.568 438.766 L330.484 435.492 L327.15 432.474 L323.586 429.73 L319.816 427.279 L315.863 425.134 L311.752 423.31 L307.509 421.819 L303.161 420.669 L298.736 419.869 L294.261 419.422 L289.764 419.333 L285.275 419.601 L280.821 420.225 L276.431 421.201 L272.132 422.522 L267.952 424.181 L263.916 426.167 L260.052 428.467 L256.382 431.067 L252.93 433.95 L249.719 437.098 L246.768 440.492 L244.095 444.109 L241.719 447.927 L239.653 451.922 L237.911 456.069 L236.505 460.341 L235.442 464.71 L234.729 469.151 L234.372 473.634 L234.372 478.132 L234.729 482.615 L235.442 487.055 L236.505 491.425 L237.911 495.697 L239.653 499.843 L241.719 503.838 L244.095 507.656 L246.768 511.274 L249.719 514.667 L252.93 517.816 L256.382 520.699 L260.052 523.299 L263.916 525.599 L267.952 527.585 L272.132 529.244 L276.431 530.565 L280.821 531.541 L285.275 532.165 L289.764 532.433 L294.261 532.344 L298.736 531.897 L303.161 531.097 L307.509 529.947 L311.752 528.456 L315.863 526.632 L319.816 524.487 L323.586 522.035 L327.15 519.292 L330.484 516.273 L333.568 513 L336.382 509.492 L338.908 505.771 L341.131 501.861 L343.036 497.787 L344.612 493.575 L345.848 489.251 L346.736 484.842 L347.271 480.377 L347.45 475.883 L347.45 475.883  Z" fill="#c721dd" fill-rule="evenodd" fill-opacity="1"/>
<polyline clip-path="url(#clip822)" style="stroke:#000000; stroke-linecap:round; stroke-linejoin:round; stroke-width:4; stroke-opacity:1; fill:none" points="347.45,475.883 347.271,471.389 346.736,466.924 345.848,462.515 344.612,458.191 343.036,453.978 341.131,449.904 338.908,445.995 336.382,442.274 333.568,438.766 330.484,435.492 327.15,432.474 323.586,429.73 319.816,427.279 315.863,425.134 311.752,423.31 307.509,421.819 303.161,420.669 298.736,419.869 294.261,419.422 289.764,419.333 285.275,419.601 280.821,420.225 276.431,421.201 272.132,422.522 267.952,424.181 263.916,426.167 260.052,428.467 256.382,431.067 252.93,433.95 249.719,437.098 246.768,440.492 244.095,444.109 241.719,447.927 239.653,451.922 237.911,456.069 236.505,460.341 235.442,464.71 234.729,469.151 234.372,473.634 234.372,478.132 234.729,482.615 235.442,487.055 236.505,491.425 237.911,495.697 239.653,499.843 241.719,503.838 244.095,507.656 246.768,511.274 249.719,514.667 252.93,517.816 256.382,520.699 260.052,523.299 263.916,525.599 267.952,527.585 272.132,529.244 276.431,530.565 280.821,531.541 285.275,532.165 289.764,532.433 294.261,532.344 298.736,531.897 303.161,531.097 307.509,529.947 311.752,528.456 315.863,526.632 319.816,524.487 323.586,522.035 327.15,519.292 330.484,516.273 333.568,513 336.382,509.492 338.908,505.771 341.131,501.861 343.036,497.787 344.612,493.575 345.848,489.251 346.736,484.842 347.271,480.377 347.45,475.883 "/>
<path clip-path="url(#clip822)" d="M753.524 475.883 L753.345 471.389 L752.81 466.924 L751.922 462.515 L750.686 458.191 L749.11 453.978 L747.205 449.904 L744.982 445.995 L742.456 442.274 L739.642 438.766 L736.558 435.492 L733.224 432.474 L729.661 429.73 L725.89 427.279 L721.937 425.134 L717.826 423.31 L713.583 421.819 L709.235 420.669 L704.81 419.869 L700.335 419.422 L695.838 419.333 L691.349 419.601 L686.895 420.225 L682.505 421.201 L678.206 422.522 L674.026 424.181 L669.991 426.167 L666.126 428.467 L662.456 431.067 L659.005 433.95 L655.793 437.098 L652.842 440.492 L650.169 444.109 L647.793 447.927 L645.727 451.922 L643.986 456.069 L642.579 460.341 L641.516 464.71 L640.804 469.151 L640.446 473.634 L640.446 478.132 L640.804 482.615 L641.516 487.055 L642.579 491.425 L643.986 495.697 L645.727 499.843 L647.793 503.838 L650.169 507.656 L652.842 511.274 L655.793 514.667 L659.005 517.816 L662.456 520.699 L666.126 523.299 L669.991 525.599 L674.026 527.585 L678.206 529.244 L682.505 530.565 L686.895 531.541 L691.349 532.165 L695.838 532.433 L700.335 532.344 L704.81 531.897 L709.235 531.097 L713.583 529.947 L717.826 528.456 L721.937 526.632 L725.89 524.487 L729.661 522.035 L733.224 519.292 L736.558 516.273 L739.642 513 L742.456 509.492 L744.982 505.771 L747.205 501.861 L749.11 497.787 L750.686 493.575 L751.922 489.251 L752.81 484.842 L753.345 480.377 L753.524 475.883 L753.524 475.883  Z" fill="#d14a00" fill-rule="evenodd" fill-opacity="1"/>
<polyline clip-path="url(#clip822)" style="stroke:#000000; stroke-linecap:round; stroke-linejoin:round; stroke-width:4; stroke-opacity:1; fill:none" points="753.524,475.883 753.345,471.389 752.81,466.924 751.922,462.515 750.686,458.191 749.11,453.978 747.205,449.904 744.982,445.995 742.456,442.274 739.642,438.766 736.558,435.492 733.224,432.474 729.661,429.73 725.89,427.279 721.937,425.134 717.826,423.31 713.583,421.819 709.235,420.669 704.81,419.869 700.335,419.422 695.838,419.333 691.349,419.601 686.895,420.225 682.505,421.201 678.206,422.522 674.026,424.181 669.991,426.167 666.126,428.467 662.456,431.067 659.005,433.95 655.793,437.098 652.842,440.492 650.169,444.109 647.793,447.927 645.727,451.922 643.986,456.069 642.579,460.341 641.516,464.71 640.804,469.151 640.446,473.634 640.446,478.132 640.804,482.615 641.516,487.055 642.579,491.425 643.986,495.697 645.727,499.843 647.793,503.838 650.169,507.656 652.842,511.274 655.793,514.667 659.005,517.816 662.456,520.699 666.126,523.299 669.991,525.599 674.026,527.585 678.206,529.244 682.505,530.565 686.895,531.541 691.349,532.165 695.838,532.433 700.335,532.344 704.81,531.897 709.235,531.097 713.583,529.947 717.826,528.456 721.937,526.632 725.89,524.487 729.661,522.035 733.224,519.292 736.558,516.273 739.642,513 742.456,509.492 744.982,505.771 747.205,501.861 749.11,497.787 750.686,493.575 751.922,489.251 752.81,484.842 753.345,480.377 753.524,475.883 "/>
<path clip-path="url(#clip822)" d="M1159.6 475.883 L1159.42 471.389 L1158.88 466.924 L1158 462.515 L1156.76 458.191 L1155.18 453.978 L1153.28 449.904 L1151.06 445.995 L1148.53 442.274 L1145.72 438.766 L1142.63 435.492 L1139.3 432.474 L1135.73 429.73 L1131.96 427.279 L1128.01 425.134 L1123.9 423.31 L1119.66 421.819 L1115.31 420.669 L1110.88 419.869 L1106.41 419.422 L1101.91 419.333 L1097.42 419.601 L1092.97 420.225 L1088.58 421.201 L1084.28 422.522 L1080.1 424.181 L1076.06 426.167 L1072.2 428.467 L1068.53 431.067 L1065.08 433.95 L1061.87 437.098 L1058.92 440.492 L1056.24 444.109 L1053.87 447.927 L1051.8 451.922 L1050.06 456.069 L1048.65 460.341 L1047.59 464.71 L1046.88 469.151 L1046.52 473.634 L1046.52 478.132 L1046.88 482.615 L1047.59 487.055 L1048.65 491.425 L1050.06 495.697 L1051.8 499.843 L1053.87 503.838 L1056.24 507.656 L1058.92 511.274 L1061.87 514.667 L1065.08 517.816 L1068.53 520.699 L1072.2 523.299 L1076.06 525.599 L1080.1 527.585 L1084.28 529.244 L1088.58 530.565 L1092.97 531.541 L1097.42 532.165 L1101.91 532.433 L1106.41 532.344 L1110.88 531.897 L1115.31 531.097 L1119.66 529.947 L1123.9 528.456 L1128.01 526.632 L1131.96 524.487 L1135.73 522.035 L1139.3 519.292 L1142.63 516.273 L1145.72 513 L1148.53 509.492 L1151.06 505.771 L1153.28 501.861 L1155.18 497.787 L1156.76 493.575 L1158 489.251 L1158.88 484.842 L1159.42 480.377 L1159.6 475.883 L1159.6 475.883  Z" fill="#008c00" fill-rule="evenodd" fill-opacity="1"/>
<polyline clip-path="url(#clip822)" style="stroke:#000000; stroke-linecap:round; stroke-linejoin:round; stroke-width:4; stroke-opacity:1; fill:none" points="1159.6,475.883 1159.42,471.389 1158.88,466.924 1158,462.515 1156.76,458.191 1155.18,453.978 1153.28,449.904 1151.06,445.995 1148.53,442.274 1145.72,438.766 1142.63,435.492 1139.3,432.474 1135.73,429.73 1131.96,427.279 1128.01,425.134 1123.9,423.31 1119.66,421.819 1115.31,420.669 1110.88,419.869 1106.41,419.422 1101.91,419.333 1097.42,419.601 1092.97,420.225 1088.58,421.201 1084.28,422.522 1080.1,424.181 1076.06,426.167 1072.2,428.467 1068.53,431.067 1065.08,433.95 1061.87,437.098 1058.92,440.492 1056.24,444.109 1053.87,447.927 1051.8,451.922 1050.06,456.069 1048.65,460.341 1047.59,464.71 1046.88,469.151 1046.52,473.634 1046.52,478.132 1046.88,482.615 1047.59,487.055 1048.65,491.425 1050.06,495.697 1051.8,499.843 1053.87,503.838 1056.24,507.656 1058.92,511.274 1061.87,514.667 1065.08,517.816 1068.53,520.699 1072.2,523.299 1076.06,525.599 1080.1,527.585 1084.28,529.244 1088.58,530.565 1092.97,531.541 1097.42,532.165 1101.91,532.433 1106.41,532.344 1110.88,531.897 1115.31,531.097 1119.66,529.947 1123.9,528.456 1128.01,526.632 1131.96,524.487 1135.73,522.035 1139.3,519.292 1142.63,516.273 1145.72,513 1148.53,509.492 1151.06,505.771 1153.28,501.861 1155.18,497.787 1156.76,493.575 1158,489.251 1158.88,484.842 1159.42,480.377 1159.6,475.883 "/>
<path clip-path="url(#clip822)" d="M1565.67 475.883 L1565.49 471.389 L1564.96 466.924 L1564.07 462.515 L1562.83 458.191 L1561.26 453.978 L1559.35 449.904 L1557.13 445.995 L1554.6 442.274 L1551.79 438.766 L1548.71 435.492 L1545.37 432.474 L1541.81 429.73 L1538.04 427.279 L1534.09 425.134 L1529.97 423.31 L1525.73 421.819 L1521.38 420.669 L1516.96 419.869 L1512.48 419.422 L1507.99 419.333 L1503.5 419.601 L1499.04 420.225 L1494.65 421.201 L1490.35 422.522 L1486.17 424.181 L1482.14 426.167 L1478.27 428.467 L1474.6 431.067 L1471.15 433.95 L1467.94 437.098 L1464.99 440.492 L1462.32 444.109 L1459.94 447.927 L1457.88 451.922 L1456.13 456.069 L1454.73 460.341 L1453.66 464.71 L1452.95 469.151 L1452.59 473.634 L1452.59 478.132 L1452.95 482.615 L1453.66 487.055 L1454.73 491.425 L1456.13 495.697 L1457.88 499.843 L1459.94 503.838 L1462.32 507.656 L1464.99 511.274 L1467.94 514.667 L1471.15 517.816 L1474.6 520.699 L1478.27 523.299 L1482.14 525.599 L1486.17 527.585 L1490.35 529.244 L1494.65 530.565 L1499.04 531.541 L1503.5 532.165 L1507.99 532.433 L1512.48 532.344 L1516.96 531.897 L1521.38 531.097 L1525.73 529.947 L1529.97 528.456 L1534.09 526.632 L1538.04 524.487 L1541.81 522.035 L1545.37 519.292 L1548.71 516.273 L1551.79 513 L1554.6 509.492 L1557.13 505.771 L1559.35 501.861 L1561.26 497.787 L1562.83 493.575 L1564.07 489.251 L1564.96 484.842 L1565.49 480.377 L1565.67 475.883 L1565.67 475.883  Z" fill="#007fb1" fill-rule="evenodd" fill-opacity="1"/>
<polyline clip-path="url(#clip822)" style="stroke:#000000; stroke-linecap:round; stroke-linejoin:round; stroke-width:4; stroke-opacity:1; fill:none" points="1565.67,475.883 1565.49,471.389 1564.96,466.924 1564.07,462.515 1562.83,458.191 1561.26,453.978 1559.35,449.904 1557.13,445.995 1554.6,442.274 1551.79,438.766 1548.71,435.492 1545.37,432.474 1541.81,429.73 1538.04,427.279 1534.09,425.134 1529.97,423.31 1525.73,421.819 1521.38,420.669 1516.96,419.869 1512.48,419.422 1507.99,419.333 1503.5,419.601 1499.04,420.225 1494.65,421.201 1490.35,422.522 1486.17,424.181 1482.14,426.167 1478.27,428.467 1474.6,431.067 1471.15,433.95 1467.94,437.098 1464.99,440.492 1462.32,444.109 1459.94,447.927 1457.88,451.922 1456.13,456.069 1454.73,460.341 1453.66,464.71 1452.95,469.151 1452.59,473.634 1452.59,478.132 1452.95,482.615 1453.66,487.055 1454.73,491.425 1456.13,495.697 1457.88,499.843 1459.94,503.838 1462.32,507.656 1464.99,511.274 1467.94,514.667 1471.15,517.816 1474.6,520.699 1478.27,523.299 1482.14,525.599 1486.17,527.585 1490.35,529.244 1494.65,530.565 1499.04,531.541 1503.5,532.165 1507.99,532.433 1512.48,532.344 1516.96,531.897 1521.38,531.097 1525.73,529.947 1529.97,528.456 1534.09,526.632 1538.04,524.487 1541.81,522.035 1545.37,519.292 1548.71,516.273 1551.79,513 1554.6,509.492 1557.13,505.771 1559.35,501.861 1561.26,497.787 1562.83,493.575 1564.07,489.251 1564.96,484.842 1565.49,480.377 1565.67,475.883 "/>
<path clip-path="url(#clip822)" d="M655.617 1005.01 L655.514 1002.43 L655.207 999.864 L654.697 997.332 L653.987 994.848 L653.082 992.429 L651.988 990.089 L650.711 987.844 L649.26 985.707 L647.644 983.692 L645.873 981.812 L643.958 980.078 L641.911 978.502 L639.746 977.094 L637.475 975.862 L635.114 974.815 L632.677 973.958 L630.18 973.298 L627.638 972.838 L625.068 972.582 L622.485 972.53 L619.907 972.684 L617.349 973.043 L614.827 973.603 L612.358 974.362 L609.957 975.315 L607.64 976.456 L605.42 977.777 L603.312 979.27 L601.33 980.926 L599.485 982.734 L597.79 984.683 L596.255 986.761 L594.891 988.954 L593.704 991.248 L592.704 993.63 L591.896 996.083 L591.285 998.593 L590.876 1001.14 L590.671 1003.72 L590.671 1006.3 L590.876 1008.88 L591.285 1011.43 L591.896 1013.94 L592.704 1016.39 L593.704 1018.77 L594.891 1021.07 L596.255 1023.26 L597.79 1025.34 L599.485 1027.29 L601.33 1029.09 L603.312 1030.75 L605.42 1032.24 L607.64 1033.56 L609.957 1034.7 L612.358 1035.66 L614.827 1036.42 L617.349 1036.98 L619.907 1037.34 L622.485 1037.49 L625.068 1037.44 L627.638 1037.18 L630.18 1036.72 L632.677 1036.06 L635.114 1035.21 L637.475 1034.16 L639.746 1032.93 L641.911 1031.52 L643.958 1029.94 L645.873 1028.21 L647.644 1026.33 L649.26 1024.31 L650.711 1022.18 L651.988 1019.93 L653.082 1017.59 L653.987 1015.17 L654.697 1012.69 L655.207 1010.16 L655.514 1007.59 L655.617 1005.01 L655.617 1005.01  Z" fill="#e5e5e5" fill-rule="evenodd" fill-opacity="1"/>
<polyline clip-path="url(#clip822)" style="stroke:#000000; stroke-linecap:round; stroke-linejoin:round; stroke-width:4; stroke-opacity:1; fill:none" points="655.617,1005.01 655.514,1002.43 655.207,999.864 654.697,997.332 653.987,994.848 653.082,992.429 651.988,990.089 650.711,987.844 649.26,985.707 647.644,983.692 645.873,981.812 643.958,980.078 641.911,978.502 639.746,977.094 637.475,975.862 635.114,974.815 632.677,973.958 630.18,973.298 627.638,972.838 625.068,972.582 622.485,972.53 619.907,972.684 617.349,973.043 614.827,973.603 612.358,974.362 609.957,975.315 607.64,976.456 605.42,977.777 603.312,979.27 601.33,980.926 599.485,982.734 597.79,984.683 596.255,986.761 594.891,988.954 593.704,991.248 592.704,993.63 591.896,996.083 591.285,998.593 590.876,1001.14 590.671,1003.72 590.671,1006.3 590.876,1008.88 591.285,1011.43 591.896,1013.94 592.704,1016.39 593.704,1018.77 594.891,1021.07 596.255,1023.26 597.79,1025.34 599.485,1027.29 601.33,1029.09 603.312,1030.75 605.42,1032.24 607.64,1033.56 609.957,1034.7 612.358,1035.66 614.827,1036.42 617.349,1036.98 619.907,1037.34 622.485,1037.49 625.068,1037.44 627.638,1037.18 630.18,1036.72 632.677,1036.06 635.114,1035.21 637.475,1034.16 639.746,1032.93 641.911,1031.52 643.958,1029.94 645.873,1028.21 647.644,1026.33 649.26,1024.31 650.711,1022.18 651.988,1019.93 653.082,1017.59 653.987,1015.17 654.697,1012.69 655.207,1010.16 655.514,1007.59 655.617,1005.01 "/>
<path clip-path="url(#clip822)" d="M1209.35 1005.01 L1209.25 1002.43 L1208.94 999.864 L1208.43 997.332 L1207.72 994.848 L1206.82 992.429 L1205.73 990.089 L1204.45 987.844 L1203 985.707 L1201.38 983.692 L1199.61 981.812 L1197.7 980.078 L1195.65 978.502 L1193.48 977.094 L1191.21 975.862 L1188.85 974.815 L1186.41 973.958 L1183.92 973.298 L1181.38 972.838 L1178.81 972.582 L1176.22 972.53 L1173.64 972.684 L1171.09 973.043 L1168.56 973.603 L1166.1 974.362 L1163.69 975.315 L1161.38 976.456 L1159.16 977.777 L1157.05 979.27 L1155.07 980.926 L1153.22 982.734 L1151.53 984.683 L1149.99 986.761 L1148.63 988.954 L1147.44 991.248 L1146.44 993.63 L1145.63 996.083 L1145.02 998.593 L1144.61 1001.14 L1144.41 1003.72 L1144.41 1006.3 L1144.61 1008.88 L1145.02 1011.43 L1145.63 1013.94 L1146.44 1016.39 L1147.44 1018.77 L1148.63 1021.07 L1149.99 1023.26 L1151.53 1025.34 L1153.22 1027.29 L1155.07 1029.09 L1157.05 1030.75 L1159.16 1032.24 L1161.38 1033.56 L1163.69 1034.7 L1166.1 1035.66 L1168.56 1036.42 L1171.09 1036.98 L1173.64 1037.34 L1176.22 1037.49 L1178.81 1037.44 L1181.38 1037.18 L1183.92 1036.72 L1186.41 1036.06 L1188.85 1035.21 L1191.21 1034.16 L1193.48 1032.93 L1195.65 1031.52 L1197.7 1029.94 L1199.61 1028.21 L1201.38 1026.33 L1203 1024.31 L1204.45 1022.18 L1205.73 1019.93 L1206.82 1017.59 L1207.72 1015.17 L1208.43 1012.69 L1208.94 1010.16 L1209.25 1007.59 L1209.35 1005.01 L1209.35 1005.01  Z" fill="#e5e5e5" fill-rule="evenodd" fill-opacity="1"/>
<polyline clip-path="url(#clip822)" style="stroke:#000000; stroke-linecap:round; stroke-linejoin:round; stroke-width:4; stroke-opacity:1; fill:none" points="1209.35,1005.01 1209.25,1002.43 1208.94,999.864 1208.43,997.332 1207.72,994.848 1206.82,992.429 1205.73,990.089 1204.45,987.844 1203,985.707 1201.38,983.692 1199.61,981.812 1197.7,980.078 1195.65,978.502 1193.48,977.094 1191.21,975.862 1188.85,974.815 1186.41,973.958 1183.92,973.298 1181.38,972.838 1178.81,972.582 1176.22,972.53 1173.64,972.684 1171.09,973.043 1168.56,973.603 1166.1,974.362 1163.69,975.315 1161.38,976.456 1159.16,977.777 1157.05,979.27 1155.07,980.926 1153.22,982.734 1151.53,984.683 1149.99,986.761 1148.63,988.954 1147.44,991.248 1146.44,993.63 1145.63,996.083 1145.02,998.593 1144.61,1001.14 1144.41,1003.72 1144.41,1006.3 1144.61,1008.88 1145.02,1011.43 1145.63,1013.94 1146.44,1016.39 1147.44,1018.77 1148.63,1021.07 1149.99,1023.26 1151.53,1025.34 1153.22,1027.29 1155.07,1029.09 1157.05,1030.75 1159.16,1032.24 1161.38,1033.56 1163.69,1034.7 1166.1,1035.66 1168.56,1036.42 1171.09,1036.98 1173.64,1037.34 1176.22,1037.49 1178.81,1037.44 1181.38,1037.18 1183.92,1036.72 1186.41,1036.06 1188.85,1035.21 1191.21,1034.16 1193.48,1032.93 1195.65,1031.52 1197.7,1029.94 1199.61,1028.21 1201.38,1026.33 1203,1024.31 1204.45,1022.18 1205.73,1019.93 1206.82,1017.59 1207.72,1015.17 1208.43,1012.69 1208.94,1010.16 1209.25,1007.59 1209.35,1005.01 "/>
<path clip-path="url(#clip822)" d="M840.196 1288.03 L840.094 1285.45 L839.786 1282.89 L839.276 1280.35 L838.566 1277.87 L837.661 1275.45 L836.567 1273.11 L835.29 1270.87 L833.839 1268.73 L832.223 1266.71 L830.452 1264.83 L828.537 1263.1 L826.49 1261.52 L824.325 1260.12 L822.054 1258.88 L819.693 1257.84 L817.256 1256.98 L814.759 1256.32 L812.217 1255.86 L809.647 1255.6 L807.065 1255.55 L804.486 1255.71 L801.928 1256.06 L799.406 1256.62 L796.937 1257.38 L794.537 1258.34 L792.219 1259.48 L789.999 1260.8 L787.892 1262.29 L785.909 1263.95 L784.065 1265.76 L782.37 1267.7 L780.835 1269.78 L779.47 1271.98 L778.283 1274.27 L777.283 1276.65 L776.475 1279.1 L775.865 1281.61 L775.455 1284.16 L775.25 1286.74 L775.25 1289.32 L775.455 1291.9 L775.865 1294.45 L776.475 1296.96 L777.283 1299.41 L778.283 1301.79 L779.47 1304.09 L780.835 1306.28 L782.37 1308.36 L784.065 1310.31 L785.909 1312.12 L787.892 1313.77 L789.999 1315.26 L792.219 1316.59 L794.537 1317.73 L796.937 1318.68 L799.406 1319.44 L801.928 1320 L804.486 1320.36 L807.065 1320.51 L809.647 1320.46 L812.217 1320.2 L814.759 1319.74 L817.256 1319.08 L819.693 1318.23 L822.054 1317.18 L824.325 1315.95 L826.49 1314.54 L828.537 1312.96 L830.452 1311.23 L832.223 1309.35 L833.839 1307.33 L835.29 1305.2 L836.567 1302.95 L837.661 1300.61 L838.566 1298.19 L839.276 1295.71 L839.786 1293.18 L840.094 1290.61 L840.196 1288.03 L840.196 1288.03  Z" fill="#e5e5e5" fill-rule="evenodd" fill-opacity="1"/>
<polyline clip-path="url(#clip822)" style="stroke:#000000; stroke-linecap:round; stroke-linejoin:round; stroke-width:4; stroke-opacity:1; fill:none" points="840.196,1288.03 840.094,1285.45 839.786,1282.89 839.276,1280.35 838.566,1277.87 837.661,1275.45 836.567,1273.11 835.29,1270.87 833.839,1268.73 832.223,1266.71 830.452,1264.83 828.537,1263.1 826.49,1261.52 824.325,1260.12 822.054,1258.88 819.693,1257.84 817.256,1256.98 814.759,1256.32 812.217,1255.86 809.647,1255.6 807.065,1255.55 804.486,1255.71 801.928,1256.06 799.406,1256.62 796.937,1257.38 794.537,1258.34 792.219,1259.48 789.999,1260.8 787.892,1262.29 785.909,1263.95 784.065,1265.76 782.37,1267.7 780.835,1269.78 779.47,1271.98 778.283,1274.27 777.283,1276.65 776.475,1279.1 775.865,1281.61 775.455,1284.16 775.25,1286.74 775.25,1289.32 775.455,1291.9 775.865,1294.45 776.475,1296.96 777.283,1299.41 778.283,1301.79 779.47,1304.09 780.835,1306.28 782.37,1308.36 784.065,1310.31 785.909,1312.12 787.892,1313.77 789.999,1315.26 792.219,1316.59 794.537,1317.73 796.937,1318.68 799.406,1319.44 801.928,1320 804.486,1320.36 807.065,1320.51 809.647,1320.46 812.217,1320.2 814.759,1319.74 817.256,1319.08 819.693,1318.23 822.054,1317.18 824.325,1315.95 826.49,1314.54 828.537,1312.96 830.452,1311.23 832.223,1309.35 833.839,1307.33 835.29,1305.2 836.567,1302.95 837.661,1300.61 838.566,1298.19 839.276,1295.71 839.786,1293.18 840.094,1290.61 840.196,1288.03 "/>
<path clip-path="url(#clip822)" d="M1024.78 1288.03 L1024.67 1285.45 L1024.37 1282.89 L1023.86 1280.35 L1023.15 1277.87 L1022.24 1275.45 L1021.15 1273.11 L1019.87 1270.87 L1018.42 1268.73 L1016.8 1266.71 L1015.03 1264.83 L1013.12 1263.1 L1011.07 1261.52 L1008.9 1260.12 L1006.63 1258.88 L1004.27 1257.84 L1001.84 1256.98 L999.338 1256.32 L996.797 1255.86 L994.226 1255.6 L991.644 1255.55 L989.065 1255.71 L986.507 1256.06 L983.986 1256.62 L981.517 1257.38 L979.116 1258.34 L976.798 1259.48 L974.578 1260.8 L972.471 1262.29 L970.488 1263.95 L968.644 1265.76 L966.949 1267.7 L965.414 1269.78 L964.049 1271.98 L962.863 1274.27 L961.862 1276.65 L961.054 1279.1 L960.444 1281.61 L960.035 1284.16 L959.829 1286.74 L959.829 1289.32 L960.035 1291.9 L960.444 1294.45 L961.054 1296.96 L961.862 1299.41 L962.863 1301.79 L964.049 1304.09 L965.414 1306.28 L966.949 1308.36 L968.644 1310.31 L970.488 1312.12 L972.471 1313.77 L974.578 1315.26 L976.798 1316.59 L979.116 1317.73 L981.517 1318.68 L983.986 1319.44 L986.507 1320 L989.065 1320.36 L991.644 1320.51 L994.226 1320.46 L996.797 1320.2 L999.338 1319.74 L1001.84 1319.08 L1004.27 1318.23 L1006.63 1317.18 L1008.9 1315.95 L1011.07 1314.54 L1013.12 1312.96 L1015.03 1311.23 L1016.8 1309.35 L1018.42 1307.33 L1019.87 1305.2 L1021.15 1302.95 L1022.24 1300.61 L1023.15 1298.19 L1023.86 1295.71 L1024.37 1293.18 L1024.67 1290.61 L1024.78 1288.03 L1024.78 1288.03  Z" fill="#e5e5e5" fill-rule="evenodd" fill-opacity="1"/>
<polyline clip-path="url(#clip822)" style="stroke:#000000; stroke-linecap:round; stroke-linejoin:round; stroke-width:4; stroke-opacity:1; fill:none" points="1024.78,1288.03 1024.67,1285.45 1024.37,1282.89 1023.86,1280.35 1023.15,1277.87 1022.24,1275.45 1021.15,1273.11 1019.87,1270.87 1018.42,1268.73 1016.8,1266.71 1015.03,1264.83 1013.12,1263.1 1011.07,1261.52 1008.9,1260.12 1006.63,1258.88 1004.27,1257.84 1001.84,1256.98 999.338,1256.32 996.797,1255.86 994.226,1255.6 991.644,1255.55 989.065,1255.71 986.507,1256.06 983.986,1256.62 981.517,1257.38 979.116,1258.34 976.798,1259.48 974.578,1260.8 972.471,1262.29 970.488,1263.95 968.644,1265.76 966.949,1267.7 965.414,1269.78 964.049,1271.98 962.863,1274.27 961.862,1276.65 961.054,1279.1 960.444,1281.61 960.035,1284.16 959.829,1286.74 959.829,1289.32 960.035,1291.9 960.444,1294.45 961.054,1296.96 961.862,1299.41 962.863,1301.79 964.049,1304.09 965.414,1306.28 966.949,1308.36 968.644,1310.31 970.488,1312.12 972.471,1313.77 974.578,1315.26 976.798,1316.59 979.116,1317.73 981.517,1318.68 983.986,1319.44 986.507,1320 989.065,1320.36 991.644,1320.51 994.226,1320.46 996.797,1320.2 999.338,1319.74 1001.84,1319.08 1004.27,1318.23 1006.63,1317.18 1008.9,1315.95 1011.07,1314.54 1013.12,1312.96 1015.03,1311.23 1016.8,1309.35 1018.42,1307.33 1019.87,1305.2 1021.15,1302.95 1022.24,1300.61 1023.15,1298.19 1023.86,1295.71 1024.37,1293.18 1024.67,1290.61 1024.78,1288.03 "/>
<path clip-path="url(#clip822)" d="M932.486 1571.05 L932.383 1568.47 L932.076 1565.91 L931.566 1563.37 L930.856 1560.89 L929.951 1558.47 L928.857 1556.13 L927.58 1553.89 L926.129 1551.75 L924.513 1549.73 L922.742 1547.85 L920.827 1546.12 L918.78 1544.55 L916.614 1543.14 L914.344 1541.91 L911.983 1540.86 L909.546 1540 L907.049 1539.34 L904.507 1538.88 L901.937 1538.62 L899.354 1538.57 L896.776 1538.73 L894.218 1539.09 L891.696 1539.65 L889.227 1540.41 L886.826 1541.36 L884.509 1542.5 L882.289 1543.82 L880.181 1545.31 L878.199 1546.97 L876.354 1548.78 L874.659 1550.73 L873.124 1552.8 L871.759 1555 L870.573 1557.29 L869.573 1559.67 L868.765 1562.13 L868.154 1564.64 L867.745 1567.19 L867.54 1569.76 L867.54 1572.34 L867.745 1574.92 L868.154 1577.47 L868.765 1579.98 L869.573 1582.43 L870.573 1584.81 L871.759 1587.11 L873.124 1589.3 L874.659 1591.38 L876.354 1593.33 L878.199 1595.14 L880.181 1596.79 L882.289 1598.29 L884.509 1599.61 L886.826 1600.75 L889.227 1601.7 L891.696 1602.46 L894.218 1603.02 L896.776 1603.38 L899.354 1603.53 L901.937 1603.48 L904.507 1603.22 L907.049 1602.76 L909.546 1602.1 L911.983 1601.25 L914.344 1600.2 L916.614 1598.97 L918.78 1597.56 L920.827 1595.98 L922.742 1594.25 L924.513 1592.37 L926.129 1590.36 L927.58 1588.22 L928.857 1585.97 L929.951 1583.63 L930.856 1581.21 L931.566 1578.73 L932.076 1576.2 L932.383 1573.63 L932.486 1571.05 L932.486 1571.05  Z" fill="#e5e5e5" fill-rule="evenodd" fill-opacity="1"/>
<polyline clip-path="url(#clip822)" style="stroke:#000000; stroke-linecap:round; stroke-linejoin:round; stroke-width:4; stroke-opacity:1; fill:none" points="932.486,1571.05 932.383,1568.47 932.076,1565.91 931.566,1563.37 930.856,1560.89 929.951,1558.47 928.857,1556.13 927.58,1553.89 926.129,1551.75 924.513,1549.73 922.742,1547.85 920.827,1546.12 918.78,1544.55 916.614,1543.14 914.344,1541.91 911.983,1540.86 909.546,1540 907.049,1539.34 904.507,1538.88 901.937,1538.62 899.354,1538.57 896.776,1538.73 894.218,1539.09 891.696,1539.65 889.227,1540.41 886.826,1541.36 884.509,1542.5 882.289,1543.82 880.181,1545.31 878.199,1546.97 876.354,1548.78 874.659,1550.73 873.124,1552.8 871.759,1555 870.573,1557.29 869.573,1559.67 868.765,1562.13 868.154,1564.64 867.745,1567.19 867.54,1569.76 867.54,1572.34 867.745,1574.92 868.154,1577.47 868.765,1579.98 869.573,1582.43 870.573,1584.81 871.759,1587.11 873.124,1589.3 874.659,1591.38 876.354,1593.33 878.199,1595.14 880.181,1596.79 882.289,1598.29 884.509,1599.61 886.826,1600.75 889.227,1601.7 891.696,1602.46 894.218,1603.02 896.776,1603.38 899.354,1603.53 901.937,1603.48 904.507,1603.22 907.049,1602.76 909.546,1602.1 911.983,1601.25 914.344,1600.2 916.614,1598.97 918.78,1597.56 920.827,1595.98 922.742,1594.25 924.513,1592.37 926.129,1590.36 927.58,1588.22 928.857,1585.97 929.951,1583.63 930.856,1581.21 931.566,1578.73 932.076,1576.2 932.383,1573.63 932.486,1571.05 "/>
<path clip-path="url(#clip822)" d="M679.693 1854.07 L679.514 1849.58 L678.978 1845.12 L678.09 1840.71 L676.854 1836.38 L675.279 1832.17 L673.374 1828.1 L671.151 1824.19 L668.624 1820.47 L665.81 1816.96 L662.726 1813.68 L659.392 1810.67 L655.829 1807.92 L652.059 1805.47 L648.106 1803.33 L643.995 1801.5 L639.752 1800.01 L635.404 1798.86 L630.978 1798.06 L626.503 1797.61 L622.007 1797.52 L617.517 1797.79 L613.063 1798.42 L608.673 1799.39 L604.374 1800.71 L600.194 1802.37 L596.159 1804.36 L592.294 1806.66 L588.625 1809.26 L585.173 1812.14 L581.961 1815.29 L579.01 1818.68 L576.338 1822.3 L573.961 1826.12 L571.896 1830.11 L570.154 1834.26 L568.747 1838.53 L567.684 1842.9 L566.972 1847.34 L566.615 1851.83 L566.615 1856.32 L566.972 1860.81 L567.684 1865.25 L568.747 1869.62 L570.154 1873.89 L571.896 1878.03 L573.961 1882.03 L576.338 1885.85 L579.01 1889.47 L581.961 1892.86 L585.173 1896.01 L588.625 1898.89 L592.294 1901.49 L596.159 1903.79 L600.194 1905.78 L604.374 1907.43 L608.673 1908.76 L613.063 1909.73 L617.517 1910.36 L622.007 1910.62 L626.503 1910.53 L630.978 1910.09 L635.404 1909.29 L639.752 1908.14 L643.995 1906.65 L648.106 1904.82 L652.059 1902.68 L655.829 1900.23 L659.392 1897.48 L662.726 1894.46 L665.81 1891.19 L668.624 1887.68 L671.151 1883.96 L673.374 1880.05 L675.279 1875.98 L676.854 1871.77 L678.09 1867.44 L678.978 1863.03 L679.514 1858.57 L679.693 1854.07 L679.693 1854.07  Z" fill="#e5e5e5" fill-rule="evenodd" fill-opacity="1"/>
<polyline clip-path="url(#clip822)" style="stroke:#000000; stroke-linecap:round; stroke-linejoin:round; stroke-width:4; stroke-opacity:1; fill:none" points="679.693,1854.07 679.514,1849.58 678.978,1845.12 678.09,1840.71 676.854,1836.38 675.279,1832.17 673.374,1828.1 671.151,1824.19 668.624,1820.47 665.81,1816.96 662.726,1813.68 659.392,1810.67 655.829,1807.92 652.059,1805.47 648.106,1803.33 643.995,1801.5 639.752,1800.01 635.404,1798.86 630.978,1798.06 626.503,1797.61 622.007,1797.52 617.517,1797.79 613.063,1798.42 608.673,1799.39 604.374,1800.71 600.194,1802.37 596.159,1804.36 592.294,1806.66 588.625,1809.26 585.173,1812.14 581.961,1815.29 579.01,1818.68 576.338,1822.3 573.961,1826.12 571.896,1830.11 570.154,1834.26 568.747,1838.53 567.684,1842.9 566.972,1847.34 566.615,1851.83 566.615,1856.32 566.972,1860.81 567.684,1865.25 568.747,1869.62 570.154,1873.89 571.896,1878.03 573.961,1882.03 576.338,1885.85 579.01,1889.47 581.961,1892.86 585.173,1896.01 588.625,1898.89 592.294,1901.49 596.159,1903.79 600.194,1905.78 604.374,1907.43 608.673,1908.76 613.063,1909.73 617.517,1910.36 622.007,1910.62 626.503,1910.53 630.978,1910.09 635.404,1909.29 639.752,1908.14 643.995,1906.65 648.106,1904.82 652.059,1902.68 655.829,1900.23 659.392,1897.48 662.726,1894.46 665.81,1891.19 668.624,1887.68 671.151,1883.96 673.374,1880.05 675.279,1875.98 676.854,1871.77 678.09,1867.44 678.978,1863.03 679.514,1858.57 679.693,1854.07 "/>
<path clip-path="url(#clip822)" d="M679.693 2137.1 L679.514 2132.6 L678.978 2128.14 L678.09 2123.73 L676.854 2119.4 L675.279 2115.19 L673.374 2111.12 L671.151 2107.21 L668.624 2103.49 L665.81 2099.98 L662.726 2096.71 L659.392 2093.69 L655.829 2090.94 L652.059 2088.49 L648.106 2086.35 L643.995 2084.52 L639.752 2083.03 L635.404 2081.88 L630.978 2081.08 L626.503 2080.63 L622.007 2080.55 L617.517 2080.81 L613.063 2081.44 L608.673 2082.41 L604.374 2083.73 L600.194 2085.39 L596.159 2087.38 L592.294 2089.68 L588.625 2092.28 L585.173 2095.16 L581.961 2098.31 L579.01 2101.7 L576.338 2105.32 L573.961 2109.14 L571.896 2113.14 L570.154 2117.28 L568.747 2121.55 L567.684 2125.92 L566.972 2130.36 L566.615 2134.85 L566.615 2139.34 L566.972 2143.83 L567.684 2148.27 L568.747 2152.64 L570.154 2156.91 L571.896 2161.06 L573.961 2165.05 L576.338 2168.87 L579.01 2172.49 L581.961 2175.88 L585.173 2179.03 L588.625 2181.91 L592.294 2184.51 L596.159 2186.81 L600.194 2188.8 L604.374 2190.46 L608.673 2191.78 L613.063 2192.75 L617.517 2193.38 L622.007 2193.65 L626.503 2193.56 L630.978 2193.11 L635.404 2192.31 L639.752 2191.16 L643.995 2189.67 L648.106 2187.84 L652.059 2185.7 L655.829 2183.25 L659.392 2180.5 L662.726 2177.49 L665.81 2174.21 L668.624 2170.7 L671.151 2166.98 L673.374 2163.07 L675.279 2159 L676.854 2154.79 L678.09 2150.46 L678.978 2146.05 L679.514 2141.59 L679.693 2137.1 L679.693 2137.1  Z" fill="#e5e5e5" fill-rule="evenodd" fill-opacity="1"/>
<polyline clip-path="url(#clip822)" style="stroke:#000000; stroke-linecap:round; stroke-linejoin:round; stroke-width:4; stroke-opacity:1; fill:none" points="679.693,2137.1 679.514,2132.6 678.978,2128.14 678.09,2123.73 676.854,2119.4 675.279,2115.19 673.374,2111.12 671.151,2107.21 668.624,2103.49 665.81,2099.98 662.726,2096.71 659.392,2093.69 655.829,2090.94 652.059,2088.49 648.106,2086.35 643.995,2084.52 639.752,2083.03 635.404,2081.88 630.978,2081.08 626.503,2080.63 622.007,2080.55 617.517,2080.81 613.063,2081.44 608.673,2082.41 604.374,2083.73 600.194,2085.39 596.159,2087.38 592.294,2089.68 588.625,2092.28 585.173,2095.16 581.961,2098.31 579.01,2101.7 576.338,2105.32 573.961,2109.14 571.896,2113.14 570.154,2117.28 568.747,2121.55 567.684,2125.92 566.972,2130.36 566.615,2134.85 566.615,2139.34 566.972,2143.83 567.684,2148.27 568.747,2152.64 570.154,2156.91 571.896,2161.06 573.961,2165.05 576.338,2168.87 579.01,2172.49 581.961,2175.88 585.173,2179.03 588.625,2181.91 592.294,2184.51 596.159,2186.81 600.194,2188.8 604.374,2190.46 608.673,2191.78 613.063,2192.75 617.517,2193.38 622.007,2193.65 626.503,2193.56 630.978,2193.11 635.404,2192.31 639.752,2191.16 643.995,2189.67 648.106,2187.84 652.059,2185.7 655.829,2183.25 659.392,2180.5 662.726,2177.49 665.81,2174.21 668.624,2170.7 671.151,2166.98 673.374,2163.07 675.279,2159 676.854,2154.79 678.09,2150.46 678.978,2146.05 679.514,2141.59 679.693,2137.1 "/>
<path clip-path="url(#clip822)" d="M828.104 2420.12 L827.456 2403.83 L825.516 2387.65 L822.297 2371.67 L817.818 2356 L812.109 2340.74 L805.205 2325.97 L797.149 2311.81 L787.994 2298.32 L777.796 2285.61 L766.621 2273.75 L754.538 2262.81 L741.624 2252.87 L727.961 2243.98 L713.636 2236.21 L698.738 2229.6 L683.362 2224.19 L667.606 2220.03 L651.568 2217.13 L635.351 2215.51 L619.056 2215.19 L602.787 2216.16 L586.647 2218.42 L570.737 2221.95 L555.158 2226.74 L540.01 2232.76 L525.387 2239.95 L511.381 2248.29 L498.083 2257.71 L485.575 2268.16 L473.936 2279.57 L463.241 2291.86 L453.557 2304.97 L444.945 2318.81 L437.459 2333.29 L431.147 2348.31 L426.049 2363.79 L422.197 2379.63 L419.616 2395.72 L418.321 2411.97 L418.321 2428.27 L419.616 2444.51 L422.197 2460.6 L426.049 2476.44 L431.147 2491.92 L437.459 2506.95 L444.945 2521.42 L453.557 2535.26 L463.241 2548.37 L473.936 2560.67 L485.575 2572.08 L498.083 2582.53 L511.381 2591.95 L525.387 2600.28 L540.01 2607.48 L555.158 2613.49 L570.737 2618.28 L586.647 2621.82 L602.787 2624.08 L619.056 2625.05 L635.351 2624.72 L651.568 2623.11 L667.606 2620.21 L683.362 2616.04 L698.738 2610.64 L713.636 2604.03 L727.961 2596.25 L741.624 2587.37 L754.538 2577.43 L766.621 2566.49 L777.796 2554.63 L787.994 2541.91 L797.149 2528.43 L805.205 2514.26 L812.109 2499.5 L817.818 2484.23 L822.297 2468.56 L825.516 2452.58 L827.456 2436.4 L828.104 2420.12 L828.104 2420.12  Z" fill="#e5e5e5" fill-rule="evenodd" fill-opacity="1"/>
<polyline clip-path="url(#clip822)" style="stroke:#000000; stroke-linecap:round; stroke-linejoin:round; stroke-width:4; stroke-opacity:1; fill:none" points="828.104,2420.12 827.456,2403.83 825.516,2387.65 822.297,2371.67 817.818,2356 812.109,2340.74 805.205,2325.97 797.149,2311.81 787.994,2298.32 777.796,2285.61 766.621,2273.75 754.538,2262.81 741.624,2252.87 727.961,2243.98 713.636,2236.21 698.738,2229.6 683.362,2224.19 667.606,2220.03 651.568,2217.13 635.351,2215.51 619.056,2215.19 602.787,2216.16 586.647,2218.42 570.737,2221.95 555.158,2226.74 540.01,2232.76 525.387,2239.95 511.381,2248.29 498.083,2257.71 485.575,2268.16 473.936,2279.57 463.241,2291.86 453.557,2304.97 444.945,2318.81 437.459,2333.29 431.147,2348.31 426.049,2363.79 422.197,2379.63 419.616,2395.72 418.321,2411.97 418.321,2428.27 419.616,2444.51 422.197,2460.6 426.049,2476.44 431.147,2491.92 437.459,2506.95 444.945,2521.42 453.557,2535.26 463.241,2548.37 473.936,2560.67 485.575,2572.08 498.083,2582.53 511.381,2591.95 525.387,2600.28 540.01,2607.48 555.158,2613.49 570.737,2618.28 586.647,2621.82 602.787,2624.08 619.056,2625.05 635.351,2624.72 651.568,2623.11 667.606,2620.21 683.362,2616.04 698.738,2610.64 713.636,2604.03 727.961,2596.25 741.624,2587.37 754.538,2577.43 766.621,2566.49 777.796,2554.63 787.994,2541.91 797.149,2528.43 805.205,2514.26 812.109,2499.5 817.818,2484.23 822.297,2468.56 825.516,2452.58 827.456,2436.4 828.104,2420.12 "/>
<circle clip-path="url(#clip822)" style="fill:#008c00; stroke:none; fill-opacity:0" cx="290.889" cy="475.883" r="2"/>
<circle clip-path="url(#clip822)" style="fill:#008c00; stroke:none; fill-opacity:0" cx="696.963" cy="475.883" r="2"/>
<circle clip-path="url(#clip822)" style="fill:#008c00; stroke:none; fill-opacity:0" cx="1103.04" cy="475.883" r="2"/>
<circle clip-path="url(#clip822)" style="fill:#008c00; stroke:none; fill-opacity:0" cx="1509.11" cy="475.883" r="2"/>
<circle clip-path="url(#clip822)" style="fill:#008c00; stroke:none; fill-opacity:0" cx="623.131" cy="1005.01" r="2"/>
<circle clip-path="url(#clip822)" style="fill:#008c00; stroke:none; fill-opacity:0" cx="1176.87" cy="1005.01" r="2"/>
<circle clip-path="url(#clip822)" style="fill:#008c00; stroke:none; fill-opacity:0" cx="807.71" cy="1288.03" r="2"/>
<circle clip-path="url(#clip822)" style="fill:#008c00; stroke:none; fill-opacity:0" cx="992.29" cy="1288.03" r="2"/>
<circle clip-path="url(#clip822)" style="fill:#008c00; stroke:none; fill-opacity:0" cx="900" cy="1571.05" r="2"/>
<circle clip-path="url(#clip822)" style="fill:#008c00; stroke:none; fill-opacity:0" cx="623.131" cy="1854.07" r="2"/>
<circle clip-path="url(#clip822)" style="fill:#008c00; stroke:none; fill-opacity:0" cx="623.131" cy="2137.1" r="2"/>
<circle clip-path="url(#clip822)" style="fill:#008c00; stroke:none; fill-opacity:0" cx="623.131" cy="2420.12" r="2"/>
<path clip-path="url(#clip820)" d="M265.657 459.086 L265.657 475.319 L273.007 475.319 Q277.087 475.319 279.315 473.206 Q281.543 471.094 281.543 467.188 Q281.543 463.311 279.315 461.198 Q277.087 459.086 273.007 459.086 L265.657 459.086 M259.812 454.283 L273.007 454.283 Q280.269 454.283 283.973 457.581 Q287.706 460.851 287.706 467.188 Q287.706 473.583 283.973 476.852 Q280.269 480.122 273.007 480.122 L265.657 480.122 L265.657 497.483 L259.812 497.483 L259.812 454.283 Z" fill="#000000" fill-rule="nonzero" fill-opacity="1" /><path clip-path="url(#clip820)" d="M297.081 492.564 L306.629 492.564 L306.629 459.607 L296.242 461.69 L296.242 456.366 L306.571 454.283 L312.416 454.283 L312.416 492.564 L321.965 492.564 L321.965 497.483 L297.081 497.483 L297.081 492.564 Z" fill="#000000" fill-rule="nonzero" fill-opacity="1" /><path clip-path="url(#clip820)" d="M671.963 459.086 L671.963 475.319 L679.313 475.319 Q683.392 475.319 685.62 473.206 Q687.848 471.094 687.848 467.188 Q687.848 463.311 685.62 461.198 Q683.392 459.086 679.313 459.086 L671.963 459.086 M666.118 454.283 L679.313 454.283 Q686.575 454.283 690.279 457.581 Q694.012 460.851 694.012 467.188 Q694.012 473.583 690.279 476.852 Q686.575 480.122 679.313 480.122 L671.963 480.122 L671.963 497.483 L666.118 497.483 L666.118 454.283 Z" fill="#000000" fill-rule="nonzero" fill-opacity="1" /><path clip-path="url(#clip820)" d="M707.408 492.564 L727.808 492.564 L727.808 497.483 L700.377 497.483 L700.377 492.564 Q703.705 489.121 709.434 483.334 Q715.192 477.518 716.668 475.839 Q719.474 472.686 720.574 470.515 Q721.702 468.316 721.702 466.204 Q721.702 462.761 719.272 460.591 Q716.87 458.421 712.993 458.421 Q710.244 458.421 707.177 459.375 Q704.139 460.33 700.667 462.269 L700.667 456.366 Q704.197 454.948 707.264 454.225 Q710.331 453.502 712.877 453.502 Q719.59 453.502 723.583 456.858 Q727.576 460.215 727.576 465.828 Q727.576 468.49 726.563 470.892 Q725.58 473.264 722.947 476.505 Q722.223 477.344 718.346 481.366 Q714.469 485.359 707.408 492.564 Z" fill="#000000" fill-rule="nonzero" fill-opacity="1" /><path clip-path="url(#clip820)" d="M1077.44 459.086 L1077.44 475.319 L1084.79 475.319 Q1088.87 475.319 1091.1 473.206 Q1093.33 471.094 1093.33 467.188 Q1093.33 463.311 1091.1 461.198 Q1088.87 459.086 1084.79 459.086 L1077.44 459.086 M1071.6 454.283 L1084.79 454.283 Q1092.06 454.283 1095.76 457.581 Q1099.49 460.851 1099.49 467.188 Q1099.49 473.583 1095.76 476.852 Q1092.06 480.122 1084.79 480.122 L1077.44 480.122 L1077.44 497.483 L1071.6 497.483 L1071.6 454.283 Z" fill="#000000" fill-rule="nonzero" fill-opacity="1" /><path clip-path="url(#clip820)" d="M1125.56 474.19 Q1129.76 475.087 1132.1 477.923 Q1134.48 480.758 1134.48 484.925 Q1134.48 491.32 1130.08 494.821 Q1125.68 498.322 1117.58 498.322 Q1114.86 498.322 1111.96 497.772 Q1109.1 497.251 1106.03 496.181 L1106.03 490.538 Q1108.46 491.956 1111.36 492.68 Q1114.25 493.403 1117.4 493.403 Q1122.9 493.403 1125.77 491.233 Q1128.66 489.063 1128.66 484.925 Q1128.66 481.106 1125.97 478.964 Q1123.31 476.794 1118.53 476.794 L1113.5 476.794 L1113.5 471.991 L1118.76 471.991 Q1123.07 471.991 1125.36 470.284 Q1127.65 468.548 1127.65 465.307 Q1127.65 461.98 1125.27 460.215 Q1122.93 458.421 1118.53 458.421 Q1116.13 458.421 1113.38 458.941 Q1110.63 459.462 1107.33 460.562 L1107.33 455.353 Q1110.66 454.428 1113.56 453.965 Q1116.48 453.502 1119.05 453.502 Q1125.71 453.502 1129.59 456.54 Q1133.46 459.549 1133.46 464.699 Q1133.46 468.287 1131.41 470.776 Q1129.35 473.235 1125.56 474.19 Z" fill="#000000" fill-rule="nonzero" fill-opacity="1" /><path clip-path="url(#clip820)" d="M1482.81 459.086 L1482.81 475.319 L1490.16 475.319 Q1494.24 475.319 1496.47 473.206 Q1498.69 471.094 1498.69 467.188 Q1498.69 463.311 1496.47 461.198 Q1494.24 459.086 1490.16 459.086 L1482.81 459.086 M1476.96 454.283 L1490.16 454.283 Q1497.42 454.283 1501.13 457.581 Q1504.86 460.851 1504.86 467.188 Q1504.86 473.583 1501.13 476.852 Q1497.42 480.122 1490.16 480.122 L1482.81 480.122 L1482.81 497.483 L1476.96 497.483 L1476.96 454.283 Z" fill="#000000" fill-rule="nonzero" fill-opacity="1" /><path clip-path="url(#clip820)" d="M1529.28 459.375 L1514.52 482.437 L1529.28 482.437 L1529.28 459.375 M1527.75 454.283 L1535.1 454.283 L1535.1 482.437 L1541.26 482.437 L1541.26 487.298 L1535.1 487.298 L1535.1 497.483 L1529.28 497.483 L1529.28 487.298 L1509.78 487.298 L1509.78 481.655 L1527.75 454.283 Z" fill="#000000" fill-rule="nonzero" fill-opacity="1" /><path clip-path="url(#clip820)" d="M610.978 983.41 L633.924 983.41 L633.924 988.329 L616.331 988.329 L616.331 998.919 Q617.605 998.485 618.878 998.283 Q620.151 998.051 621.424 998.051 Q628.658 998.051 632.882 1002.02 Q637.107 1005.98 637.107 1012.75 Q637.107 1019.72 632.767 1023.6 Q628.426 1027.45 620.527 1027.45 Q617.807 1027.45 614.972 1026.99 Q612.165 1026.52 609.156 1025.6 L609.156 1019.72 Q611.76 1021.14 614.537 1021.84 Q617.315 1022.53 620.411 1022.53 Q625.417 1022.53 628.34 1019.9 Q631.262 1017.26 631.262 1012.75 Q631.262 1008.24 628.34 1005.6 Q625.417 1002.97 620.411 1002.97 Q618.068 1002.97 615.724 1003.49 Q613.409 1004.01 610.978 1005.11 L610.978 983.41 Z" fill="#000000" fill-rule="nonzero" fill-opacity="1" /><path clip-path="url(#clip820)" d="M1177.38 1002.68 Q1173.44 1002.68 1171.13 1005.37 Q1168.84 1008.06 1168.84 1012.75 Q1168.84 1017.41 1171.13 1020.13 Q1173.44 1022.82 1177.38 1022.82 Q1181.31 1022.82 1183.6 1020.13 Q1185.91 1017.41 1185.91 1012.75 Q1185.91 1008.06 1183.6 1005.37 Q1181.31 1002.68 1177.38 1002.68 M1188.98 984.365 L1188.98 989.689 Q1186.78 988.647 1184.52 988.097 Q1182.29 987.548 1180.1 987.548 Q1174.31 987.548 1171.24 991.454 Q1168.2 995.36 1167.77 1003.26 Q1169.48 1000.74 1172.05 999.411 Q1174.63 998.051 1177.72 998.051 Q1184.23 998.051 1187.99 1002.02 Q1191.78 1005.95 1191.78 1012.75 Q1191.78 1019.41 1187.85 1023.43 Q1183.91 1027.45 1177.38 1027.45 Q1169.88 1027.45 1165.92 1021.72 Q1161.95 1015.96 1161.95 1005.05 Q1161.95 994.81 1166.81 988.734 Q1171.67 982.629 1179.86 982.629 Q1182.06 982.629 1184.29 983.063 Q1186.55 983.497 1188.98 984.365 Z" fill="#000000" fill-rule="nonzero" fill-opacity="1" /><path clip-path="url(#clip820)" d="M793.822 1266.43 L821.599 1266.43 L821.599 1268.92 L805.916 1309.63 L799.811 1309.63 L814.568 1271.35 L793.822 1271.35 L793.822 1266.43 Z" fill="#000000" fill-rule="nonzero" fill-opacity="1" /><path clip-path="url(#clip820)" d="M992.29 1289.12 Q988.123 1289.12 985.721 1291.34 Q983.349 1293.57 983.349 1297.48 Q983.349 1301.38 985.721 1303.61 Q988.123 1305.84 992.29 1305.84 Q996.456 1305.84 998.858 1303.61 Q1001.26 1301.36 1001.26 1297.48 Q1001.26 1293.57 998.858 1291.34 Q996.485 1289.12 992.29 1289.12 M986.445 1286.63 Q982.683 1285.7 980.571 1283.13 Q978.488 1280.55 978.488 1276.85 Q978.488 1271.67 982.162 1268.66 Q985.866 1265.65 992.29 1265.65 Q998.742 1265.65 1002.42 1268.66 Q1006.09 1271.67 1006.09 1276.85 Q1006.09 1280.55 1003.98 1283.13 Q1001.9 1285.7 998.163 1286.63 Q1002.39 1287.61 1004.73 1290.48 Q1007.1 1293.34 1007.1 1297.48 Q1007.1 1303.76 1003.26 1307.11 Q999.437 1310.47 992.29 1310.47 Q985.143 1310.47 981.294 1307.11 Q977.475 1303.76 977.475 1297.48 Q977.475 1293.34 979.848 1290.48 Q982.22 1287.61 986.445 1286.63 M984.304 1277.4 Q984.304 1280.75 986.387 1282.63 Q988.499 1284.52 992.29 1284.52 Q996.051 1284.52 998.163 1282.63 Q1000.3 1280.75 1000.3 1277.4 Q1000.3 1274.04 998.163 1272.16 Q996.051 1270.28 992.29 1270.28 Q988.499 1270.28 986.387 1272.16 Q984.304 1274.04 984.304 1277.4 Z" fill="#000000" fill-rule="nonzero" fill-opacity="1" /><path clip-path="url(#clip820)" d="M887.876 1591.76 L887.876 1586.43 Q890.075 1587.47 892.332 1588.02 Q894.589 1588.57 896.759 1588.57 Q902.546 1588.57 905.584 1584.7 Q908.652 1580.79 909.086 1572.86 Q907.407 1575.35 904.832 1576.68 Q902.257 1578.01 899.132 1578.01 Q892.651 1578.01 888.86 1574.11 Q885.098 1570.17 885.098 1563.37 Q885.098 1556.72 889.034 1552.69 Q892.969 1548.67 899.508 1548.67 Q907.002 1548.67 910.937 1554.43 Q914.902 1560.16 914.902 1571.1 Q914.902 1581.31 910.04 1587.42 Q905.208 1593.49 897.02 1593.49 Q894.821 1593.49 892.564 1593.06 Q890.307 1592.62 887.876 1591.76 M899.508 1573.44 Q903.443 1573.44 905.729 1570.75 Q908.044 1568.06 908.044 1563.37 Q908.044 1558.71 905.729 1556.02 Q903.443 1553.3 899.508 1553.3 Q895.573 1553.3 893.258 1556.02 Q890.972 1558.71 890.972 1563.37 Q890.972 1568.06 893.258 1570.75 Q895.573 1573.44 899.508 1573.44 Z" fill="#000000" fill-rule="nonzero" fill-opacity="1" /><path clip-path="url(#clip820)" d="M591.491 1870.76 L601.039 1870.76 L601.039 1837.8 L590.652 1839.88 L590.652 1834.56 L600.981 1832.47 L606.826 1832.47 L606.826 1870.76 L616.375 1870.76 L616.375 1875.67 L591.491 1875.67 L591.491 1870.76 Z" fill="#000000" fill-rule="nonzero" fill-opacity="1" /><path clip-path="url(#clip820)" d="M640.68 1836.32 Q636.166 1836.32 633.881 1840.78 Q631.624 1845.21 631.624 1854.12 Q631.624 1863 633.881 1867.46 Q636.166 1871.88 640.68 1871.88 Q645.223 1871.88 647.48 1867.46 Q649.766 1863 649.766 1854.12 Q649.766 1845.21 647.48 1840.78 Q645.223 1836.32 640.68 1836.32 M640.68 1831.69 Q647.943 1831.69 651.762 1837.45 Q655.611 1843.18 655.611 1854.12 Q655.611 1865.03 651.762 1870.78 Q647.943 1876.51 640.68 1876.51 Q633.418 1876.51 629.569 1870.78 Q625.75 1865.03 625.75 1854.12 Q625.75 1843.18 629.569 1837.45 Q633.418 1831.69 640.68 1831.69 Z" fill="#000000" fill-rule="nonzero" fill-opacity="1" /><path clip-path="url(#clip820)" d="M592.258 2153.78 L601.806 2153.78 L601.806 2120.82 L591.418 2122.9 L591.418 2117.58 L601.748 2115.5 L607.593 2115.5 L607.593 2153.78 L617.142 2153.78 L617.142 2158.7 L592.258 2158.7 L592.258 2153.78 Z" fill="#000000" fill-rule="nonzero" fill-opacity="1" /><path clip-path="url(#clip820)" d="M629.96 2153.78 L639.508 2153.78 L639.508 2120.82 L629.121 2122.9 L629.121 2117.58 L639.451 2115.5 L645.295 2115.5 L645.295 2153.78 L654.844 2153.78 L654.844 2158.7 L629.96 2158.7 L629.96 2153.78 Z" fill="#000000" fill-rule="nonzero" fill-opacity="1" /><path clip-path="url(#clip820)" d="M488.308 2425.54 Q488.308 2419.67 485.878 2416.34 Q483.476 2412.98 479.252 2412.98 Q475.027 2412.98 472.597 2416.34 Q470.195 2419.67 470.195 2425.54 Q470.195 2431.42 472.597 2434.77 Q475.027 2438.1 479.252 2438.1 Q483.476 2438.1 485.878 2434.77 Q488.308 2431.42 488.308 2425.54 M470.195 2414.23 Q471.873 2411.34 474.42 2409.95 Q476.995 2408.53 480.554 2408.53 Q486.457 2408.53 490.131 2413.22 Q493.835 2417.9 493.835 2425.54 Q493.835 2433.18 490.131 2437.87 Q486.457 2442.56 480.554 2442.56 Q476.995 2442.56 474.42 2441.17 Q471.873 2439.75 470.195 2436.86 L470.195 2441.72 L464.842 2441.72 L464.842 2396.69 L470.195 2396.69 L470.195 2414.23 Z" fill="#000000" fill-rule="nonzero" fill-opacity="1" /><path clip-path="url(#clip820)" d="M521.439 2414.29 Q520.542 2413.77 519.471 2413.53 Q518.43 2413.27 517.157 2413.27 Q512.643 2413.27 510.212 2416.23 Q507.811 2419.15 507.811 2424.65 L507.811 2441.72 L502.458 2441.72 L502.458 2409.31 L507.811 2409.31 L507.811 2414.34 Q509.489 2411.39 512.18 2409.98 Q514.871 2408.53 518.719 2408.53 Q519.269 2408.53 519.934 2408.62 Q520.6 2408.67 521.41 2408.82 L521.439 2414.29 Z" fill="#000000" fill-rule="nonzero" fill-opacity="1" /><path clip-path="url(#clip820)" d="M553.441 2424.18 L553.441 2426.79 L528.962 2426.79 Q529.309 2432.28 532.261 2435.18 Q535.241 2438.04 540.536 2438.04 Q543.603 2438.04 546.468 2437.29 Q549.361 2436.54 552.197 2435.03 L552.197 2440.07 Q549.332 2441.28 546.323 2441.92 Q543.314 2442.56 540.218 2442.56 Q532.463 2442.56 527.92 2438.04 Q523.407 2433.53 523.407 2425.83 Q523.407 2417.87 527.689 2413.22 Q532 2408.53 539.292 2408.53 Q545.831 2408.53 549.622 2412.75 Q553.441 2416.95 553.441 2424.18 M548.117 2422.62 Q548.059 2418.25 545.658 2415.65 Q543.285 2413.04 539.35 2413.04 Q534.894 2413.04 532.203 2415.56 Q529.541 2418.08 529.136 2422.65 L548.117 2422.62 Z" fill="#000000" fill-rule="nonzero" fill-opacity="1" /><path clip-path="url(#clip820)" d="M589.899 2424.18 L589.899 2426.79 L565.42 2426.79 Q565.768 2432.28 568.719 2435.18 Q571.699 2438.04 576.994 2438.04 Q580.061 2438.04 582.926 2437.29 Q585.819 2436.54 588.655 2435.03 L588.655 2440.07 Q585.791 2441.28 582.781 2441.92 Q579.772 2442.56 576.676 2442.56 Q568.921 2442.56 564.379 2438.04 Q559.865 2433.53 559.865 2425.83 Q559.865 2417.87 564.147 2413.22 Q568.458 2408.53 575.75 2408.53 Q582.289 2408.53 586.08 2412.75 Q589.899 2416.95 589.899 2424.18 M584.575 2422.62 Q584.517 2418.25 582.116 2415.65 Q579.743 2413.04 575.808 2413.04 Q571.352 2413.04 568.661 2415.56 Q565.999 2418.08 565.594 2422.65 L584.575 2422.62 Z" fill="#000000" fill-rule="nonzero" fill-opacity="1" /><path clip-path="url(#clip820)" d="M619.963 2414.23 L619.963 2396.69 L625.287 2396.69 L625.287 2441.72 L619.963 2441.72 L619.963 2436.86 Q618.285 2439.75 615.709 2441.17 Q613.163 2442.56 609.575 2442.56 Q603.701 2442.56 599.998 2437.87 Q596.323 2433.18 596.323 2425.54 Q596.323 2417.9 599.998 2413.22 Q603.701 2408.53 609.575 2408.53 Q613.163 2408.53 615.709 2409.95 Q618.285 2411.34 619.963 2414.23 M601.821 2425.54 Q601.821 2431.42 604.222 2434.77 Q606.653 2438.1 610.877 2438.1 Q615.102 2438.1 617.532 2434.77 Q619.963 2431.42 619.963 2425.54 Q619.963 2419.67 617.532 2416.34 Q615.102 2412.98 610.877 2412.98 Q606.653 2412.98 604.222 2416.34 Q601.821 2419.67 601.821 2425.54 Z" fill="#000000" fill-rule="nonzero" fill-opacity="1" /><path clip-path="url(#clip820)" d="M659.575 2410.55 L659.575 2415.53 Q657.318 2414.29 655.032 2413.68 Q652.775 2413.04 650.46 2413.04 Q645.281 2413.04 642.416 2416.34 Q639.552 2419.61 639.552 2425.54 Q639.552 2431.47 642.416 2434.77 Q645.281 2438.04 650.46 2438.04 Q652.775 2438.04 655.032 2437.43 Q657.318 2436.8 659.575 2435.55 L659.575 2440.47 Q657.347 2441.51 654.945 2442.04 Q652.573 2442.56 649.882 2442.56 Q642.561 2442.56 638.25 2437.96 Q633.938 2433.35 633.938 2425.54 Q633.938 2417.61 638.279 2413.07 Q642.648 2408.53 650.229 2408.53 Q652.688 2408.53 655.032 2409.05 Q657.376 2409.54 659.575 2410.55 Z" fill="#000000" fill-rule="nonzero" fill-opacity="1" /><path clip-path="url(#clip820)" d="M687.613 2414.29 Q686.716 2413.77 685.645 2413.53 Q684.604 2413.27 683.331 2413.27 Q678.817 2413.27 676.386 2416.23 Q673.985 2419.15 673.985 2424.65 L673.985 2441.72 L668.632 2441.72 L668.632 2409.31 L673.985 2409.31 L673.985 2414.34 Q675.663 2411.39 678.354 2409.98 Q681.045 2408.53 684.893 2408.53 Q685.443 2408.53 686.108 2408.62 Q686.774 2408.67 687.584 2408.82 L687.613 2414.29 Z" fill="#000000" fill-rule="nonzero" fill-opacity="1" /><path clip-path="url(#clip820)" d="M704.453 2413.04 Q700.171 2413.04 697.682 2416.4 Q695.194 2419.73 695.194 2425.54 Q695.194 2431.36 697.653 2434.71 Q700.142 2438.04 704.453 2438.04 Q708.707 2438.04 711.195 2434.69 Q713.683 2431.33 713.683 2425.54 Q713.683 2419.78 711.195 2416.43 Q708.707 2413.04 704.453 2413.04 M704.453 2408.53 Q711.398 2408.53 715.362 2413.04 Q719.326 2417.56 719.326 2425.54 Q719.326 2433.5 715.362 2438.04 Q711.398 2442.56 704.453 2442.56 Q697.48 2442.56 693.516 2438.04 Q689.58 2433.5 689.58 2425.54 Q689.58 2417.56 693.516 2413.04 Q697.48 2408.53 704.453 2408.53 Z" fill="#000000" fill-rule="nonzero" fill-opacity="1" /><path clip-path="url(#clip820)" d="M748.811 2410.26 L748.811 2415.3 Q746.554 2414.14 744.123 2413.56 Q741.692 2412.98 739.088 2412.98 Q735.124 2412.98 733.128 2414.2 Q731.16 2415.42 731.16 2417.85 Q731.16 2419.7 732.578 2420.77 Q733.996 2421.81 738.278 2422.76 L740.101 2423.17 Q745.772 2424.39 748.145 2426.61 Q750.547 2428.81 750.547 2432.78 Q750.547 2437.29 746.959 2439.92 Q743.4 2442.56 737.15 2442.56 Q734.546 2442.56 731.71 2442.04 Q728.903 2441.54 725.778 2440.53 L725.778 2435.03 Q728.73 2436.57 731.594 2437.35 Q734.459 2438.1 737.265 2438.1 Q741.027 2438.1 743.052 2436.83 Q745.078 2435.53 745.078 2433.18 Q745.078 2431.01 743.602 2429.85 Q742.155 2428.7 737.208 2427.63 L735.356 2427.19 Q730.408 2426.15 728.209 2424.01 Q726.01 2421.84 726.01 2418.08 Q726.01 2413.51 729.25 2411.02 Q732.491 2408.53 738.452 2408.53 Q741.403 2408.53 744.007 2408.96 Q746.611 2409.4 748.811 2410.26 Z" fill="#000000" fill-rule="nonzero" fill-opacity="1" /><path clip-path="url(#clip820)" d="M779.684 2410.26 L779.684 2415.3 Q777.427 2414.14 774.997 2413.56 Q772.566 2412.98 769.962 2412.98 Q765.998 2412.98 764.001 2414.2 Q762.034 2415.42 762.034 2417.85 Q762.034 2419.7 763.452 2420.77 Q764.869 2421.81 769.152 2422.76 L770.975 2423.17 Q776.646 2424.39 779.019 2426.61 Q781.42 2428.81 781.42 2432.78 Q781.42 2437.29 777.832 2439.92 Q774.273 2442.56 768.023 2442.56 Q765.419 2442.56 762.584 2442.04 Q759.777 2441.54 756.652 2440.53 L756.652 2435.03 Q759.603 2436.57 762.468 2437.35 Q765.332 2438.1 768.139 2438.1 Q771.901 2438.1 773.926 2436.83 Q775.952 2435.53 775.952 2433.18 Q775.952 2431.01 774.476 2429.85 Q773.029 2428.7 768.081 2427.63 L766.229 2427.19 Q761.282 2426.15 759.082 2424.01 Q756.883 2421.84 756.883 2418.08 Q756.883 2413.51 760.124 2411.02 Q763.365 2408.53 769.325 2408.53 Q772.277 2408.53 774.881 2408.96 Q777.485 2409.4 779.684 2410.26 Z" fill="#000000" fill-rule="nonzero" fill-opacity="1" /></svg>
