<?xml version="1.0" encoding="utf-8"?>
<svg xmlns="http://www.w3.org/2000/svg" xmlns:xlink="http://www.w3.org/1999/xlink" width="150" height="356" viewBox="0 0 600 1424">
<defs>
  <clipPath id="clip500">
    <rect x="0" y="0" width="600" height="1424"/>
  </clipPath>
</defs>
<path clip-path="url(#clip500)" d="M0 1424 L600 1424 L600 0 L0 0  Z" fill="#ffffff" fill-rule="evenodd" fill-opacity="1"/>
<defs>
  <clipPath id="clip501">
    <rect x="284" y="142" width="600" height="998"/>
  </clipPath>
</defs>
<path clip-path="url(#clip500)" d="M47.2441 1217.51 L552.756 1217.51 L552.756 206.488 L47.2441 206.488  Z" fill="#ffffff" fill-rule="evenodd" fill-opacity="1"/>
<defs>
  <clipPath id="clip502">
    <rect x="47" y="206" width="507" height="1012"/>
  </clipPath>
</defs>
<polyline clip-path="url(#clip502)" style="stroke:#000000; stroke-linecap:round; stroke-linejoin:round; stroke-width:4; stroke-opacity:1; fill:none" points="119.46,350.92 300,821.418 "/>
<polyline clip-path="url(#clip502)" style="stroke:#000000; stroke-linecap:round; stroke-linejoin:round; stroke-width:4; stroke-opacity:1; fill:none" points="480.54,350.92 300,821.418 "/>
<polyline clip-path="url(#clip502)" style="stroke:#000000; stroke-linecap:round; stroke-linejoin:round; stroke-width:4; stroke-opacity:1; fill:none" points="300,821.418 300,1073.08 "/>
<path clip-path="url(#clip502)" d="M188.043 350.92 L187.826 345.471 L187.177 340.057 L186.1 334.711 L184.601 329.468 L182.691 324.36 L180.381 319.42 L177.686 314.68 L174.622 310.168 L171.21 305.914 L167.471 301.945 L163.428 298.285 L159.107 294.958 L154.536 291.985 L149.743 289.385 L144.758 287.173 L139.613 285.365 L134.341 283.971 L128.975 283 L123.549 282.459 L118.096 282.351 L112.653 282.676 L107.252 283.432 L101.929 284.616 L96.7167 286.218 L91.648 288.23 L86.7551 290.637 L82.069 293.426 L77.6193 296.579 L73.4342 300.075 L69.54 303.892 L65.9615 308.007 L62.7212 312.393 L59.8396 317.023 L57.3349 321.867 L55.223 326.895 L53.5173 332.074 L52.2284 337.373 L51.3647 342.758 L50.9314 348.194 L50.9314 353.647 L51.3647 359.083 L52.2284 364.467 L53.5173 369.766 L55.223 374.945 L57.3349 379.973 L59.8396 384.817 L62.7212 389.447 L65.9615 393.833 L69.54 397.948 L73.4342 401.765 L77.6193 405.261 L82.069 408.414 L86.7551 411.203 L91.648 413.611 L96.7167 415.622 L101.929 417.225 L107.252 418.408 L112.653 419.164 L118.096 419.489 L123.549 419.381 L128.975 418.84 L134.341 417.869 L139.613 416.475 L144.758 414.667 L149.743 412.455 L154.536 409.855 L159.107 406.882 L163.428 403.555 L167.471 399.895 L171.21 395.926 L174.622 391.672 L177.686 387.161 L180.381 382.42 L182.691 377.48 L184.601 372.373 L186.1 367.129 L187.177 361.784 L187.826 356.369 L188.043 350.92 L188.043 350.92  Z" fill="#c721dd" fill-rule="evenodd" fill-opacity="1"/>
<polyline clip-path="url(#clip502)" style="stroke:#000000; stroke-linecap:round; stroke-linejoin:round; stroke-width:4; stroke-opacity:1; fill:none" points="188.043,350.92 187.826,345.471 187.177,340.057 186.1,334.711 184.601,329.468 182.691,324.36 180.381,319.42 177.686,314.68 174.622,310.168 171.21,305.914 167.471,301.945 163.428,298.285 159.107,294.958 154.536,291.985 149.743,289.385 144.758,287.173 139.613,285.365 134.341,283.971 128.975,283 123.549,282.459 118.096,282.351 112.653,282.676 107.252,283.432 101.929,284.616 96.7167,286.218 91.648,288.23 86.7551,290.637 82.069,293.426 77.6193,296.579 73.4342,300.075 69.54,303.892 65.9615,308.007 62.7212,312.393 59.8396,317.023 57.3349,321.867 55.223,326.895 53.5173,332.074 52.2284,337.373 51.3647,342.758 50.9314,348.194 50.9314,353.647 51.3647,359.083 52.2284,364.467 53.5173,369.766 55.223,374.945 57.3349,379.973 59.8396,384.817 62.7212,389.447 65.9615,393.833 69.54,397.948 73.4342,401.765 77.6193,405.261 82.069,408.414 86.7551,411.203 91.648,413.611 96.7167,415.622 101.929,417.225 107.252,418.408 112.653,419.164 118.096,419.489 123.549,419.381 128.975,418.84 134.341,417.869 139.613,416.475 144.758,414.667 149.743,412.455 154.536,409.855 159.107,406.882 163.428,403.555 167.471,399.895 171.21,395.926 174.622,391.672 177.686,387.161 180.381,382.42 182.691,377.48 184.601,372.373 186.1,367.129 187.177,361.784 187.826,356.369 188.043,350.92 "/>
<path clip-path="url(#clip502)" d="M549.123 350.92 L548.906 345.471 L548.257 340.057 L547.18 334.711 L545.681 329.468 L543.771 324.36 L541.461 319.42 L538.766 314.68 L535.702 310.168 L532.29 305.914 L528.551 301.945 L524.508 298.285 L520.187 294.958 L515.616 291.985 L510.822 289.385 L505.838 287.173 L500.693 285.365 L495.421 283.971 L490.055 283 L484.629 282.459 L479.176 282.351 L473.733 282.676 L468.332 283.432 L463.009 284.616 L457.797 286.218 L452.728 288.23 L447.835 290.637 L443.149 293.426 L438.699 296.579 L434.514 300.075 L430.62 303.892 L427.041 308.007 L423.801 312.393 L420.919 317.023 L418.415 321.867 L416.303 326.895 L414.597 332.074 L413.308 337.373 L412.445 342.758 L412.011 348.194 L412.011 353.647 L412.445 359.083 L413.308 364.467 L414.597 369.766 L416.303 374.945 L418.415 379.973 L420.919 384.817 L423.801 389.447 L427.041 393.833 L430.62 397.948 L434.514 401.765 L438.699 405.261 L443.149 408.414 L447.835 411.203 L452.728 413.611 L457.797 415.622 L463.009 417.225 L468.332 418.408 L473.733 419.164 L479.176 419.489 L484.629 419.381 L490.055 418.84 L495.421 417.869 L500.693 416.475 L505.838 414.667 L510.822 412.455 L515.616 409.855 L520.187 406.882 L524.508 403.555 L528.551 399.895 L532.29 395.926 L535.702 391.672 L538.766 387.161 L541.461 382.42 L543.771 377.48 L545.681 372.373 L547.18 367.129 L548.257 361.784 L548.906 356.369 L549.123 350.92 L549.123 350.92  Z" fill="#d14a00" fill-rule="evenodd" fill-opacity="1"/>
<polyline clip-path="url(#clip502)" style="stroke:#000000; stroke-linecap:round; stroke-linejoin:round; stroke-width:4; stroke-opacity:1; fill:none" points="549.123,350.92 548.906,345.471 548.257,340.057 547.18,334.711 545.681,329.468 543.771,324.36 541.461,319.42 538.766,314.68 535.702,310.168 532.29,305.914 528.551,301.945 524.508,298.285 520.187,294.958 515.616,291.985 510.822,289.385 505.838,287.173 500.693,285.365 495.421,283.971 490.055,283 484.629,282.459 479.176,282.351 473.733,282.676 468.332,283.432 463.009,284.616 457.797,286.218 452.728,288.23 447.835,290.637 443.149,293.426 438.699,296.579 434.514,300.075 430.62,303.892 427.041,308.007 423.801,312.393 420.919,317.023 418.415,321.867 416.303,326.895 414.597,332.074 413.308,337.373 412.445,342.758 412.011,348.194 412.011,353.647 412.445,359.083 413.308,364.467 414.597,369.766 416.303,374.945 418.415,379.973 420.919,384.817 423.801,389.447 427.041,393.833 430.62,397.948 434.514,401.765 438.699,405.261 443.149,408.414 447.835,411.203 452.728,413.611 457.797,415.622 463.009,417.225 468.332,418.408 473.733,419.164 479.176,419.489 484.629,419.381 490.055,418.84 495.421,417.869 500.693,416.475 505.838,414.667 510.822,412.455 515.616,409.855 520.187,406.882 524.508,403.555 528.551,399.895 532.29,395.926 535.702,391.672 538.766,387.161 541.461,382.42 543.771,377.48 545.681,372.373 547.18,367.129 548.257,361.784 548.906,356.369 549.123,350.92 "/>
<path clip-path="url(#clip502)" d="M339.391 821.418 L339.266 818.289 L338.893 815.179 L338.275 812.108 L337.414 809.097 L336.317 806.163 L334.99 803.326 L333.442 800.603 L331.682 798.012 L329.723 795.569 L327.575 793.289 L325.253 791.187 L322.771 789.277 L320.146 787.569 L317.393 786.075 L314.53 784.805 L311.575 783.767 L308.547 782.966 L305.465 782.409 L302.348 782.098 L299.217 782.035 L296.09 782.222 L292.989 782.657 L289.931 783.336 L286.937 784.257 L284.026 785.412 L281.216 786.795 L278.524 788.397 L275.969 790.207 L273.565 792.215 L271.328 794.408 L269.273 796.771 L267.412 799.29 L265.757 801.949 L264.318 804.732 L263.106 807.619 L262.126 810.594 L261.386 813.637 L260.889 816.73 L260.641 819.852 L260.641 822.984 L260.889 826.106 L261.386 829.199 L262.126 832.242 L263.106 835.217 L264.318 838.105 L265.757 840.887 L267.412 843.546 L269.273 846.065 L271.328 848.428 L273.565 850.621 L275.969 852.629 L278.524 854.44 L281.216 856.041 L284.026 857.424 L286.937 858.58 L289.931 859.5 L292.989 860.18 L296.09 860.614 L299.217 860.801 L302.348 860.739 L305.465 860.428 L308.547 859.87 L311.575 859.07 L314.53 858.031 L317.393 856.761 L320.146 855.267 L322.771 853.56 L325.253 851.649 L327.575 849.547 L329.723 847.267 L331.682 844.824 L333.442 842.233 L334.99 839.51 L336.317 836.673 L337.414 833.739 L338.275 830.728 L338.893 827.658 L339.266 824.548 L339.391 821.418 L339.391 821.418  Z" fill="#e5e5e5" fill-rule="evenodd" fill-opacity="1"/>
<polyline clip-path="url(#clip502)" style="stroke:#000000; stroke-linecap:round; stroke-linejoin:round; stroke-width:4; stroke-opacity:1; fill:none" points="339.391,821.418 339.266,818.289 338.893,815.179 338.275,812.108 337.414,809.097 336.317,806.163 334.99,803.326 333.442,800.603 331.682,798.012 329.723,795.569 327.575,793.289 325.253,791.187 322.771,789.277 320.146,787.569 317.393,786.075 314.53,784.805 311.575,783.767 308.547,782.966 305.465,782.409 302.348,782.098 299.217,782.035 296.09,782.222 292.989,782.657 289.931,783.336 286.937,784.257 284.026,785.412 281.216,786.795 278.524,788.397 275.969,790.207 273.565,792.215 271.328,794.408 269.273,796.771 267.412,799.29 265.757,801.949 264.318,804.732 263.106,807.619 262.126,810.594 261.386,813.637 260.889,816.73 260.641,819.852 260.641,822.984 260.889,826.106 261.386,829.199 262.126,832.242 263.106,835.217 264.318,838.105 265.757,840.887 267.412,843.546 269.273,846.065 271.328,848.428 273.565,850.621 275.969,852.629 278.524,854.44 281.216,856.041 284.026,857.424 286.937,858.58 289.931,859.5 292.989,860.18 296.09,860.614 299.217,860.801 302.348,860.739 305.465,860.428 308.547,859.87 311.575,859.07 314.53,858.031 317.393,856.761 320.146,855.267 322.771,853.56 325.253,851.649 327.575,849.547 329.723,847.267 331.682,844.824 333.442,842.233 334.99,839.51 336.317,836.673 337.414,833.739 338.275,830.728 338.893,827.658 339.266,824.548 339.391,821.418 "/>
<path clip-path="url(#clip502)" d="M368.583 1073.08 L368.366 1067.63 L367.717 1062.22 L366.64 1056.87 L365.141 1051.63 L363.231 1046.52 L360.921 1041.58 L358.226 1036.84 L355.162 1032.33 L351.75 1028.07 L348.011 1024.1 L343.968 1020.45 L339.647 1017.12 L335.076 1014.15 L330.282 1011.54 L325.298 1009.33 L320.153 1007.52 L314.881 1006.13 L309.515 1005.16 L304.089 1004.62 L298.636 1004.51 L293.193 1004.84 L287.792 1005.59 L282.469 1006.78 L277.257 1008.38 L272.188 1010.39 L267.295 1012.8 L262.609 1015.59 L258.159 1018.74 L253.974 1022.23 L250.08 1026.05 L246.501 1030.17 L243.261 1034.55 L240.379 1039.18 L237.875 1044.03 L235.763 1049.05 L234.057 1054.23 L232.768 1059.53 L231.905 1064.92 L231.471 1070.35 L231.471 1075.81 L231.905 1081.24 L232.768 1086.63 L234.057 1091.93 L235.763 1097.11 L237.875 1102.13 L240.379 1106.98 L243.261 1111.61 L246.501 1115.99 L250.08 1120.11 L253.974 1123.93 L258.159 1127.42 L262.609 1130.57 L267.295 1133.36 L272.188 1135.77 L277.257 1137.78 L282.469 1139.38 L287.792 1140.57 L293.193 1141.32 L298.636 1141.65 L304.089 1141.54 L309.515 1141 L314.881 1140.03 L320.153 1138.63 L325.298 1136.83 L330.282 1134.62 L335.076 1132.01 L339.647 1129.04 L343.968 1125.71 L348.011 1122.06 L351.75 1118.09 L355.162 1113.83 L358.226 1109.32 L360.921 1104.58 L363.231 1099.64 L365.141 1094.53 L366.64 1089.29 L367.717 1083.94 L368.366 1078.53 L368.583 1073.08 L368.583 1073.08  Z" fill="#e5e5e5" fill-rule="evenodd" fill-opacity="1"/>
<polyline clip-path="url(#clip502)" style="stroke:#000000; stroke-linecap:round; stroke-linejoin:round; stroke-width:4; stroke-opacity:1; fill:none" points="368.583,1073.08 368.366,1067.63 367.717,1062.22 366.64,1056.87 365.141,1051.63 363.231,1046.52 360.921,1041.58 358.226,1036.84 355.162,1032.33 351.75,1028.07 348.011,1024.1 343.968,1020.45 339.647,1017.12 335.076,1014.15 330.282,1011.54 325.298,1009.33 320.153,1007.52 314.881,1006.13 309.515,1005.16 304.089,1004.62 298.636,1004.51 293.193,1004.84 287.792,1005.59 282.469,1006.78 277.257,1008.38 272.188,1010.39 267.295,1012.8 262.609,1015.59 258.159,1018.74 253.974,1022.23 250.08,1026.05 246.501,1030.17 243.261,1034.55 240.379,1039.18 237.875,1044.03 235.763,1049.05 234.057,1054.23 232.768,1059.53 231.905,1064.92 231.471,1070.35 231.471,1075.81 231.905,1081.24 232.768,1086.63 234.057,1091.93 235.763,1097.11 237.875,1102.13 240.379,1106.98 243.261,1111.61 246.501,1115.99 250.08,1120.11 253.974,1123.93 258.159,1127.42 262.609,1130.57 267.295,1133.36 272.188,1135.77 277.257,1137.78 282.469,1139.38 287.792,1140.57 293.193,1141.32 298.636,1141.65 304.089,1141.54 309.515,1141 314.881,1140.03 320.153,1138.63 325.298,1136.83 330.282,1134.62 335.076,1132.01 339.647,1129.04 343.968,1125.71 348.011,1122.06 351.75,1118.09 355.162,1113.83 358.226,1109.32 360.921,1104.58 363.231,1099.64 365.141,1094.53 366.64,1089.29 367.717,1083.94 368.366,1078.53 368.583,1073.08 "/>
<circle clip-path="url(#clip502)" style="fill:#e5e5e5; stroke:none; fill-opacity:0" cx="119.46" cy="350.92" r="2"/>
<circle clip-path="url(#clip502)" style="fill:#e5e5e5; stroke:none; fill-opacity:0" cx="480.54" cy="350.92" r="2"/>
<circle clip-path="url(#clip502)" style="fill:#e5e5e5; stroke:none; fill-opacity:0" cx="300" cy="821.418" r="2"/>
<circle clip-path="url(#clip502)" style="fill:#e5e5e5; stroke:none; fill-opacity:0" cx="300" cy="1073.08" r="2"/>
<path clip-path="url(#clip500)" d="M94.2287 334.123 L94.2287 350.356 L101.578 350.356 Q105.658 350.356 107.886 348.244 Q110.114 346.131 110.114 342.225 Q110.114 338.348 107.886 336.236 Q105.658 334.123 101.578 334.123 L94.2287 334.123 M88.3838 329.32 L101.578 329.32 Q108.841 329.32 112.545 332.619 Q116.277 335.888 116.277 342.225 Q116.277 348.62 112.545 351.889 Q108.841 355.159 101.578 355.159 L94.2287 355.159 L94.2287 372.52 L88.3838 372.52 L88.3838 329.32 Z" fill="#000000" fill-rule="nonzero" fill-opacity="1" /><path clip-path="url(#clip500)" d="M125.652 367.601 L135.201 367.601 L135.201 334.644 L124.813 336.728 L124.813 331.403 L135.143 329.32 L140.988 329.32 L140.988 367.601 L150.536 367.601 L150.536 372.52 L125.652 372.52 L125.652 367.601 Z" fill="#000000" fill-rule="nonzero" fill-opacity="1" /><path clip-path="url(#clip500)" d="M455.54 334.123 L455.54 350.356 L462.89 350.356 Q466.969 350.356 469.197 348.244 Q471.425 346.131 471.425 342.225 Q471.425 338.348 469.197 336.236 Q466.969 334.123 462.89 334.123 L455.54 334.123 M449.695 329.32 L462.89 329.32 Q470.152 329.32 473.856 332.619 Q477.589 335.888 477.589 342.225 Q477.589 348.62 473.856 351.889 Q470.152 355.159 462.89 355.159 L455.54 355.159 L455.54 372.52 L449.695 372.52 L449.695 329.32 Z" fill="#000000" fill-rule="nonzero" fill-opacity="1" /><path clip-path="url(#clip500)" d="M490.985 367.601 L511.385 367.601 L511.385 372.52 L483.954 372.52 L483.954 367.601 Q487.282 364.158 493.011 358.371 Q498.769 352.555 500.245 350.877 Q503.051 347.723 504.151 345.553 Q505.279 343.354 505.279 341.241 Q505.279 337.798 502.849 335.628 Q500.447 333.458 496.57 333.458 Q493.821 333.458 490.754 334.413 Q487.716 335.368 484.244 337.306 L484.244 331.403 Q487.774 329.986 490.841 329.262 Q493.908 328.539 496.454 328.539 Q503.167 328.539 507.16 331.895 Q511.153 335.252 511.153 340.865 Q511.153 343.527 510.14 345.929 Q509.157 348.302 506.524 351.542 Q505.8 352.381 501.923 356.403 Q498.046 360.396 490.985 367.601 Z" fill="#000000" fill-rule="nonzero" fill-opacity="1" /><path clip-path="url(#clip500)" d="M305.31 819.725 Q309.505 820.622 311.849 823.458 Q314.222 826.294 314.222 830.46 Q314.222 836.855 309.823 840.356 Q305.425 843.857 297.324 843.857 Q294.604 843.857 291.71 843.307 Q288.846 842.787 285.778 841.716 L285.778 836.074 Q288.209 837.492 291.102 838.215 Q293.996 838.938 297.15 838.938 Q302.648 838.938 305.512 836.768 Q308.406 834.598 308.406 830.46 Q308.406 826.641 305.715 824.5 Q303.053 822.33 298.278 822.33 L293.244 822.33 L293.244 817.526 L298.51 817.526 Q302.821 817.526 305.107 815.819 Q307.393 814.083 307.393 810.842 Q307.393 807.515 305.02 805.75 Q302.676 803.956 298.278 803.956 Q295.877 803.956 293.128 804.477 Q290.379 804.998 287.081 806.097 L287.081 800.889 Q290.408 799.963 293.302 799.5 Q296.224 799.037 298.799 799.037 Q305.454 799.037 309.332 802.075 Q313.209 805.084 313.209 810.235 Q313.209 813.823 311.154 816.311 Q309.1 818.771 305.31 819.725 Z" fill="#000000" fill-rule="nonzero" fill-opacity="1" /><path clip-path="url(#clip500)" d="M266.566 1056.28 L266.566 1089.88 L273.626 1089.88 Q282.567 1089.88 286.704 1085.83 Q290.871 1081.77 290.871 1073.04 Q290.871 1064.36 286.704 1060.33 Q282.567 1056.28 273.626 1056.28 L266.566 1056.28 M260.721 1051.48 L272.729 1051.48 Q285.287 1051.48 291.16 1056.72 Q297.034 1061.93 297.034 1073.04 Q297.034 1084.21 291.131 1089.44 Q285.229 1094.68 272.729 1094.68 L260.721 1094.68 L260.721 1051.48 Z" fill="#000000" fill-rule="nonzero" fill-opacity="1" /><path clip-path="url(#clip500)" d="M306.351 1051.48 L312.196 1051.48 L312.196 1069.19 L333.434 1069.19 L333.434 1051.48 L339.279 1051.48 L339.279 1094.68 L333.434 1094.68 L333.434 1074.11 L312.196 1074.11 L312.196 1094.68 L306.351 1094.68 L306.351 1051.48 Z" fill="#000000" fill-rule="nonzero" fill-opacity="1" /></svg>
