<?xml version="1.0" encoding="utf-8"?>
<svg xmlns="http://www.w3.org/2000/svg" xmlns:xlink="http://www.w3.org/1999/xlink" width="150" height="724" viewBox="0 0 600 2896">
<defs>
  <clipPath id="clip380">
    <rect x="0" y="0" width="600" height="2896"/>
  </clipPath>
</defs>
<path clip-path="url(#clip380)" d="M0 2896 L600 2896 L600 0 L0 0  Z" fill="#ffffff" fill-rule="evenodd" fill-opacity="1"/>
<defs>
  <clipPath id="clip381">
    <rect x="579" y="289" width="600" height="2028"/>
  </clipPath>
</defs>
<path clip-path="url(#clip380)" d="M47.2441 2658.16 L552.756 2658.16 L552.756 237.835 L47.2441 237.835  Z" fill="#ffffff" fill-rule="evenodd" fill-opacity="1"/>
<defs>
  <clipPath id="clip382">
    <rect x="47" y="237" width="507" height="2421"/>
  </clipPath>
</defs>
<polyline clip-path="url(#clip382)" style="stroke:#000000; stroke-linecap:round; stroke-linejoin:round; stroke-width:4; stroke-opacity:1; fill:none" points="119.46,583.597 300,1054.09 "/>
<polyline clip-path="url(#clip382)" style="stroke:#000000; stroke-linecap:round; stroke-linejoin:round; stroke-width:4; stroke-opacity:1; fill:none" points="119.46,583.597 217.936,1305.76 "/>
<polyline clip-path="url(#clip382)" style="stroke:#000000; stroke-linecap:round; stroke-linejoin:round; stroke-width:4; stroke-opacity:1; fill:none" points="119.46,583.597 176.905,1557.42 "/>
<polyline clip-path="url(#clip382)" style="stroke:#000000; stroke-linecap:round; stroke-linejoin:round; stroke-width:4; stroke-opacity:1; fill:none" points="480.54,583.597 300,1054.09 "/>
<polyline clip-path="url(#clip382)" style="stroke:#000000; stroke-linecap:round; stroke-linejoin:round; stroke-width:4; stroke-opacity:1; fill:none" points="300,1054.09 217.936,1305.76 "/>
<polyline clip-path="url(#clip382)" style="stroke:#000000; stroke-linecap:round; stroke-linejoin:round; stroke-width:4; stroke-opacity:1; fill:none" points="217.936,1305.76 176.905,1557.42 "/>
<polyline clip-path="url(#clip382)" style="stroke:#000000; stroke-linecap:round; stroke-linejoin:round; stroke-width:4; stroke-opacity:1; fill:none" points="176.905,1557.42 176.905,1809.08 "/>
<polyline clip-path="url(#clip382)" style="stroke:#000000; stroke-linecap:round; stroke-linejoin:round; stroke-width:4; stroke-opacity:1; fill:none" points="176.905,1809.08 176.905,2060.74 "/>
<polyline clip-path="url(#clip382)" style="stroke:#000000; stroke-linecap:round; stroke-linejoin:round; stroke-width:4; stroke-opacity:1; fill:none" points="176.905,2060.74 176.905,2312.4 "/>
<path clip-path="url(#clip382)" d="M181.185 583.597 L180.99 578.693 L180.405 573.82 L179.436 569.008 L178.087 564.289 L176.368 559.693 L174.289 555.247 L171.863 550.98 L169.106 546.92 L166.035 543.091 L162.67 539.519 L159.031 536.225 L155.143 533.231 L151.028 530.555 L146.714 528.215 L142.228 526.225 L137.598 524.597 L132.853 523.343 L128.023 522.469 L123.14 521.982 L118.233 521.884 L113.334 522.177 L108.473 522.858 L103.682 523.923 L98.991 525.365 L94.4292 527.175 L90.0256 529.342 L85.8081 531.852 L81.8034 534.69 L78.0368 537.836 L74.532 541.272 L71.3113 544.975 L68.3951 548.923 L65.8016 553.089 L63.5474 557.449 L61.6467 561.974 L60.1116 566.636 L58.9516 571.404 L58.1742 576.25 L57.7843 581.143 L57.7843 586.051 L58.1742 590.943 L58.9516 595.789 L60.1116 600.558 L61.6467 605.219 L63.5474 609.744 L65.8016 614.104 L68.3951 618.271 L71.3113 622.218 L74.532 625.922 L78.0368 629.357 L81.8034 632.504 L85.8081 635.341 L90.0256 637.851 L94.4292 640.018 L98.991 641.829 L103.682 643.271 L108.473 644.336 L113.334 645.017 L118.233 645.309 L123.14 645.212 L128.023 644.724 L132.853 643.851 L137.598 642.596 L142.228 640.969 L146.714 638.978 L151.028 636.638 L155.143 633.962 L159.031 630.968 L162.67 627.674 L166.035 624.102 L169.106 620.274 L171.863 616.213 L174.289 611.947 L176.368 607.501 L178.087 602.904 L179.436 598.185 L180.405 593.374 L180.99 588.501 L181.185 583.597 L181.185 583.597  Z" fill="#c721dd" fill-rule="evenodd" fill-opacity="1"/>
<polyline clip-path="url(#clip382)" style="stroke:#000000; stroke-linecap:round; stroke-linejoin:round; stroke-width:4; stroke-opacity:1; fill:none" points="181.185,583.597 180.99,578.693 180.405,573.82 179.436,569.008 178.087,564.289 176.368,559.693 174.289,555.247 171.863,550.98 169.106,546.92 166.035,543.091 162.67,539.519 159.031,536.225 155.143,533.231 151.028,530.555 146.714,528.215 142.228,526.225 137.598,524.597 132.853,523.343 128.023,522.469 123.14,521.982 118.233,521.884 113.334,522.177 108.473,522.858 103.682,523.923 98.991,525.365 94.4292,527.175 90.0256,529.342 85.8081,531.852 81.8034,534.69 78.0368,537.836 74.532,541.272 71.3113,544.975 68.3951,548.923 65.8016,553.089 63.5474,557.449 61.6467,561.974 60.1116,566.636 58.9516,571.404 58.1742,576.25 57.7843,581.143 57.7843,586.051 58.1742,590.943 58.9516,595.789 60.1116,600.558 61.6467,605.219 63.5474,609.744 65.8016,614.104 68.3951,618.271 71.3113,622.218 74.532,625.922 78.0368,629.357 81.8034,632.504 85.8081,635.341 90.0256,637.851 94.4292,640.018 98.991,641.829 103.682,643.271 108.473,644.336 113.334,645.017 118.233,645.309 123.14,645.212 128.023,644.724 132.853,643.851 137.598,642.596 142.228,640.969 146.714,638.978 151.028,636.638 155.143,633.962 159.031,630.968 162.67,627.674 166.035,624.102 169.106,620.274 171.863,616.213 174.289,611.947 176.368,607.501 178.087,602.904 179.436,598.185 180.405,593.374 180.99,588.501 181.185,583.597 "/>
<path clip-path="url(#clip382)" d="M542.265 583.597 L542.069 578.693 L541.485 573.82 L540.516 569.008 L539.167 564.289 L537.448 559.693 L535.369 555.247 L532.943 550.98 L530.186 546.92 L527.115 543.091 L523.75 539.519 L520.111 536.225 L516.222 533.231 L512.108 530.555 L507.794 528.215 L503.308 526.225 L498.678 524.597 L493.933 523.343 L489.103 522.469 L484.22 521.982 L479.313 521.884 L474.414 522.177 L469.553 522.858 L464.762 523.923 L460.071 525.365 L455.509 527.175 L451.105 529.342 L446.888 531.852 L442.883 534.69 L439.117 537.836 L435.612 541.272 L432.391 544.975 L429.475 548.923 L426.881 553.089 L424.627 557.449 L422.727 561.974 L421.191 566.636 L420.031 571.404 L419.254 576.25 L418.864 581.143 L418.864 586.051 L419.254 590.943 L420.031 595.789 L421.191 600.558 L422.727 605.219 L424.627 609.744 L426.881 614.104 L429.475 618.271 L432.391 622.218 L435.612 625.922 L439.117 629.357 L442.883 632.504 L446.888 635.341 L451.105 637.851 L455.509 640.018 L460.071 641.829 L464.762 643.271 L469.553 644.336 L474.414 645.017 L479.313 645.309 L484.22 645.212 L489.103 644.724 L493.933 643.851 L498.678 642.596 L503.308 640.969 L507.794 638.978 L512.108 636.638 L516.222 633.962 L520.111 630.968 L523.75 627.674 L527.115 624.102 L530.186 620.274 L532.943 616.213 L535.369 611.947 L537.448 607.501 L539.167 602.904 L540.516 598.185 L541.485 593.374 L542.069 588.501 L542.265 583.597 L542.265 583.597  Z" fill="#d14a00" fill-rule="evenodd" fill-opacity="1"/>
<polyline clip-path="url(#clip382)" style="stroke:#000000; stroke-linecap:round; stroke-linejoin:round; stroke-width:4; stroke-opacity:1; fill:none" points="542.265,583.597 542.069,578.693 541.485,573.82 540.516,569.008 539.167,564.289 537.448,559.693 535.369,555.247 532.943,550.98 530.186,546.92 527.115,543.091 523.75,539.519 520.111,536.225 516.222,533.231 512.108,530.555 507.794,528.215 503.308,526.225 498.678,524.597 493.933,523.343 489.103,522.469 484.22,521.982 479.313,521.884 474.414,522.177 469.553,522.858 464.762,523.923 460.071,525.365 455.509,527.175 451.105,529.342 446.888,531.852 442.883,534.69 439.117,537.836 435.612,541.272 432.391,544.975 429.475,548.923 426.881,553.089 424.627,557.449 422.727,561.974 421.191,566.636 420.031,571.404 419.254,576.25 418.864,581.143 418.864,586.051 419.254,590.943 420.031,595.789 421.191,600.558 422.727,605.219 424.627,609.744 426.881,614.104 429.475,618.271 432.391,622.218 435.612,625.922 439.117,629.357 442.883,632.504 446.888,635.341 451.105,637.851 455.509,640.018 460.071,641.829 464.762,643.271 469.553,644.336 474.414,645.017 479.313,645.309 484.22,645.212 489.103,644.724 493.933,643.851 498.678,642.596 503.308,640.969 507.794,638.978 512.108,636.638 516.222,633.962 520.111,630.968 523.75,627.674 527.115,624.102 530.186,620.274 532.943,616.213 535.369,611.947 537.448,607.501 539.167,602.904 540.516,598.185 541.485,593.374 542.069,588.501 542.265,583.597 "/>
<path clip-path="url(#clip382)" d="M335.451 1054.09 L335.339 1051.28 L335.004 1048.48 L334.447 1045.72 L333.673 1043.01 L332.685 1040.37 L331.491 1037.81 L330.098 1035.36 L328.514 1033.03 L326.75 1030.83 L324.818 1028.78 L322.728 1026.89 L320.494 1025.17 L318.131 1023.63 L315.653 1022.29 L313.077 1021.14 L310.417 1020.21 L307.692 1019.49 L304.918 1018.99 L302.113 1018.71 L299.295 1018.65 L296.481 1018.82 L293.69 1019.21 L290.938 1019.82 L288.244 1020.65 L285.624 1021.69 L283.094 1022.93 L280.672 1024.38 L278.372 1026 L276.209 1027.81 L274.196 1029.79 L272.346 1031.91 L270.671 1034.18 L269.181 1036.57 L267.887 1039.08 L266.795 1041.68 L265.913 1044.35 L265.247 1047.09 L264.801 1049.88 L264.577 1052.69 L264.577 1055.5 L264.801 1058.31 L265.247 1061.1 L265.913 1063.84 L266.795 1066.51 L267.887 1069.11 L269.181 1071.62 L270.671 1074.01 L272.346 1076.28 L274.196 1078.4 L276.209 1080.38 L278.372 1082.18 L280.672 1083.81 L283.094 1085.26 L285.624 1086.5 L288.244 1087.54 L290.938 1088.37 L293.69 1088.98 L296.481 1089.37 L299.295 1089.54 L302.113 1089.48 L304.918 1089.2 L307.692 1088.7 L310.417 1087.98 L313.077 1087.05 L315.653 1085.9 L318.131 1084.56 L320.494 1083.02 L322.728 1081.3 L324.818 1079.41 L326.75 1077.36 L328.514 1075.16 L330.098 1072.83 L331.491 1070.38 L332.685 1067.82 L333.673 1065.18 L334.447 1062.47 L335.004 1059.71 L335.339 1056.91 L335.451 1054.09 L335.451 1054.09  Z" fill="#e5e5e5" fill-rule="evenodd" fill-opacity="1"/>
<polyline clip-path="url(#clip382)" style="stroke:#000000; stroke-linecap:round; stroke-linejoin:round; stroke-width:4; stroke-opacity:1; fill:none" points="335.451,1054.09 335.339,1051.28 335.004,1048.48 334.447,1045.72 333.673,1043.01 332.685,1040.37 331.491,1037.81 330.098,1035.36 328.514,1033.03 326.75,1030.83 324.818,1028.78 322.728,1026.89 320.494,1025.17 318.131,1023.63 315.653,1022.29 313.077,1021.14 310.417,1020.21 307.692,1019.49 304.918,1018.99 302.113,1018.71 299.295,1018.65 296.481,1018.82 293.69,1019.21 290.938,1019.82 288.244,1020.65 285.624,1021.69 283.094,1022.93 280.672,1024.38 278.372,1026 276.209,1027.81 274.196,1029.79 272.346,1031.91 270.671,1034.18 269.181,1036.57 267.887,1039.08 266.795,1041.68 265.913,1044.35 265.247,1047.09 264.801,1049.88 264.577,1052.69 264.577,1055.5 264.801,1058.31 265.247,1061.1 265.913,1063.84 266.795,1066.51 267.887,1069.11 269.181,1071.62 270.671,1074.01 272.346,1076.28 274.196,1078.4 276.209,1080.38 278.372,1082.18 280.672,1083.81 283.094,1085.26 285.624,1086.5 288.244,1087.54 290.938,1088.37 293.69,1088.98 296.481,1089.37 299.295,1089.54 302.113,1089.48 304.918,1089.2 307.692,1088.7 310.417,1087.98 313.077,1087.05 315.653,1085.9 318.131,1084.56 320.494,1083.02 322.728,1081.3 324.818,1079.41 326.75,1077.36 328.514,1075.16 330.098,1072.83 331.491,1070.38 332.685,1067.82 333.673,1065.18 334.447,1062.47 335.004,1059.71 335.339,1056.91 335.451,1054.09 "/>
<path clip-path="url(#clip382)" d="M253.388 1305.76 L253.276 1302.94 L252.94 1300.14 L252.384 1297.38 L251.609 1294.67 L250.621 1292.03 L249.427 1289.47 L248.034 1287.02 L246.451 1284.69 L244.687 1282.49 L242.754 1280.44 L240.664 1278.55 L238.431 1276.83 L236.068 1275.29 L233.59 1273.95 L231.013 1272.8 L228.354 1271.87 L225.629 1271.15 L222.855 1270.65 L220.05 1270.37 L217.232 1270.31 L214.418 1270.48 L211.626 1270.87 L208.874 1271.48 L206.18 1272.31 L203.56 1273.35 L201.031 1274.6 L198.608 1276.04 L196.308 1277.67 L194.145 1279.47 L192.132 1281.45 L190.282 1283.57 L188.607 1285.84 L187.118 1288.23 L185.823 1290.74 L184.731 1293.34 L183.85 1296.01 L183.183 1298.75 L182.737 1301.54 L182.513 1304.35 L182.513 1307.17 L182.737 1309.98 L183.183 1312.76 L183.85 1315.5 L184.731 1318.18 L185.823 1320.77 L187.118 1323.28 L188.607 1325.67 L190.282 1327.94 L192.132 1330.07 L194.145 1332.04 L196.308 1333.85 L198.608 1335.48 L201.031 1336.92 L203.56 1338.16 L206.18 1339.2 L208.874 1340.03 L211.626 1340.64 L214.418 1341.03 L217.232 1341.2 L220.05 1341.14 L222.855 1340.87 L225.629 1340.36 L228.354 1339.64 L231.013 1338.71 L233.59 1337.56 L236.068 1336.22 L238.431 1334.68 L240.664 1332.96 L242.754 1331.07 L244.687 1329.02 L246.451 1326.82 L248.034 1324.49 L249.427 1322.04 L250.621 1319.49 L251.609 1316.85 L252.384 1314.14 L252.94 1311.37 L253.276 1308.57 L253.388 1305.76 L253.388 1305.76  Z" fill="#e5e5e5" fill-rule="evenodd" fill-opacity="1"/>
<polyline clip-path="url(#clip382)" style="stroke:#000000; stroke-linecap:round; stroke-linejoin:round; stroke-width:4; stroke-opacity:1; fill:none" points="253.388,1305.76 253.276,1302.94 252.94,1300.14 252.384,1297.38 251.609,1294.67 250.621,1292.03 249.427,1289.47 248.034,1287.02 246.451,1284.69 244.687,1282.49 242.754,1280.44 240.664,1278.55 238.431,1276.83 236.068,1275.29 233.59,1273.95 231.013,1272.8 228.354,1271.87 225.629,1271.15 222.855,1270.65 220.05,1270.37 217.232,1270.31 214.418,1270.48 211.626,1270.87 208.874,1271.48 206.18,1272.31 203.56,1273.35 201.031,1274.6 198.608,1276.04 196.308,1277.67 194.145,1279.47 192.132,1281.45 190.282,1283.57 188.607,1285.84 187.118,1288.23 185.823,1290.74 184.731,1293.34 183.85,1296.01 183.183,1298.75 182.737,1301.54 182.513,1304.35 182.513,1307.17 182.737,1309.98 183.183,1312.76 183.85,1315.5 184.731,1318.18 185.823,1320.77 187.118,1323.28 188.607,1325.67 190.282,1327.94 192.132,1330.07 194.145,1332.04 196.308,1333.85 198.608,1335.48 201.031,1336.92 203.56,1338.16 206.18,1339.2 208.874,1340.03 211.626,1340.64 214.418,1341.03 217.232,1341.2 220.05,1341.14 222.855,1340.87 225.629,1340.36 228.354,1339.64 231.013,1338.71 233.59,1337.56 236.068,1336.22 238.431,1334.68 240.664,1332.96 242.754,1331.07 244.687,1329.02 246.451,1326.82 248.034,1324.49 249.427,1322.04 250.621,1319.49 251.609,1316.85 252.384,1314.14 252.94,1311.37 253.276,1308.57 253.388,1305.76 "/>
<path clip-path="url(#clip382)" d="M212.356 1557.42 L212.244 1554.6 L211.909 1551.8 L211.352 1549.04 L210.577 1546.33 L209.59 1543.69 L208.396 1541.14 L207.002 1538.68 L205.419 1536.35 L203.655 1534.15 L201.722 1532.1 L199.632 1530.21 L197.399 1528.49 L195.036 1526.95 L192.558 1525.61 L189.981 1524.47 L187.322 1523.53 L184.597 1522.81 L181.823 1522.31 L179.018 1522.03 L176.2 1521.97 L173.386 1522.14 L170.594 1522.53 L167.843 1523.14 L165.148 1523.97 L162.528 1525.01 L159.999 1526.26 L157.577 1527.7 L155.277 1529.33 L153.113 1531.14 L151.1 1533.11 L149.25 1535.24 L147.575 1537.5 L146.086 1539.9 L144.791 1542.4 L143.7 1545 L142.818 1547.68 L142.152 1550.42 L141.705 1553.2 L141.481 1556.01 L141.481 1558.83 L141.705 1561.64 L142.152 1564.42 L142.818 1567.16 L143.7 1569.84 L144.791 1572.44 L146.086 1574.94 L147.575 1577.33 L149.25 1579.6 L151.1 1581.73 L153.113 1583.7 L155.277 1585.51 L157.577 1587.14 L159.999 1588.58 L162.528 1589.82 L165.148 1590.86 L167.843 1591.69 L170.594 1592.3 L173.386 1592.69 L176.2 1592.86 L179.018 1592.81 L181.823 1592.53 L184.597 1592.03 L187.322 1591.3 L189.981 1590.37 L192.558 1589.23 L195.036 1587.88 L197.399 1586.35 L199.632 1584.63 L201.722 1582.73 L203.655 1580.68 L205.419 1578.48 L207.002 1576.15 L208.396 1573.7 L209.59 1571.15 L210.577 1568.51 L211.352 1565.8 L211.909 1563.03 L212.244 1560.23 L212.356 1557.42 L212.356 1557.42  Z" fill="#e5e5e5" fill-rule="evenodd" fill-opacity="1"/>
<polyline clip-path="url(#clip382)" style="stroke:#000000; stroke-linecap:round; stroke-linejoin:round; stroke-width:4; stroke-opacity:1; fill:none" points="212.356,1557.42 212.244,1554.6 211.909,1551.8 211.352,1549.04 210.577,1546.33 209.59,1543.69 208.396,1541.14 207.002,1538.68 205.419,1536.35 203.655,1534.15 201.722,1532.1 199.632,1530.21 197.399,1528.49 195.036,1526.95 192.558,1525.61 189.981,1524.47 187.322,1523.53 184.597,1522.81 181.823,1522.31 179.018,1522.03 176.2,1521.97 173.386,1522.14 170.594,1522.53 167.843,1523.14 165.148,1523.97 162.528,1525.01 159.999,1526.26 157.577,1527.7 155.277,1529.33 153.113,1531.14 151.1,1533.11 149.25,1535.24 147.575,1537.5 146.086,1539.9 144.791,1542.4 143.7,1545 142.818,1547.68 142.152,1550.42 141.705,1553.2 141.481,1556.01 141.481,1558.83 141.705,1561.64 142.152,1564.42 142.818,1567.16 143.7,1569.84 144.791,1572.44 146.086,1574.94 147.575,1577.33 149.25,1579.6 151.1,1581.73 153.113,1583.7 155.277,1585.51 157.577,1587.14 159.999,1588.58 162.528,1589.82 165.148,1590.86 167.843,1591.69 170.594,1592.3 173.386,1592.69 176.2,1592.86 179.018,1592.81 181.823,1592.53 184.597,1592.03 187.322,1591.3 189.981,1590.37 192.558,1589.23 195.036,1587.88 197.399,1586.35 199.632,1584.63 201.722,1582.73 203.655,1580.68 205.419,1578.48 207.002,1576.15 208.396,1573.7 209.59,1571.15 210.577,1568.51 211.352,1565.8 211.909,1563.03 212.244,1560.23 212.356,1557.42 "/>
<path clip-path="url(#clip382)" d="M212.356 1809.08 L212.244 1806.26 L211.909 1803.46 L211.352 1800.7 L210.577 1797.99 L209.59 1795.35 L208.396 1792.8 L207.002 1790.35 L205.419 1788.01 L203.655 1785.82 L201.722 1783.76 L199.632 1781.87 L197.399 1780.15 L195.036 1778.62 L192.558 1777.27 L189.981 1776.13 L187.322 1775.19 L184.597 1774.47 L181.823 1773.97 L179.018 1773.69 L176.2 1773.64 L173.386 1773.8 L170.594 1774.19 L167.843 1774.81 L165.148 1775.63 L162.528 1776.67 L159.999 1777.92 L157.577 1779.36 L155.277 1780.99 L153.113 1782.8 L151.1 1784.77 L149.25 1786.9 L147.575 1789.16 L146.086 1791.56 L144.791 1794.06 L143.7 1796.66 L142.818 1799.34 L142.152 1802.08 L141.705 1804.86 L141.481 1807.67 L141.481 1810.49 L141.705 1813.3 L142.152 1816.08 L142.818 1818.82 L143.7 1821.5 L144.791 1824.1 L146.086 1826.6 L147.575 1828.99 L149.25 1831.26 L151.1 1833.39 L153.113 1835.36 L155.277 1837.17 L157.577 1838.8 L159.999 1840.24 L162.528 1841.49 L165.148 1842.53 L167.843 1843.35 L170.594 1843.97 L173.386 1844.36 L176.2 1844.52 L179.018 1844.47 L181.823 1844.19 L184.597 1843.69 L187.322 1842.97 L189.981 1842.03 L192.558 1840.89 L195.036 1839.54 L197.399 1838.01 L199.632 1836.29 L201.722 1834.4 L203.655 1832.34 L205.419 1830.15 L207.002 1827.81 L208.396 1825.36 L209.59 1822.81 L210.577 1820.17 L211.352 1817.46 L211.909 1814.7 L212.244 1811.9 L212.356 1809.08 L212.356 1809.08  Z" fill="#e5e5e5" fill-rule="evenodd" fill-opacity="1"/>
<polyline clip-path="url(#clip382)" style="stroke:#000000; stroke-linecap:round; stroke-linejoin:round; stroke-width:4; stroke-opacity:1; fill:none" points="212.356,1809.08 212.244,1806.26 211.909,1803.46 211.352,1800.7 210.577,1797.99 209.59,1795.35 208.396,1792.8 207.002,1790.35 205.419,1788.01 203.655,1785.82 201.722,1783.76 199.632,1781.87 197.399,1780.15 195.036,1778.62 192.558,1777.27 189.981,1776.13 187.322,1775.19 184.597,1774.47 181.823,1773.97 179.018,1773.69 176.2,1773.64 173.386,1773.8 170.594,1774.19 167.843,1774.81 165.148,1775.63 162.528,1776.67 159.999,1777.92 157.577,1779.36 155.277,1780.99 153.113,1782.8 151.1,1784.77 149.25,1786.9 147.575,1789.16 146.086,1791.56 144.791,1794.06 143.7,1796.66 142.818,1799.34 142.152,1802.08 141.705,1804.86 141.481,1807.67 141.481,1810.49 141.705,1813.3 142.152,1816.08 142.818,1818.82 143.7,1821.5 144.791,1824.1 146.086,1826.6 147.575,1828.99 149.25,1831.26 151.1,1833.39 153.113,1835.36 155.277,1837.17 157.577,1838.8 159.999,1840.24 162.528,1841.49 165.148,1842.53 167.843,1843.35 170.594,1843.97 173.386,1844.36 176.2,1844.52 179.018,1844.47 181.823,1844.19 184.597,1843.69 187.322,1842.97 189.981,1842.03 192.558,1840.89 195.036,1839.54 197.399,1838.01 199.632,1836.29 201.722,1834.4 203.655,1832.34 205.419,1830.15 207.002,1827.81 208.396,1825.36 209.59,1822.81 210.577,1820.17 211.352,1817.46 211.909,1814.7 212.244,1811.9 212.356,1809.08 "/>
<path clip-path="url(#clip382)" d="M212.356 2060.74 L212.244 2057.92 L211.909 2055.13 L211.352 2052.36 L210.577 2049.65 L209.59 2047.01 L208.396 2044.46 L207.002 2042.01 L205.419 2039.68 L203.655 2037.48 L201.722 2035.43 L199.632 2033.53 L197.399 2031.81 L195.036 2030.28 L192.558 2028.93 L189.981 2027.79 L187.322 2026.86 L184.597 2026.13 L181.823 2025.63 L179.018 2025.35 L176.2 2025.3 L173.386 2025.47 L170.594 2025.86 L167.843 2026.47 L165.148 2027.3 L162.528 2028.34 L159.999 2029.58 L157.577 2031.02 L155.277 2032.65 L153.113 2034.46 L151.1 2036.43 L149.25 2038.56 L147.575 2040.83 L146.086 2043.22 L144.791 2045.72 L143.7 2048.32 L142.818 2051 L142.152 2053.74 L141.705 2056.52 L141.481 2059.33 L141.481 2062.15 L141.705 2064.96 L142.152 2067.74 L142.818 2070.48 L143.7 2073.16 L144.791 2075.76 L146.086 2078.26 L147.575 2080.66 L149.25 2082.92 L151.1 2085.05 L153.113 2087.02 L155.277 2088.83 L157.577 2090.46 L159.999 2091.9 L162.528 2093.15 L165.148 2094.19 L167.843 2095.02 L170.594 2095.63 L173.386 2096.02 L176.2 2096.19 L179.018 2096.13 L181.823 2095.85 L184.597 2095.35 L187.322 2094.63 L189.981 2093.69 L192.558 2092.55 L195.036 2091.21 L197.399 2089.67 L199.632 2087.95 L201.722 2086.06 L203.655 2084.01 L205.419 2081.81 L207.002 2079.47 L208.396 2077.02 L209.59 2074.47 L210.577 2071.83 L211.352 2069.12 L211.909 2066.36 L212.244 2063.56 L212.356 2060.74 L212.356 2060.74  Z" fill="#e5e5e5" fill-rule="evenodd" fill-opacity="1"/>
<polyline clip-path="url(#clip382)" style="stroke:#000000; stroke-linecap:round; stroke-linejoin:round; stroke-width:4; stroke-opacity:1; fill:none" points="212.356,2060.74 212.244,2057.92 211.909,2055.13 211.352,2052.36 210.577,2049.65 209.59,2047.01 208.396,2044.46 207.002,2042.01 205.419,2039.68 203.655,2037.48 201.722,2035.43 199.632,2033.53 197.399,2031.81 195.036,2030.28 192.558,2028.93 189.981,2027.79 187.322,2026.86 184.597,2026.13 181.823,2025.63 179.018,2025.35 176.2,2025.3 173.386,2025.47 170.594,2025.86 167.843,2026.47 165.148,2027.3 162.528,2028.34 159.999,2029.58 157.577,2031.02 155.277,2032.65 153.113,2034.46 151.1,2036.43 149.25,2038.56 147.575,2040.83 146.086,2043.22 144.791,2045.72 143.7,2048.32 142.818,2051 142.152,2053.74 141.705,2056.52 141.481,2059.33 141.481,2062.15 141.705,2064.96 142.152,2067.74 142.818,2070.48 143.7,2073.16 144.791,2075.76 146.086,2078.26 147.575,2080.66 149.25,2082.92 151.1,2085.05 153.113,2087.02 155.277,2088.83 157.577,2090.46 159.999,2091.9 162.528,2093.15 165.148,2094.19 167.843,2095.02 170.594,2095.63 173.386,2096.02 176.2,2096.19 179.018,2096.13 181.823,2095.85 184.597,2095.35 187.322,2094.63 189.981,2093.69 192.558,2092.55 195.036,2091.21 197.399,2089.67 199.632,2087.95 201.722,2086.06 203.655,2084.01 205.419,2081.81 207.002,2079.47 208.396,2077.02 209.59,2074.47 210.577,2071.83 211.352,2069.12 211.909,2066.36 212.244,2063.56 212.356,2060.74 "/>
<path clip-path="url(#clip382)" d="M238.629 2312.4 L238.434 2307.5 L237.85 2302.63 L236.881 2297.82 L235.532 2293.1 L233.813 2288.5 L231.733 2284.05 L229.308 2279.79 L226.551 2275.73 L223.48 2271.9 L220.114 2268.33 L216.476 2265.03 L212.587 2262.04 L208.473 2259.36 L204.159 2257.02 L199.673 2255.03 L195.042 2253.4 L190.298 2252.15 L185.468 2251.28 L180.584 2250.79 L175.677 2250.69 L170.778 2250.98 L165.918 2251.66 L161.127 2252.73 L156.436 2254.17 L151.874 2255.98 L147.47 2258.15 L143.253 2260.66 L139.248 2263.5 L135.481 2266.64 L131.977 2270.08 L128.756 2273.78 L125.84 2277.73 L123.246 2281.9 L120.992 2286.26 L119.091 2290.78 L117.556 2295.44 L116.396 2300.21 L115.619 2305.06 L115.229 2309.95 L115.229 2314.86 L115.619 2319.75 L116.396 2324.6 L117.556 2329.36 L119.091 2334.03 L120.992 2338.55 L123.246 2342.91 L125.84 2347.08 L128.756 2351.02 L131.977 2354.73 L135.481 2358.16 L139.248 2361.31 L143.253 2364.15 L147.47 2366.66 L151.874 2368.82 L156.436 2370.64 L161.127 2372.08 L165.918 2373.14 L170.778 2373.82 L175.677 2374.12 L180.584 2374.02 L185.468 2373.53 L190.298 2372.66 L195.042 2371.4 L199.673 2369.78 L204.159 2367.79 L208.473 2365.44 L212.587 2362.77 L216.476 2359.77 L220.114 2356.48 L223.48 2352.91 L226.551 2349.08 L229.308 2345.02 L231.733 2340.75 L233.813 2336.31 L235.532 2331.71 L236.881 2326.99 L237.85 2322.18 L238.434 2317.31 L238.629 2312.4 L238.629 2312.4  Z" fill="#e5e5e5" fill-rule="evenodd" fill-opacity="1"/>
<polyline clip-path="url(#clip382)" style="stroke:#000000; stroke-linecap:round; stroke-linejoin:round; stroke-width:4; stroke-opacity:1; fill:none" points="238.629,2312.4 238.434,2307.5 237.85,2302.63 236.881,2297.82 235.532,2293.1 233.813,2288.5 231.733,2284.05 229.308,2279.79 226.551,2275.73 223.48,2271.9 220.114,2268.33 216.476,2265.03 212.587,2262.04 208.473,2259.36 204.159,2257.02 199.673,2255.03 195.042,2253.4 190.298,2252.15 185.468,2251.28 180.584,2250.79 175.677,2250.69 170.778,2250.98 165.918,2251.66 161.127,2252.73 156.436,2254.17 151.874,2255.98 147.47,2258.15 143.253,2260.66 139.248,2263.5 135.481,2266.64 131.977,2270.08 128.756,2273.78 125.84,2277.73 123.246,2281.9 120.992,2286.26 119.091,2290.78 117.556,2295.44 116.396,2300.21 115.619,2305.06 115.229,2309.95 115.229,2314.86 115.619,2319.75 116.396,2324.6 117.556,2329.36 119.091,2334.03 120.992,2338.55 123.246,2342.91 125.84,2347.08 128.756,2351.02 131.977,2354.73 135.481,2358.16 139.248,2361.31 143.253,2364.15 147.47,2366.66 151.874,2368.82 156.436,2370.64 161.127,2372.08 165.918,2373.14 170.778,2373.82 175.677,2374.12 180.584,2374.02 185.468,2373.53 190.298,2372.66 195.042,2371.4 199.673,2369.78 204.159,2367.79 208.473,2365.44 212.587,2362.77 216.476,2359.77 220.114,2356.48 223.48,2352.91 226.551,2349.08 229.308,2345.02 231.733,2340.75 233.813,2336.31 235.532,2331.71 236.881,2326.99 237.85,2322.18 238.434,2317.31 238.629,2312.4 "/>
<circle clip-path="url(#clip382)" style="fill:#d14a00; stroke:none; fill-opacity:0" cx="119.46" cy="583.597" r="2"/>
<circle clip-path="url(#clip382)" style="fill:#d14a00; stroke:none; fill-opacity:0" cx="480.54" cy="583.597" r="2"/>
<circle clip-path="url(#clip382)" style="fill:#d14a00; stroke:none; fill-opacity:0" cx="300" cy="1054.09" r="2"/>
<circle clip-path="url(#clip382)" style="fill:#d14a00; stroke:none; fill-opacity:0" cx="217.936" cy="1305.76" r="2"/>
<circle clip-path="url(#clip382)" style="fill:#d14a00; stroke:none; fill-opacity:0" cx="176.905" cy="1557.42" r="2"/>
<circle clip-path="url(#clip382)" style="fill:#d14a00; stroke:none; fill-opacity:0" cx="176.905" cy="1809.08" r="2"/>
<circle clip-path="url(#clip382)" style="fill:#d14a00; stroke:none; fill-opacity:0" cx="176.905" cy="2060.74" r="2"/>
<circle clip-path="url(#clip382)" style="fill:#d14a00; stroke:none; fill-opacity:0" cx="176.905" cy="2312.4" r="2"/>
<path clip-path="url(#clip380)" d="M94.2287 566.8 L94.2287 583.032 L101.578 583.032 Q105.658 583.032 107.886 580.92 Q110.114 578.808 110.114 574.902 Q110.114 571.024 107.886 568.912 Q105.658 566.8 101.578 566.8 L94.2287 566.8 M88.3838 561.997 L101.578 561.997 Q108.841 561.997 112.545 565.295 Q116.277 568.565 116.277 574.902 Q116.277 581.296 112.545 584.566 Q108.841 587.836 101.578 587.836 L94.2287 587.836 L94.2287 605.197 L88.3838 605.197 L88.3838 561.997 Z" fill="#000000" fill-rule="nonzero" fill-opacity="1" /><path clip-path="url(#clip380)" d="M125.652 600.278 L135.201 600.278 L135.201 567.321 L124.813 569.404 L124.813 564.08 L135.143 561.997 L140.988 561.997 L140.988 600.278 L150.536 600.278 L150.536 605.197 L125.652 605.197 L125.652 600.278 Z" fill="#000000" fill-rule="nonzero" fill-opacity="1" /><path clip-path="url(#clip380)" d="M455.54 566.8 L455.54 583.032 L462.89 583.032 Q466.969 583.032 469.197 580.92 Q471.425 578.808 471.425 574.902 Q471.425 571.024 469.197 568.912 Q466.969 566.8 462.89 566.8 L455.54 566.8 M449.695 561.997 L462.89 561.997 Q470.152 561.997 473.856 565.295 Q477.589 568.565 477.589 574.902 Q477.589 581.296 473.856 584.566 Q470.152 587.836 462.89 587.836 L455.54 587.836 L455.54 605.197 L449.695 605.197 L449.695 561.997 Z" fill="#000000" fill-rule="nonzero" fill-opacity="1" /><path clip-path="url(#clip380)" d="M490.985 600.278 L511.385 600.278 L511.385 605.197 L483.954 605.197 L483.954 600.278 Q487.282 596.834 493.011 591.047 Q498.769 585.232 500.245 583.553 Q503.051 580.399 504.151 578.229 Q505.279 576.03 505.279 573.918 Q505.279 570.475 502.849 568.305 Q500.447 566.134 496.57 566.134 Q493.821 566.134 490.754 567.089 Q487.716 568.044 484.244 569.983 L484.244 564.08 Q487.774 562.662 490.841 561.939 Q493.908 561.215 496.454 561.215 Q503.167 561.215 507.16 564.572 Q511.153 567.928 511.153 573.542 Q511.153 576.204 510.14 578.605 Q509.157 580.978 506.524 584.219 Q505.8 585.058 501.923 589.08 Q498.046 593.073 490.985 600.278 Z" fill="#000000" fill-rule="nonzero" fill-opacity="1" /><path clip-path="url(#clip380)" d="M305.31 1052.4 Q309.505 1053.3 311.849 1056.13 Q314.222 1058.97 314.222 1063.14 Q314.222 1069.53 309.823 1073.03 Q305.425 1076.53 297.324 1076.53 Q294.604 1076.53 291.71 1075.98 Q288.846 1075.46 285.778 1074.39 L285.778 1068.75 Q288.209 1070.17 291.102 1070.89 Q293.996 1071.61 297.15 1071.61 Q302.648 1071.61 305.512 1069.44 Q308.406 1067.27 308.406 1063.14 Q308.406 1059.32 305.715 1057.18 Q303.053 1055.01 298.278 1055.01 L293.244 1055.01 L293.244 1050.2 L298.51 1050.2 Q302.821 1050.2 305.107 1048.5 Q307.393 1046.76 307.393 1043.52 Q307.393 1040.19 305.02 1038.43 Q302.676 1036.63 298.278 1036.63 Q295.877 1036.63 293.128 1037.15 Q290.379 1037.67 287.081 1038.77 L287.081 1033.57 Q290.408 1032.64 293.302 1032.18 Q296.224 1031.71 298.799 1031.71 Q305.454 1031.71 309.332 1034.75 Q313.209 1037.76 313.209 1042.91 Q313.209 1046.5 311.154 1048.99 Q309.1 1051.45 305.31 1052.4 Z" fill="#000000" fill-rule="nonzero" fill-opacity="1" /><path clip-path="url(#clip380)" d="M221.698 1289.25 L206.941 1312.31 L221.698 1312.31 L221.698 1289.25 M220.164 1284.16 L227.514 1284.16 L227.514 1312.31 L233.677 1312.31 L233.677 1317.17 L227.514 1317.17 L227.514 1327.36 L221.698 1327.36 L221.698 1317.17 L202.196 1317.17 L202.196 1311.53 L220.164 1284.16 Z" fill="#000000" fill-rule="nonzero" fill-opacity="1" /><path clip-path="url(#clip380)" d="M164.752 1535.82 L187.697 1535.82 L187.697 1540.74 L170.105 1540.74 L170.105 1551.33 Q171.378 1550.89 172.651 1550.69 Q173.924 1550.46 175.197 1550.46 Q182.431 1550.46 186.656 1554.42 Q190.88 1558.39 190.88 1565.16 Q190.88 1572.13 186.54 1576.01 Q182.2 1579.86 174.3 1579.86 Q171.581 1579.86 168.745 1579.39 Q165.938 1578.93 162.929 1578.01 L162.929 1572.13 Q165.533 1573.55 168.311 1574.24 Q171.089 1574.94 174.185 1574.94 Q179.19 1574.94 182.113 1572.31 Q185.035 1569.67 185.035 1565.16 Q185.035 1560.64 182.113 1558.01 Q179.19 1555.38 174.185 1555.38 Q171.841 1555.38 169.497 1555.9 Q167.182 1556.42 164.752 1557.52 L164.752 1535.82 Z" fill="#000000" fill-rule="nonzero" fill-opacity="1" /><path clip-path="url(#clip380)" d="M177.411 1806.75 Q173.476 1806.75 171.161 1809.44 Q168.875 1812.13 168.875 1816.82 Q168.875 1821.48 171.161 1824.2 Q173.476 1826.89 177.411 1826.89 Q181.346 1826.89 183.632 1824.2 Q185.947 1821.48 185.947 1816.82 Q185.947 1812.13 183.632 1809.44 Q181.346 1806.75 177.411 1806.75 M189.014 1788.43 L189.014 1793.76 Q186.815 1792.72 184.558 1792.17 Q182.33 1791.62 180.131 1791.62 Q174.344 1791.62 171.277 1795.52 Q168.239 1799.43 167.805 1807.33 Q169.512 1804.81 172.087 1803.48 Q174.662 1802.12 177.758 1802.12 Q184.269 1802.12 188.03 1806.09 Q191.821 1810.02 191.821 1816.82 Q191.821 1823.48 187.885 1827.5 Q183.95 1831.52 177.411 1831.52 Q169.917 1831.52 165.953 1825.79 Q161.989 1820.03 161.989 1809.12 Q161.989 1798.88 166.85 1792.8 Q171.711 1786.7 179.899 1786.7 Q182.098 1786.7 184.326 1787.13 Q186.583 1787.57 189.014 1788.43 Z" fill="#000000" fill-rule="nonzero" fill-opacity="1" /><path clip-path="url(#clip380)" d="M163.016 2039.14 L190.793 2039.14 L190.793 2041.63 L175.111 2082.34 L169.005 2082.34 L183.762 2044.06 L163.016 2044.06 L163.016 2039.14 Z" fill="#000000" fill-rule="nonzero" fill-opacity="1" /><path clip-path="url(#clip380)" d="M146.769 2313.37 L146.769 2329.2 L156.144 2329.2 Q160.86 2329.2 163.117 2327.26 Q165.403 2325.29 165.403 2321.27 Q165.403 2317.22 163.117 2315.31 Q160.86 2313.37 156.144 2313.37 L146.769 2313.37 M146.769 2295.61 L146.769 2308.63 L155.42 2308.63 Q159.703 2308.63 161.786 2307.04 Q163.898 2305.42 163.898 2302.12 Q163.898 2298.85 161.786 2297.23 Q159.703 2295.61 155.42 2295.61 L146.769 2295.61 M140.924 2290.8 L155.854 2290.8 Q162.538 2290.8 166.155 2293.58 Q169.772 2296.36 169.772 2301.48 Q169.772 2305.44 167.92 2307.79 Q166.068 2310.13 162.48 2310.71 Q166.792 2311.64 169.164 2314.59 Q171.566 2317.51 171.566 2321.91 Q171.566 2327.7 167.631 2330.85 Q163.696 2334 156.433 2334 L140.924 2334 L140.924 2290.8 Z" fill="#000000" fill-rule="nonzero" fill-opacity="1" /><path clip-path="url(#clip380)" d="M212.885 2294.13 L212.885 2300.29 Q209.934 2297.55 206.577 2296.19 Q203.25 2294.83 199.488 2294.83 Q192.081 2294.83 188.146 2299.37 Q184.211 2303.88 184.211 2312.45 Q184.211 2320.98 188.146 2325.53 Q192.081 2330.04 199.488 2330.04 Q203.25 2330.04 206.577 2328.68 Q209.934 2327.32 212.885 2324.57 L212.885 2330.68 Q209.818 2332.76 206.375 2333.8 Q202.961 2334.84 199.141 2334.84 Q189.332 2334.84 183.69 2328.85 Q178.048 2322.83 178.048 2312.45 Q178.048 2302.03 183.69 2296.04 Q189.332 2290.02 199.141 2290.02 Q203.018 2290.02 206.433 2291.06 Q209.876 2292.08 212.885 2294.13 Z" fill="#000000" fill-rule="nonzero" fill-opacity="1" /></svg>
